<?xml version="1.0" encoding="UTF-8"?>
<!--Generator: Apple Native CoreSVG 232.5-->
<!DOCTYPE svg
PUBLIC "-//W3C//DTD SVG 1.1//EN"
       "http://www.w3.org/Graphics/SVG/1.1/DTD/svg11.dtd">
<svg version="1.1" xmlns="http://www.w3.org/2000/svg" xmlns:xlink="http://www.w3.org/1999/xlink" width="3300" height="2200">
 <!--glyph: "uni100D77.medium", point size: 100.0, font version: "19.2d2e1", template writer version: "128"-->
 <style>.SFSymbolsPreviewWireframe {fill:none;opacity:1.0;stroke:black;stroke-width:0.5}
</style>
 <g id="Notes">
  <rect height="2200" id="artboard" style="fill:white;opacity:1" width="3300" x="0" y="0"/>
  <line style="fill:none;stroke:black;opacity:1;stroke-width:0.5;" x1="263" x2="3036" y1="292" y2="292"/>
  <text style="stroke:none;fill:black;font-family:sans-serif;font-size:13;font-weight:bold;" transform="matrix(1 0 0 1 263 322)">Weight/Scale Variations</text>
  <text style="stroke:none;fill:black;font-family:sans-serif;font-size:13;text-anchor:middle;" transform="matrix(1 0 0 1 559.711 322)">Ultralight</text>
  <text style="stroke:none;fill:black;font-family:sans-serif;font-size:13;text-anchor:middle;" transform="matrix(1 0 0 1 856.422 322)">Thin</text>
  <text style="stroke:none;fill:black;font-family:sans-serif;font-size:13;text-anchor:middle;" transform="matrix(1 0 0 1 1153.13 322)">Light</text>
  <text style="stroke:none;fill:black;font-family:sans-serif;font-size:13;text-anchor:middle;" transform="matrix(1 0 0 1 1449.84 322)">Regular</text>
  <text style="stroke:none;fill:black;font-family:sans-serif;font-size:13;text-anchor:middle;" transform="matrix(1 0 0 1 1746.56 322)">Medium</text>
  <text style="stroke:none;fill:black;font-family:sans-serif;font-size:13;text-anchor:middle;" transform="matrix(1 0 0 1 2043.27 322)">Semibold</text>
  <text style="stroke:none;fill:black;font-family:sans-serif;font-size:13;text-anchor:middle;" transform="matrix(1 0 0 1 2339.98 322)">Bold</text>
  <text style="stroke:none;fill:black;font-family:sans-serif;font-size:13;text-anchor:middle;" transform="matrix(1 0 0 1 2636.69 322)">Heavy</text>
  <text style="stroke:none;fill:black;font-family:sans-serif;font-size:13;text-anchor:middle;" transform="matrix(1 0 0 1 2933.4 322)">Black</text>
  <line style="fill:none;stroke:black;opacity:1;stroke-width:0.5;" x1="263" x2="3036" y1="1903" y2="1903"/>
  <g transform="matrix(0.2 0 0 0.2 263 1933)">
   <path d="m46.2402 4.15039c21.5332 0 39.4531-17.8711 39.4531-39.4043s-17.9688-39.4043-39.502-39.4043c-21.4844 0-39.3555 17.8711-39.3555 39.4043s17.9199 39.4043 39.4043 39.4043Zm0-7.42188c-17.7246 0-31.8848-14.209-31.8848-31.9824s14.1113-31.9824 31.8359-31.9824c17.7734 0 32.0312 14.209 32.0312 31.9824s-14.209 31.9824-31.9824 31.9824Zm-17.9688-31.9824c0 2.14844 1.51367 3.61328 3.75977 3.61328h10.498v10.5957c0 2.19727 1.46484 3.71094 3.61328 3.71094 2.24609 0 3.71094-1.51367 3.71094-3.71094v-10.5957h10.5957c2.19727 0 3.71094-1.46484 3.71094-3.61328 0-2.19727-1.51367-3.71094-3.71094-3.71094h-10.5957v-10.5469c0-2.24609-1.46484-3.75977-3.71094-3.75977-2.14844 0-3.61328 1.51367-3.61328 3.75977v10.5469h-10.498c-2.24609 0-3.75977 1.51367-3.75977 3.71094Z"/>
  </g>
  <g transform="matrix(0.2 0 0 0.2 281.506 1933)">
   <path d="m58.5449 14.5508c27.2461 0 49.8047-22.6074 49.8047-49.8047 0-27.2461-22.6074-49.8047-49.8535-49.8047-27.1973 0-49.7559 22.5586-49.7559 49.8047 0 27.1973 22.6074 49.8047 49.8047 49.8047Zm0-8.30078c-23.0469 0-41.4551-18.457-41.4551-41.5039s18.3594-41.5039 41.4062-41.5039 41.5527 18.457 41.5527 41.5039-18.457 41.5039-41.5039 41.5039Zm-22.6562-41.5039c0 2.39258 1.66016 4.00391 4.15039 4.00391h14.3555v14.4043c0 2.44141 1.66016 4.15039 4.05273 4.15039 2.44141 0 4.15039-1.66016 4.15039-4.15039v-14.4043h14.4043c2.44141 0 4.15039-1.61133 4.15039-4.00391 0-2.44141-1.70898-4.15039-4.15039-4.15039h-14.4043v-14.3555c0-2.49023-1.70898-4.19922-4.15039-4.19922-2.39258 0-4.05273 1.70898-4.05273 4.19922v14.3555h-14.3555c-2.49023 0-4.15039 1.70898-4.15039 4.15039Z"/>
  </g>
  <g transform="matrix(0.2 0 0 0.2 304.924 1933)">
   <path d="m74.8535 28.3203c34.8145 0 63.623-28.8086 63.623-63.5742 0-34.8145-28.8574-63.623-63.6719-63.623-34.7656 0-63.5254 28.8086-63.5254 63.623 0 34.7656 28.8086 63.5742 63.5742 63.5742Zm0-9.08203c-30.1758 0-54.4434-24.3164-54.4434-54.4922 0-30.2246 24.2188-54.4922 54.3945-54.4922 30.2246 0 54.541 24.2676 54.541 54.4922 0 30.1758-24.2676 54.4922-54.4922 54.4922Zm-28.8574-54.4922c0 2.58789 1.85547 4.39453 4.58984 4.39453h19.7266v19.7754c0 2.68555 1.85547 4.58984 4.44336 4.58984 2.68555 0 4.54102-1.85547 4.54102-4.58984v-19.7754h19.7754c2.68555 0 4.58984-1.80664 4.58984-4.39453 0-2.73438-1.85547-4.58984-4.58984-4.58984h-19.7754v-19.7266c0-2.73438-1.85547-4.63867-4.54102-4.63867-2.58789 0-4.44336 1.9043-4.44336 4.63867v19.7266h-19.7266c-2.73438 0-4.58984 1.85547-4.58984 4.58984Z"/>
  </g>
  <text style="stroke:none;fill:black;font-family:sans-serif;font-size:13;font-weight:bold;" transform="matrix(1 0 0 1 263 1953)">Design Variations</text>
  <text style="stroke:none;fill:black;font-family:sans-serif;font-size:13;" transform="matrix(1 0 0 1 263 1971)">Symbols are supported in up to nine weights and three scales.</text>
  <text style="stroke:none;fill:black;font-family:sans-serif;font-size:13;" transform="matrix(1 0 0 1 263 1989)">For optimal layout with text and other symbols, vertically align</text>
  <text style="stroke:none;fill:black;font-family:sans-serif;font-size:13;" transform="matrix(1 0 0 1 263 2007)">symbols with the adjacent text.</text>
  <line style="fill:none;stroke:#00AEEF;stroke-width:0.5;opacity:1.0;" x1="776" x2="776" y1="1919" y2="1933"/>
  <g transform="matrix(0.2 0 0 0.2 776 1933)">
   <path d="m16.5527 0.78125c2.58789 0 3.85742-0.976562 4.78516-3.71094l6.29883-17.2363h28.8086l6.29883 17.2363c0.927734 2.73438 2.19727 3.71094 4.73633 3.71094 2.58789 0 4.24805-1.5625 4.24805-4.00391 0-0.830078-0.146484-1.61133-0.537109-2.63672l-22.9004-60.9863c-1.12305-2.97852-3.125-4.49219-6.25-4.49219-3.02734 0-5.07812 1.46484-6.15234 4.44336l-22.9004 61.084c-0.390625 1.02539-0.537109 1.80664-0.537109 2.63672 0 2.44141 1.5625 3.95508 4.10156 3.95508Zm13.4766-28.3691 11.8652-32.8613h0.244141l11.8652 32.8613Z"/>
  </g>
  <line style="fill:none;stroke:#00AEEF;stroke-width:0.5;opacity:1.0;" x1="792.836" x2="792.836" y1="1919" y2="1933"/>
  <text style="stroke:none;fill:black;font-family:sans-serif;font-size:13;font-weight:bold;" transform="matrix(1 0 0 1 776 1953)">Margins</text>
  <text style="stroke:none;fill:black;font-family:sans-serif;font-size:13;" transform="matrix(1 0 0 1 776 1971)">Leading and trailing margins on the left and right side of each symbol</text>
  <text style="stroke:none;fill:black;font-family:sans-serif;font-size:13;" transform="matrix(1 0 0 1 776 1989)">can be adjusted by modifying the x-location of the margin guidelines.</text>
  <text style="stroke:none;fill:black;font-family:sans-serif;font-size:13;" transform="matrix(1 0 0 1 776 2007)">Modifications are automatically applied proportionally to all</text>
  <text style="stroke:none;fill:black;font-family:sans-serif;font-size:13;" transform="matrix(1 0 0 1 776 2025)">scales and weights.</text>
  <g transform="matrix(0.2 0 0 0.2 1289 1933)">
   <path d="m14.209 9.32617 8.49609 8.54492c4.29688 4.3457 9.22852 4.05273 13.8672-1.07422l53.4668-58.9355-4.83398-4.88281-53.0762 58.3984c-1.75781 2.00195-3.41797 2.49023-5.76172 0.146484l-5.85938-5.81055c-2.34375-2.29492-1.80664-4.00391 0.195312-5.81055l57.373-54.0039-4.88281-4.83398-57.959 54.4434c-4.93164 4.58984-5.32227 9.47266-1.02539 13.8184Zm32.0801-90.9668c-2.09961 2.05078-2.24609 4.93164-1.07422 6.88477 1.17188 1.80664 3.4668 2.97852 6.68945 2.14844 7.32422-1.70898 14.9414-2.00195 22.0703 2.68555l-2.92969 7.27539c-1.70898 4.15039-0.830078 7.08008 1.85547 9.81445l11.4746 11.5723c2.44141 2.44141 4.49219 2.53906 7.32422 2.05078l5.32227-0.976562 3.32031 3.36914-0.195312 2.7832c-0.195312 2.49023 0.439453 4.39453 2.88086 6.78711l3.80859 3.71094c2.39258 2.39258 5.46875 2.53906 7.8125 0.195312l14.5508-14.5996c2.34375-2.34375 2.24609-5.32227-0.146484-7.71484l-3.85742-3.80859c-2.39258-2.39258-4.24805-3.17383-6.64062-2.97852l-2.88086 0.244141-3.22266-3.17383 1.2207-5.61523c0.634766-2.83203-0.146484-5.0293-3.07617-7.95898l-10.9863-10.9375c-16.6992-16.6016-38.8672-16.2109-53.3203-1.75781Zm7.4707 1.85547c12.1582-8.88672 28.6133-7.37305 39.7461 3.75977l12.1582 12.0605c1.17188 1.17188 1.36719 2.09961 1.02539 3.80859l-1.61133 7.42188 7.51953 7.42188 4.93164-0.292969c1.26953-0.0488281 1.66016 0.0488281 2.63672 1.02539l2.88086 2.88086-12.207 12.207-2.88086-2.88086c-0.976562-0.976562-1.12305-1.36719-1.07422-2.68555l0.341797-4.88281-7.4707-7.42188-7.61719 1.26953c-1.61133 0.341797-2.34375 0.195312-3.56445-0.976562l-10.0098-10.0098c-1.26953-1.17188-1.41602-2.00195-0.634766-3.85742l4.39453-10.4492c-7.8125-7.27539-17.9688-10.4004-28.125-7.42188-0.78125 0.195312-1.07422-0.439453-0.439453-0.976562Z"/>
  </g>
  <text style="stroke:none;fill:black;font-family:sans-serif;font-size:13;font-weight:bold;" transform="matrix(1 0 0 1 1289 1953)">Exporting</text>
  <text style="stroke:none;fill:black;font-family:sans-serif;font-size:13;" transform="matrix(1 0 0 1 1289 1971)">Symbols should be outlined when exporting to ensure the</text>
  <text style="stroke:none;fill:black;font-family:sans-serif;font-size:13;" transform="matrix(1 0 0 1 1289 1989)">design is preserved when submitting to Xcode.</text>
  <text id="template-version" style="stroke:none;fill:black;font-family:sans-serif;font-size:13;text-anchor:end;" transform="matrix(1 0 0 1 3036 1933)">Template v.5.0</text>
  <text style="stroke:none;fill:black;font-family:sans-serif;font-size:13;text-anchor:end;" transform="matrix(1 0 0 1 3036 1951)">Requires Xcode 15 or greater</text>
  <text id="descriptive-name" style="stroke:none;fill:black;font-family:sans-serif;font-size:13;text-anchor:end;" transform="matrix(1 0 0 1 3036 1969)">Generated from textformat.size.smaller</text>
  <text style="stroke:none;fill:black;font-family:sans-serif;font-size:13;text-anchor:end;" transform="matrix(1 0 0 1 3036 1987)">Typeset at 100.0 points</text>
  <text style="stroke:none;fill:black;font-family:sans-serif;font-size:13;" transform="matrix(1 0 0 1 263 726)">Small</text>
  <text style="stroke:none;fill:black;font-family:sans-serif;font-size:13;" transform="matrix(1 0 0 1 263 1156)">Medium</text>
  <text style="stroke:none;fill:black;font-family:sans-serif;font-size:13;" transform="matrix(1 0 0 1 263 1586)">Large</text>
 </g>
 <g id="Guides">
  <g id="H-reference" style="fill:#27AAE1;stroke:none;" transform="matrix(1 0 0 1 339 696)">
   <path d="M0.993654 0L3.63775 0L29.3281-67.1323L30.0303-67.1323L30.0303-70.459L28.1226-70.459ZM11.6885-24.4799L46.9815-24.4799L46.2315-26.7285L12.4385-26.7285ZM55.1196 0L57.7637 0L30.6382-70.459L29.4326-70.459L29.4326-67.1323Z"/>
  </g>
  <line id="Baseline-S" style="fill:none;stroke:#27AAE1;opacity:1;stroke-width:0.5;" x1="263" x2="3036" y1="696" y2="696"/>
  <line id="Capline-S" style="fill:none;stroke:#27AAE1;opacity:1;stroke-width:0.5;" x1="263" x2="3036" y1="625.541" y2="625.541"/>
  <g id="H-reference" style="fill:#27AAE1;stroke:none;" transform="matrix(1 0 0 1 339 1126)">
   <path d="M0.993654 0L3.63775 0L29.3281-67.1323L30.0303-67.1323L30.0303-70.459L28.1226-70.459ZM11.6885-24.4799L46.9815-24.4799L46.2315-26.7285L12.4385-26.7285ZM55.1196 0L57.7637 0L30.6382-70.459L29.4326-70.459L29.4326-67.1323Z"/>
  </g>
  <line id="Baseline-M" style="fill:none;stroke:#27AAE1;opacity:1;stroke-width:0.5;" x1="263" x2="3036" y1="1126" y2="1126"/>
  <line id="Capline-M" style="fill:none;stroke:#27AAE1;opacity:1;stroke-width:0.5;" x1="263" x2="3036" y1="1055.54" y2="1055.54"/>
  <g id="H-reference" style="fill:#27AAE1;stroke:none;" transform="matrix(1 0 0 1 339 1556)">
   <path d="M0.993654 0L3.63775 0L29.3281-67.1323L30.0303-67.1323L30.0303-70.459L28.1226-70.459ZM11.6885-24.4799L46.9815-24.4799L46.2315-26.7285L12.4385-26.7285ZM55.1196 0L57.7637 0L30.6382-70.459L29.4326-70.459L29.4326-67.1323Z"/>
  </g>
  <line id="Baseline-L" style="fill:none;stroke:#27AAE1;opacity:1;stroke-width:0.5;" x1="263" x2="3036" y1="1556" y2="1556"/>
  <line id="Capline-L" style="fill:none;stroke:#27AAE1;opacity:1;stroke-width:0.5;" x1="263" x2="3036" y1="1485.54" y2="1485.54"/>
  <line id="left-margin-Regular-M" style="fill:none;stroke:#00AEEF;stroke-width:0.5;opacity:1.0;" x1="1415.6" x2="1415.6" y1="1030.79" y2="1150.12"/>
  <line id="right-margin-Regular-M" style="fill:none;stroke:#00AEEF;stroke-width:0.5;opacity:1.0;" x1="1484.09" x2="1484.09" y1="1030.79" y2="1150.12"/>
 </g>
 <g id="Symbols">
  <g id="Black-L" transform="matrix(1 0 0 1 2881.99 1556)">
   <path class="SFSymbolsPreviewWireframe" d="M26.7014 3.42122C32.2741 3.42122 35.4872 0.449822 37.3408-6.61198L39.339-13.3006L63.3307-13.3006L65.329-6.31994C67.049 0.587452 70.2609 3.42122 76.3408 3.42122C82.3697 3.42122 86.7442-0.732836 86.7442-6.73927C86.7442-9.08496 86.2885-11.1374 85.3435-13.8752L68.0809-61.3755C64.8951-70.1253 59.8112-73.9473 51.1007-73.9473C42.9366-73.9473 37.8747-69.9917 34.8045-61.3755L17.6391-13.8752C16.7317-11.3543 16.084-8.63853 16.084-6.73927C16.084-0.361579 20.086 3.42122 26.7014 3.42122ZM43.3228-28.8219L50.5796-54.947L51.4477-54.947L59.0758-28.8219Z"/>
  </g>
  <g id="Heavy-L" transform="matrix(1 0 0 1 2587.01 1556)">
   <path class="SFSymbolsPreviewWireframe" d="M25.3464 2.19993C30.184 2.19993 33.0193-0.365034 34.6446-6.44026L37.4878-15.3647L61.7125-15.3647L64.5557-6.21715C66.1075-0.245605 68.9372 2.19993 74.1575 2.19993C79.4485 2.19993 83.266-1.4065 83.266-6.6326C83.266-8.69096 82.8417-10.5206 82.0246-12.9071L64.1088-61.7211C61.3609-69.2383 56.8869-72.5959 49.4189-72.5959C42.3826-72.5959 37.9445-69.1648 35.2801-61.7211L17.429-12.9071C16.6264-10.7148 16.084-8.36417 16.084-6.6326C16.084-1.10858 19.598 2.19993 25.3464 2.19993ZM41.1588-29.0391L48.8637-55.3517L49.8458-55.3517L57.8486-29.0391Z"/>
  </g>
  <g id="Bold-L" transform="matrix(1 0 0 1 2292.32 1556)">
   <path class="SFSymbolsPreviewWireframe" d="M23.6861 0.82036C27.6318 0.82036 29.991-1.25248 31.3394-6.13576L35.2724-17.8638L59.9157-17.8638L63.8487-5.98974C65.1855-1.15609 67.5315 0.82036 71.7285 0.82036C76.0976 0.82036 79.2385-2.11727 79.2385-6.39014C79.2385-8.09497 78.8601-9.64056 78.1969-11.5966L59.355-62.3003C57.145-68.3183 53.4391-71.0923 47.4706-71.0923C41.803-71.0923 38.1483-68.3067 35.9835-62.3003L17.1752-11.5966C16.5032-9.80414 16.084-7.89933 16.084-6.39014C16.084-1.90407 18.9985 0.82036 23.6861 0.82036ZM38.5293-29.2633L46.9068-56.0748L47.9601-56.0748L56.5508-29.2633Z"/>
  </g>
  <g id="Semibold-L" transform="matrix(1 0 0 1 1996.99 1556)">
   <path class="SFSymbolsPreviewWireframe" d="M22.5415-0.130705C25.8723-0.130705 27.9032-1.86428 29.0609-5.92584L33.7451-19.5866L58.677-19.5866L63.3613-5.83297C64.5499-1.78376 66.5624-0.130705 70.0539-0.130705C73.7876-0.130705 76.462-2.60727 76.462-6.22299C76.462-7.6841 76.1153-9.03386 75.5581-10.6931L56.0777-62.6997C54.2387-67.6841 51.0622-70.0557 46.1275-70.0557C41.4034-70.0557 38.2888-67.7151 36.4684-62.6997L17.0003-10.6931C16.4183-9.17631 16.084-7.57888 16.084-6.22299C16.084-2.45247 18.5852-0.130705 22.5415-0.130705ZM36.7166-29.4179L45.5577-56.5732L46.6602-56.5732L55.6561-29.4179Z"/>
  </g>
  <g id="Medium-L" transform="matrix(1 0 0 1 1701.34 1556)">
   <path class="SFSymbolsPreviewWireframe" d="M21.6736-0.851843C24.5382-0.851843 26.3202-2.32817 27.3332-5.76667L32.5871-20.893L57.7377-20.893L62.9917-5.7141C64.068-2.2597 65.8275-0.851843 68.7842-0.851843C72.036-0.851843 74.3568-2.97881 74.3568-6.09625C74.3568-7.37256 74.034-8.57384 73.5572-10.0081L53.5928-63.0025C52.0349-67.2032 49.2599-69.2696 45.1091-69.2696C41.1004-69.2696 38.3953-67.2666 36.8361-63.0025L16.8676-10.0081C16.3539-8.70026 16.084-7.3359 16.084-6.09625C16.084-2.86829 18.2718-0.851843 21.6736-0.851843ZM35.3421-29.5351L44.5347-56.9512L45.6745-56.9512L54.9777-29.5351Z"/>
  </g>
  <g id="Regular-L" transform="matrix(1 0 0 1 1406 1556)">
   <path class="SFSymbolsPreviewWireframe" d="M20.5416-1.79246C22.7981-1.79246 24.2554-2.93324 25.0796-5.55905L31.0766-22.5969L56.5126-22.5969L62.5096-5.55905C63.4394-2.88048 64.8691-1.79246 67.1281-1.79246C69.7513-1.79246 71.6108-3.46343 71.6108-5.93094C71.6108-6.9662 71.3193-7.9738 70.9474-9.11459L50.3515-63.3975C49.1605-66.576 46.9091-68.2444 43.7808-68.2444C40.7052-68.2444 38.5343-66.6815 37.3156-63.3975L16.6946-9.11459C16.2699-8.07933 16.084-7.01896 16.084-5.93094C16.084-3.41066 17.863-1.79246 20.5416-1.79246ZM33.5492-29.688L43.2004-57.4442L44.3889-57.4442L54.0928-29.688Z"/>
  </g>
  <g id="Light-L" transform="matrix(1 0 0 1 1109.77 1556)">
   <path class="SFSymbolsPreviewWireframe" d="M19.511-1.88788C21.2712-1.88788 22.3469-2.76148 23.0184-4.75747L30.046-23.952L56.6081-23.952L63.6357-4.75747C64.3745-2.7278 65.4035-1.88788 67.2235-1.88788C69.1597-1.88788 70.6374-3.15806 70.6374-5.05302C70.6374-5.85926 70.4223-6.61875 70.1268-7.49234L48.1376-64.7716C47.2901-67.0913 45.6495-68.3017 43.3037-68.3017C40.9915-68.3017 39.4313-67.1587 38.5371-64.7716L16.561-7.49234C16.2318-6.6861 16.084-5.89293 16.084-5.05302C16.084-3.12438 17.4813-1.88788 19.511-1.88788ZM32.0606-29.5544L42.9332-59.3718L43.7209-59.3718L54.6272-29.5544Z"/>
  </g>
  <g id="Thin-L" transform="matrix(1 0 0 1 813.705 1556)">
   <path class="SFSymbolsPreviewWireframe" d="M18.1479-2.01409C19.2519-2.01409 19.8227-2.5343 20.2923-3.69731L28.6829-25.7441L56.7343-25.7441L65.1249-3.69731C65.6114-2.52586 66.1102-2.01409 67.3497-2.01409C68.3772-2.01409 69.3501-2.75419 69.3501-3.8919C69.3501-4.39523 69.236-4.82658 69.0414-5.34679L45.2096-66.589C44.8164-67.7728 43.9835-68.3774 42.6726-68.3774C41.3701-68.3774 40.6177-67.7897 40.1526-66.589L16.3843-5.34679C16.1813-4.84345 16.084-4.40367 16.084-3.8919C16.084-2.74576 16.9765-2.01409 18.1479-2.01409ZM30.0917-29.3777L42.5798-61.9213L42.8374-61.9213L55.334-29.3777Z"/>
  </g>
  <g id="Ultralight-L" transform="matrix(1 0 0 1 517.324 1556)">
   <path class="SFSymbolsPreviewWireframe" d="M17.4498-2.07874C18.2176-2.07874 18.5298-2.41794 18.896-3.1543L27.9848-26.6621L56.7989-26.6621L65.8877-3.1543C66.2449-2.42243 66.4722-2.07874 67.4144-2.07874C67.9764-2.07874 68.6908-2.54733 68.6908-3.29717C68.6908-3.64536 68.6283-3.90864 68.4854-4.24784L43.7098-67.5199C43.5494-68.1219 43.1302-68.4162 42.3494-68.4162C41.5641-68.4162 41.2253-68.1129 40.98-67.5199L16.2938-4.24784C16.1554-3.89965 16.084-3.64087 16.084-3.29717C16.084-2.55183 16.7179-2.07874 17.4498-2.07874ZM29.0833-29.2872L42.3988-63.2271L42.3849-63.2271L55.696-29.2872Z"/>
  </g>
  <g id="Black-M" transform="matrix(1 0 0 1 2892.14 1126)">
   <path class="SFSymbolsPreviewWireframe" d="M21.7116-4.24849C26.5935-4.24849 29.3558-6.86365 30.9674-13.0973L31.929-16.6499L50.4686-16.6499L51.4302-12.8118C52.8814-6.74396 55.644-4.24849 61.0338-4.24849C66.2458-4.24849 70.0618-7.88314 70.0618-13.1297C70.0618-15.1629 69.6921-16.9109 68.8603-19.2977L55.8589-55.3751C53.0609-63.0968 48.6807-66.395 40.9706-66.395C33.7797-66.395 29.4047-62.9365 26.7212-55.3751L13.8282-19.2977C13.0481-17.0932 12.4609-14.7116 12.4609-13.1297C12.4609-7.53507 15.9292-4.24849 21.7116-4.24849ZM35.2221-30.0605L40.6247-50.4188L41.1449-50.4188L46.8955-30.0605Z"/>
  </g>
  <g id="Heavy-M" transform="matrix(1 0 0 1 2597.08 1126)">
   <path class="SFSymbolsPreviewWireframe" d="M20.4821-5.43357C24.6912-5.43357 27.1194-7.67607 28.5218-13.0034L30.2143-18.5427L48.8779-18.5427L50.5704-12.7853C51.8748-7.57242 54.3008-5.43357 58.8906-5.43357C63.4446-5.43357 66.7514-8.56987 66.7514-13.1064C66.7514-14.8798 66.4053-16.4329 65.6916-18.5009L52.1802-55.5861C49.7786-62.1822 45.9383-65.0686 39.3705-65.0686C33.2117-65.0686 29.3902-62.0841 27.0735-55.5861L13.6351-18.5009C12.9487-16.5966 12.4609-14.5473 12.4609-13.1064C12.4609-8.29173 15.4873-5.43357 20.4821-5.43357ZM33.244-30.2851L38.9719-50.6366L39.6405-50.6366L45.6466-30.2851Z"/>
  </g>
  <g id="Bold-M" transform="matrix(1 0 0 1 2302.22 1126)">
   <path class="SFSymbolsPreviewWireframe" d="M19.1067-6.75926C22.5631-6.75926 24.6176-8.58488 25.7861-12.8983L28.2963-20.6601L47.0985-20.6601L49.6087-12.7556C50.7488-8.49916 52.7981-6.75926 56.4932-6.75926C60.3111-6.75926 63.0482-9.33807 63.0482-13.0803C63.0482-14.5632 62.7287-15.8982 62.147-17.6096L48.065-55.8222C46.1067-61.1591 42.8705-63.5849 37.5806-63.5849C32.5763-63.5849 29.3738-61.1307 27.4676-55.8222L13.4192-17.6096C12.8374-16.0411 12.4609-14.3634 12.4609-13.0803C12.4609-9.13816 14.993-6.75926 19.1067-6.75926ZM31.0312-30.5364L37.123-50.8803L37.9577-50.8803L44.2495-30.5364Z"/>
  </g>
  <g id="Semibold-M" transform="matrix(1 0 0 1 2006.79 1126)">
   <path class="SFSymbolsPreviewWireframe" d="M18.1585-7.67319C21.096-7.67319 22.8928-9.21141 23.9001-12.8259L26.974-22.1198L45.8718-22.1198L48.9456-12.7351C49.9726-9.13805 51.7622-7.67319 54.8404-7.67319C58.1509-7.67319 60.4952-9.86767 60.4952-13.0623C60.4952-14.3449 60.194-15.5296 59.7033-16.9952L45.228-55.985C43.5754-60.4537 40.7556-62.5621 36.3467-62.5621C32.1383-62.5621 29.3626-60.4733 27.7392-55.985L13.2703-16.9952C12.7607-15.6582 12.4609-14.2367 12.4609-13.0623C12.4609-9.72168 14.6522-7.67319 18.1585-7.67319ZM29.5057-30.7097L35.8485-51.0482L36.7976-51.0482L43.2863-30.7097Z"/>
  </g>
  <g id="Medium-M" transform="matrix(1 0 0 1 1711.05 1126)">
   <path class="SFSymbolsPreviewWireframe" d="M17.4395-8.36616C19.9836-8.36616 21.5851-9.68647 22.4701-12.771L25.9714-23.2266L44.9416-23.2266L48.4429-12.7196C49.384-9.62249 50.9768-8.36616 53.5872-8.36616C56.5129-8.36616 58.5595-10.2692 58.5595-13.0487C58.5595-14.1794 58.2721-15.2501 57.8504-16.5293L43.0768-56.1084C41.656-59.9189 39.152-61.7865 35.4111-61.7865C31.8061-61.7865 29.3541-59.9749 27.9452-56.1084L13.1574-16.5293C12.7026-15.3678 12.4609-14.1406 12.4609-13.0487C12.4609-10.1641 14.3938-8.36616 17.4395-8.36616ZM28.349-30.841L34.882-51.1756L35.9179-51.1756L42.556-30.841Z"/>
  </g>
  <g id="Regular-M" transform="matrix(1 0 0 1 1415.6 1126)">
   <path class="SFSymbolsPreviewWireframe" d="M16.5017-9.27004C18.5327-9.27004 19.8793-10.3061 20.6048-12.6993L24.6636-24.6703L43.7283-24.6703L47.7872-12.6993C48.6162-10.2544 49.9523-9.27004 51.9526-9.27004C54.3764-9.27004 56.0346-10.793 56.0346-13.031C56.0346-13.9635 55.7652-14.8855 55.4336-15.9216L40.271-56.2693C39.1525-59.2213 37.0603-60.7749 34.1907-60.7749C31.3729-60.7749 29.343-59.3248 28.2139-56.2693L13.0101-15.9216C12.6267-14.9891 12.4609-14.0153 12.4609-13.031C12.4609-10.7412 14.0568-9.27004 16.5017-9.27004ZM26.8403-31.0124L33.6214-51.3417L34.7706-51.3417L41.6034-31.0124Z"/>
  </g>
  <g id="Light-M" transform="matrix(1 0 0 1 1119.32 1126)">
   <path class="SFSymbolsPreviewWireframe" d="M15.5777-9.3556C17.1638-9.3556 18.1682-10.1521 18.7568-11.9807L23.7397-25.8852L43.8139-25.8852L48.7967-11.9807C49.4547-10.1175 50.4314-9.3556 52.0381-9.3556C53.846-9.3556 55.1619-10.5192 55.1619-12.2439C55.1619-12.9711 54.961-13.6707 54.6978-14.4672L38.2861-57.5013C37.4756-59.6833 35.931-60.8262 33.7629-60.8262C31.6296-60.8262 30.1472-59.7526 29.309-57.5013L12.8904-14.4672C12.5925-13.74 12.4609-13.0057 12.4609-12.2439C12.4609-10.4846 13.7145-9.3556 15.5777-9.3556ZM25.5056-30.8926L33.3819-53.0699L34.1717-53.0699L42.0825-30.8926Z"/>
  </g>
  <g id="Thin-M" transform="matrix(1 0 0 1 823.188 1126)">
   <path class="SFSymbolsPreviewWireframe" d="M14.3557-9.46875C15.3534-9.46875 15.9051-9.94844 16.3127-11.0302L22.5176-27.492L43.927-27.492L50.1319-11.0302C50.5636-9.93643 51.065-9.46875 52.1513-9.46875C53.1444-9.46875 54.0077-10.1571 54.0077-11.2029C54.0077-11.6585 53.8974-12.0639 53.7247-12.5436L35.661-59.1307C35.2579-60.2943 34.4373-60.8941 33.1972-60.8941C31.969-60.8941 31.2108-60.3183 30.7574-59.1307L12.7319-12.5436C12.5473-12.0879 12.4609-11.6705 12.4609-11.2029C12.4609-10.1451 13.2619-9.46875 14.3557-9.46875ZM23.7405-30.7342L33.065-55.3556L33.3796-55.3556L42.7162-30.7342Z"/>
  </g>
  <g id="Ultralight-M" transform="matrix(1 0 0 1 526.772 1126)">
   <path class="SFSymbolsPreviewWireframe" d="M13.7298-9.5267C14.426-9.5267 14.746-9.84412 15.0609-10.5434L21.8917-28.3149L43.985-28.3149L50.8158-10.5434C51.1315-9.8437 51.3896-9.5267 52.2092-9.5267C52.7851-9.5267 53.4166-9.97167 53.4166-10.6697C53.4166-10.9862 53.3526-11.2409 53.2263-11.5583L34.3164-59.9653C34.1219-60.6073 33.6723-60.9289 32.9074-60.9289C32.1429-60.9289 31.7556-60.6081 31.4992-59.9653L12.6508-11.5583C12.5241-11.2418 12.4609-10.9866 12.4609-10.6697C12.4609-9.97125 13.0301-9.5267 13.7298-9.5267ZM22.8363-30.653L32.9028-56.5263L32.9739-56.5263L43.0408-30.653Z"/>
  </g>
  <g id="Black-S" transform="matrix(1 0 0 1 2900.59 696)">
   <path class="SFSymbolsPreviewWireframe" d="M17.334-10.5957C21.3379-10.5957 23.584-12.7441 24.9023-17.8711L25.4883-20.166L40.0391-20.166L40.625-17.627C41.7969-12.6465 44.043-10.5957 48.4863-10.5957C52.7344-10.5957 55.8594-13.5742 55.8594-17.8711C55.8594-19.5312 55.5664-20.9473 54.8828-22.9004L44.7754-51.0254C42.4805-57.373 38.916-60.0586 32.5684-60.0586C26.6602-60.0586 23.0957-57.2266 20.8984-51.0254L10.8887-22.9004C10.2539-21.0938 9.76562-19.1406 9.76562-17.8711C9.76562-13.2812 12.5977-10.5957 17.334-10.5957ZM28.125-31.1035L32.3242-47.168L32.666-47.168L37.1582-31.1035Z"/>
  </g>
  <g id="Heavy-S" transform="matrix(1 0 0 1 2605.24 696)">
   <path class="SFSymbolsPreviewWireframe" d="M16.4005-11.5983C19.8858-11.5983 21.8899-13.4587 23.0469-17.8826L24.1399-21.6296L38.6677-21.6296L39.7607-17.6961C40.8288-13.3725 42.8329-11.5983 46.6424-11.5983C50.4064-11.5983 53.1396-14.1965 53.1396-17.9518C53.1396-19.416 52.8582-20.6937 52.2668-22.4048L41.8827-51.0484C39.8875-56.5318 36.7148-58.9177 31.2546-58.9177C26.1416-58.9177 22.9805-56.4429 21.0598-51.0484L10.7389-22.4048C10.1732-20.8287 9.76562-19.1291 9.76562-17.9518C9.76562-13.9612 12.2634-11.5983 16.4005-11.5983ZM26.6038-31.311L30.9413-47.1334L31.4559-47.1334L36.0288-31.311Z"/>
  </g>
  <g id="Bold-S" transform="matrix(1 0 0 1 2310.05 696)">
   <path class="SFSymbolsPreviewWireframe" d="M15.3564-12.7197C18.2617-12.7197 19.9951-14.2578 20.9717-17.8955L22.6318-23.2666L37.1338-23.2666L38.7939-17.7734C39.7461-14.1846 41.4795-12.7197 44.5801-12.7197C47.8027-12.7197 50.0977-14.8926 50.0977-18.042C50.0977-19.2871 49.8291-20.4102 49.3408-21.8506L38.6475-51.0742C36.9873-55.5908 34.2529-57.6416 29.7852-57.6416C25.5615-57.6416 22.8516-55.5664 21.2402-51.0742L10.5713-21.8506C10.083-20.5322 9.76562-19.1162 9.76562-18.042C9.76562-14.7217 11.8896-12.7197 15.3564-12.7197ZM24.9023-31.543L29.3945-47.0947L30.1025-47.0947L34.7656-31.543Z"/>
  </g>
  <g id="Semibold-S" transform="matrix(1 0 0 1 2014.38 696)">
   <path class="SFSymbolsPreviewWireframe" d="M14.6366-13.4929C17.142-13.4929 18.6888-14.8088 19.5409-17.9044L21.5921-24.3952L36.0763-24.3952L38.1274-17.8268C38.9996-14.7444 40.5464-13.4929 43.1582-13.4929C46.0076-13.4929 48.0004-15.3725 48.0004-18.1042C48.0004-19.1982 47.7407-20.2146 47.3235-21.4685L36.4169-51.092C34.9878-54.9421 32.5556-56.7618 28.7721-56.7618C25.1616-56.7618 22.7627-54.9621 21.3646-51.092L10.4558-21.4685C10.0208-20.3278 9.76562-19.1073 9.76562-18.1042C9.76562-15.246 11.6319-13.4929 14.6366-13.4929ZM23.7293-31.7029L28.3281-47.0681L29.1694-47.0681L33.8947-31.7029Z"/>
  </g>
  <g id="Medium-S" transform="matrix(1 0 0 1 1718.47 696)">
   <path class="SFSymbolsPreviewWireframe" d="M14.0908-14.0791C16.293-14.0791 17.6982-15.2266 18.4561-17.9111L20.8037-25.251L35.2744-25.251L37.6221-17.8672C38.4336-15.1689 39.8389-14.0791 42.0801-14.0791C44.6465-14.0791 46.4102-15.7363 46.4102-18.1514C46.4102-19.1309 46.1572-20.0664 45.7939-21.1787L34.7256-51.1055C33.4717-54.4502 31.2686-56.0947 28.0039-56.0947C24.8584-56.0947 22.6953-54.5039 21.459-51.1055L10.3682-21.1787C9.97363-20.1729 9.76562-19.1006 9.76562-18.1514C9.76562-15.6436 11.4365-14.0791 14.0908-14.0791ZM22.8398-31.8242L27.5195-47.0479L28.4619-47.0479L33.2344-31.8242Z"/>
  </g>
  <g id="Regular-S" transform="matrix(1 0 0 1 1422.79 696)">
   <path class="SFSymbolsPreviewWireframe" d="M13.3789-14.8438C15.1855-14.8438 16.4062-15.7715 17.041-17.9199L19.7754-26.3672L34.2285-26.3672L36.9629-17.9199C37.6953-15.7227 38.916-14.8438 40.6738-14.8438C42.8711-14.8438 44.3359-16.2109 44.3359-18.2129C44.3359-19.043 44.0918-19.873 43.7988-20.8008L32.5195-51.123C31.4941-53.8086 29.5898-55.2246 27.002-55.2246C24.4629-55.2246 22.6074-53.9062 21.582-51.123L10.2539-20.8008C9.91211-19.9707 9.76562-19.0918 9.76562-18.2129C9.76562-16.1621 11.1816-14.8438 13.3789-14.8438ZM21.6797-31.9824L26.4648-47.0215L27.5391-47.0215L32.373-31.9824Z"/>
  </g>
  <g id="Light-S" transform="matrix(1 0 0 1 1126.47 696)">
   <path class="SFSymbolsPreviewWireframe" d="M12.5615-14.9194C13.9746-14.9194 14.8926-15.6353 15.4063-17.2842L18.958-27.4419L34.3042-27.4419L37.8559-17.2842C38.437-15.6016 39.3398-14.9194 40.7495-14.9194C42.4019-14.9194 43.564-15.9688 43.564-17.5166C43.564-18.165 43.3804-18.7983 43.148-19.5142L30.7637-52.2129C30.0108-54.2173 28.5908-55.27 26.6235-55.27C24.6899-55.27 23.3188-54.2847 22.5508-52.2129L10.148-19.5142C9.88184-18.8657 9.76562-18.1987 9.76562-17.5166C9.76562-15.9351 10.8789-14.9194 12.5615-14.9194ZM20.499-31.8765L26.2529-48.5503L27.0093-48.5503L32.7969-31.8765Z"/>
  </g>
  <g id="Thin-S" transform="matrix(1 0 0 1 830.268 696)">
   <path class="SFSymbolsPreviewWireframe" d="M11.4805-15.0195C12.3731-15.0195 12.8907-15.4551 13.2442-16.4434L17.877-28.8633L34.4043-28.8633L39.0371-16.4434C39.418-15.4414 39.9004-15.0195 40.8496-15.0195C41.7813-15.0195 42.543-15.6484 42.543-16.5957C42.543-17.0039 42.4395-17.377 42.2871-17.8125L28.4414-53.6543C28.0489-54.7578 27.2695-55.3301 26.1231-55.3301C24.9902-55.3301 24.2598-54.7851 23.832-53.6543L10.0078-17.8125C9.8418-17.4043 9.76562-17.0176 9.76562-16.5957C9.76562-15.6348 10.4785-15.0195 11.4805-15.0195ZM18.9375-31.7363L25.9727-50.5722L26.3086-50.5722L33.3574-31.7363Z"/>
  </g>
  <g id="Ultralight-S" transform="matrix(1 0 0 1 533.818 696)">
   <path class="SFSymbolsPreviewWireframe" d="M10.9268-15.0708C11.5528-15.0708 11.8653-15.3628 12.1368-16.0127L17.3233-29.5913L34.4556-29.5913L39.6421-16.0127C39.9204-15.3594 40.1875-15.0708 40.9009-15.0708C41.4634-15.0708 42.02-15.4844 42.02-16.124C42.02-16.4092 41.9575-16.649 41.8462-16.9409L27.252-54.3926C27.044-55.0347 26.5928-55.3608 25.8667-55.3608C25.144-55.3608 24.7417-55.0415 24.4883-54.3926L9.93604-16.9409C9.82129-16.6558 9.76562-16.4126 9.76562-16.124C9.76562-15.481 10.2734-15.0708 10.9268-15.0708ZM18.1377-31.6646L25.8291-51.6079L25.9497-51.6079L33.6445-31.6646Z"/>
  </g>
 </g>
</svg>
