<?xml version="1.0" encoding="UTF-8"?>
<!--Generator: Apple Native CoreSVG 232.5-->
<!DOCTYPE svg
PUBLIC "-//W3C//DTD SVG 1.1//EN"
       "http://www.w3.org/Graphics/SVG/1.1/DTD/svg11.dtd">
<svg version="1.1" xmlns="http://www.w3.org/2000/svg" xmlns:xlink="http://www.w3.org/1999/xlink" width="3300" height="2200">
 <!--glyph: "uni100D7F.medium", point size: 100.0, font version: "19.2d2e1", template writer version: "128"-->
 <style>.SFSymbolsPreviewWireframe {fill:none;opacity:1.0;stroke:black;stroke-width:0.5}
</style>
 <g id="Notes">
  <rect height="2200" id="artboard" style="fill:white;opacity:1" width="3300" x="0" y="0"/>
  <line style="fill:none;stroke:black;opacity:1;stroke-width:0.5;" x1="263" x2="3036" y1="292" y2="292"/>
  <text style="stroke:none;fill:black;font-family:sans-serif;font-size:13;font-weight:bold;" transform="matrix(1 0 0 1 263 322)">Weight/Scale Variations</text>
  <text style="stroke:none;fill:black;font-family:sans-serif;font-size:13;text-anchor:middle;" transform="matrix(1 0 0 1 559.711 322)">Ultralight</text>
  <text style="stroke:none;fill:black;font-family:sans-serif;font-size:13;text-anchor:middle;" transform="matrix(1 0 0 1 856.422 322)">Thin</text>
  <text style="stroke:none;fill:black;font-family:sans-serif;font-size:13;text-anchor:middle;" transform="matrix(1 0 0 1 1153.13 322)">Light</text>
  <text style="stroke:none;fill:black;font-family:sans-serif;font-size:13;text-anchor:middle;" transform="matrix(1 0 0 1 1449.84 322)">Regular</text>
  <text style="stroke:none;fill:black;font-family:sans-serif;font-size:13;text-anchor:middle;" transform="matrix(1 0 0 1 1746.56 322)">Medium</text>
  <text style="stroke:none;fill:black;font-family:sans-serif;font-size:13;text-anchor:middle;" transform="matrix(1 0 0 1 2043.27 322)">Semibold</text>
  <text style="stroke:none;fill:black;font-family:sans-serif;font-size:13;text-anchor:middle;" transform="matrix(1 0 0 1 2339.98 322)">Bold</text>
  <text style="stroke:none;fill:black;font-family:sans-serif;font-size:13;text-anchor:middle;" transform="matrix(1 0 0 1 2636.69 322)">Heavy</text>
  <text style="stroke:none;fill:black;font-family:sans-serif;font-size:13;text-anchor:middle;" transform="matrix(1 0 0 1 2933.4 322)">Black</text>
  <line style="fill:none;stroke:black;opacity:1;stroke-width:0.5;" x1="263" x2="3036" y1="1903" y2="1903"/>
  <g transform="matrix(0.2 0 0 0.2 263 1933)">
   <path d="m46.2402 4.15039c21.5332 0 39.4531-17.8711 39.4531-39.4043s-17.9688-39.4043-39.502-39.4043c-21.4844 0-39.3555 17.8711-39.3555 39.4043s17.9199 39.4043 39.4043 39.4043Zm0-7.42188c-17.7246 0-31.8848-14.209-31.8848-31.9824s14.1113-31.9824 31.8359-31.9824c17.7734 0 32.0312 14.209 32.0312 31.9824s-14.209 31.9824-31.9824 31.9824Zm-17.9688-31.9824c0 2.14844 1.51367 3.61328 3.75977 3.61328h10.498v10.5957c0 2.19727 1.46484 3.71094 3.61328 3.71094 2.24609 0 3.71094-1.51367 3.71094-3.71094v-10.5957h10.5957c2.19727 0 3.71094-1.46484 3.71094-3.61328 0-2.19727-1.51367-3.71094-3.71094-3.71094h-10.5957v-10.5469c0-2.24609-1.46484-3.75977-3.71094-3.75977-2.14844 0-3.61328 1.51367-3.61328 3.75977v10.5469h-10.498c-2.24609 0-3.75977 1.51367-3.75977 3.71094Z"/>
  </g>
  <g transform="matrix(0.2 0 0 0.2 281.506 1933)">
   <path d="m58.5449 14.5508c27.2461 0 49.8047-22.6074 49.8047-49.8047 0-27.2461-22.6074-49.8047-49.8535-49.8047-27.1973 0-49.7559 22.5586-49.7559 49.8047 0 27.1973 22.6074 49.8047 49.8047 49.8047Zm0-8.30078c-23.0469 0-41.4551-18.457-41.4551-41.5039s18.3594-41.5039 41.4062-41.5039 41.5527 18.457 41.5527 41.5039-18.457 41.5039-41.5039 41.5039Zm-22.6562-41.5039c0 2.39258 1.66016 4.00391 4.15039 4.00391h14.3555v14.4043c0 2.44141 1.66016 4.15039 4.05273 4.15039 2.44141 0 4.15039-1.66016 4.15039-4.15039v-14.4043h14.4043c2.44141 0 4.15039-1.61133 4.15039-4.00391 0-2.44141-1.70898-4.15039-4.15039-4.15039h-14.4043v-14.3555c0-2.49023-1.70898-4.19922-4.15039-4.19922-2.39258 0-4.05273 1.70898-4.05273 4.19922v14.3555h-14.3555c-2.49023 0-4.15039 1.70898-4.15039 4.15039Z"/>
  </g>
  <g transform="matrix(0.2 0 0 0.2 304.924 1933)">
   <path d="m74.8535 28.3203c34.8145 0 63.623-28.8086 63.623-63.5742 0-34.8145-28.8574-63.623-63.6719-63.623-34.7656 0-63.5254 28.8086-63.5254 63.623 0 34.7656 28.8086 63.5742 63.5742 63.5742Zm0-9.08203c-30.1758 0-54.4434-24.3164-54.4434-54.4922 0-30.2246 24.2188-54.4922 54.3945-54.4922 30.2246 0 54.541 24.2676 54.541 54.4922 0 30.1758-24.2676 54.4922-54.4922 54.4922Zm-28.8574-54.4922c0 2.58789 1.85547 4.39453 4.58984 4.39453h19.7266v19.7754c0 2.68555 1.85547 4.58984 4.44336 4.58984 2.68555 0 4.54102-1.85547 4.54102-4.58984v-19.7754h19.7754c2.68555 0 4.58984-1.80664 4.58984-4.39453 0-2.73438-1.85547-4.58984-4.58984-4.58984h-19.7754v-19.7266c0-2.73438-1.85547-4.63867-4.54102-4.63867-2.58789 0-4.44336 1.9043-4.44336 4.63867v19.7266h-19.7266c-2.73438 0-4.58984 1.85547-4.58984 4.58984Z"/>
  </g>
  <text style="stroke:none;fill:black;font-family:sans-serif;font-size:13;font-weight:bold;" transform="matrix(1 0 0 1 263 1953)">Design Variations</text>
  <text style="stroke:none;fill:black;font-family:sans-serif;font-size:13;" transform="matrix(1 0 0 1 263 1971)">Symbols are supported in up to nine weights and three scales.</text>
  <text style="stroke:none;fill:black;font-family:sans-serif;font-size:13;" transform="matrix(1 0 0 1 263 1989)">For optimal layout with text and other symbols, vertically align</text>
  <text style="stroke:none;fill:black;font-family:sans-serif;font-size:13;" transform="matrix(1 0 0 1 263 2007)">symbols with the adjacent text.</text>
  <line style="fill:none;stroke:#00AEEF;stroke-width:0.5;opacity:1.0;" x1="776" x2="776" y1="1919" y2="1933"/>
  <g transform="matrix(0.2 0 0 0.2 776 1933)">
   <path d="m16.5527 0.78125c2.58789 0 3.85742-0.976562 4.78516-3.71094l6.29883-17.2363h28.8086l6.29883 17.2363c0.927734 2.73438 2.19727 3.71094 4.73633 3.71094 2.58789 0 4.24805-1.5625 4.24805-4.00391 0-0.830078-0.146484-1.61133-0.537109-2.63672l-22.9004-60.9863c-1.12305-2.97852-3.125-4.49219-6.25-4.49219-3.02734 0-5.07812 1.46484-6.15234 4.44336l-22.9004 61.084c-0.390625 1.02539-0.537109 1.80664-0.537109 2.63672 0 2.44141 1.5625 3.95508 4.10156 3.95508Zm13.4766-28.3691 11.8652-32.8613h0.244141l11.8652 32.8613Z"/>
  </g>
  <line style="fill:none;stroke:#00AEEF;stroke-width:0.5;opacity:1.0;" x1="792.836" x2="792.836" y1="1919" y2="1933"/>
  <text style="stroke:none;fill:black;font-family:sans-serif;font-size:13;font-weight:bold;" transform="matrix(1 0 0 1 776 1953)">Margins</text>
  <text style="stroke:none;fill:black;font-family:sans-serif;font-size:13;" transform="matrix(1 0 0 1 776 1971)">Leading and trailing margins on the left and right side of each symbol</text>
  <text style="stroke:none;fill:black;font-family:sans-serif;font-size:13;" transform="matrix(1 0 0 1 776 1989)">can be adjusted by modifying the x-location of the margin guidelines.</text>
  <text style="stroke:none;fill:black;font-family:sans-serif;font-size:13;" transform="matrix(1 0 0 1 776 2007)">Modifications are automatically applied proportionally to all</text>
  <text style="stroke:none;fill:black;font-family:sans-serif;font-size:13;" transform="matrix(1 0 0 1 776 2025)">scales and weights.</text>
  <g transform="matrix(0.2 0 0 0.2 1289 1933)">
   <path d="m14.209 9.32617 8.49609 8.54492c4.29688 4.3457 9.22852 4.05273 13.8672-1.07422l53.4668-58.9355-4.83398-4.88281-53.0762 58.3984c-1.75781 2.00195-3.41797 2.49023-5.76172 0.146484l-5.85938-5.81055c-2.34375-2.29492-1.80664-4.00391 0.195312-5.81055l57.373-54.0039-4.88281-4.83398-57.959 54.4434c-4.93164 4.58984-5.32227 9.47266-1.02539 13.8184Zm32.0801-90.9668c-2.09961 2.05078-2.24609 4.93164-1.07422 6.88477 1.17188 1.80664 3.4668 2.97852 6.68945 2.14844 7.32422-1.70898 14.9414-2.00195 22.0703 2.68555l-2.92969 7.27539c-1.70898 4.15039-0.830078 7.08008 1.85547 9.81445l11.4746 11.5723c2.44141 2.44141 4.49219 2.53906 7.32422 2.05078l5.32227-0.976562 3.32031 3.36914-0.195312 2.7832c-0.195312 2.49023 0.439453 4.39453 2.88086 6.78711l3.80859 3.71094c2.39258 2.39258 5.46875 2.53906 7.8125 0.195312l14.5508-14.5996c2.34375-2.34375 2.24609-5.32227-0.146484-7.71484l-3.85742-3.80859c-2.39258-2.39258-4.24805-3.17383-6.64062-2.97852l-2.88086 0.244141-3.22266-3.17383 1.2207-5.61523c0.634766-2.83203-0.146484-5.0293-3.07617-7.95898l-10.9863-10.9375c-16.6992-16.6016-38.8672-16.2109-53.3203-1.75781Zm7.4707 1.85547c12.1582-8.88672 28.6133-7.37305 39.7461 3.75977l12.1582 12.0605c1.17188 1.17188 1.36719 2.09961 1.02539 3.80859l-1.61133 7.42188 7.51953 7.42188 4.93164-0.292969c1.26953-0.0488281 1.66016 0.0488281 2.63672 1.02539l2.88086 2.88086-12.207 12.207-2.88086-2.88086c-0.976562-0.976562-1.12305-1.36719-1.07422-2.68555l0.341797-4.88281-7.4707-7.42188-7.61719 1.26953c-1.61133 0.341797-2.34375 0.195312-3.56445-0.976562l-10.0098-10.0098c-1.26953-1.17188-1.41602-2.00195-0.634766-3.85742l4.39453-10.4492c-7.8125-7.27539-17.9688-10.4004-28.125-7.42188-0.78125 0.195312-1.07422-0.439453-0.439453-0.976562Z"/>
  </g>
  <text style="stroke:none;fill:black;font-family:sans-serif;font-size:13;font-weight:bold;" transform="matrix(1 0 0 1 1289 1953)">Exporting</text>
  <text style="stroke:none;fill:black;font-family:sans-serif;font-size:13;" transform="matrix(1 0 0 1 1289 1971)">Symbols should be outlined when exporting to ensure the</text>
  <text style="stroke:none;fill:black;font-family:sans-serif;font-size:13;" transform="matrix(1 0 0 1 1289 1989)">design is preserved when submitting to Xcode.</text>
  <text id="template-version" style="stroke:none;fill:black;font-family:sans-serif;font-size:13;text-anchor:end;" transform="matrix(1 0 0 1 3036 1933)">Template v.5.0</text>
  <text style="stroke:none;fill:black;font-family:sans-serif;font-size:13;text-anchor:end;" transform="matrix(1 0 0 1 3036 1951)">Requires Xcode 15 or greater</text>
  <text id="descriptive-name" style="stroke:none;fill:black;font-family:sans-serif;font-size:13;text-anchor:end;" transform="matrix(1 0 0 1 3036 1969)">Generated from textformat.size.larger</text>
  <text style="stroke:none;fill:black;font-family:sans-serif;font-size:13;text-anchor:end;" transform="matrix(1 0 0 1 3036 1987)">Typeset at 100.0 points</text>
  <text style="stroke:none;fill:black;font-family:sans-serif;font-size:13;" transform="matrix(1 0 0 1 263 726)">Small</text>
  <text style="stroke:none;fill:black;font-family:sans-serif;font-size:13;" transform="matrix(1 0 0 1 263 1156)">Medium</text>
  <text style="stroke:none;fill:black;font-family:sans-serif;font-size:13;" transform="matrix(1 0 0 1 263 1586)">Large</text>
 </g>
 <g id="Guides">
  <g id="H-reference" style="fill:#27AAE1;stroke:none;" transform="matrix(1 0 0 1 339 696)">
   <path d="M0.993654 0L3.63775 0L29.3281-67.1323L30.0303-67.1323L30.0303-70.459L28.1226-70.459ZM11.6885-24.4799L46.9815-24.4799L46.2315-26.7285L12.4385-26.7285ZM55.1196 0L57.7637 0L30.6382-70.459L29.4326-70.459L29.4326-67.1323Z"/>
  </g>
  <line id="Baseline-S" style="fill:none;stroke:#27AAE1;opacity:1;stroke-width:0.5;" x1="263" x2="3036" y1="696" y2="696"/>
  <line id="Capline-S" style="fill:none;stroke:#27AAE1;opacity:1;stroke-width:0.5;" x1="263" x2="3036" y1="625.541" y2="625.541"/>
  <g id="H-reference" style="fill:#27AAE1;stroke:none;" transform="matrix(1 0 0 1 339 1126)">
   <path d="M0.993654 0L3.63775 0L29.3281-67.1323L30.0303-67.1323L30.0303-70.459L28.1226-70.459ZM11.6885-24.4799L46.9815-24.4799L46.2315-26.7285L12.4385-26.7285ZM55.1196 0L57.7637 0L30.6382-70.459L29.4326-70.459L29.4326-67.1323Z"/>
  </g>
  <line id="Baseline-M" style="fill:none;stroke:#27AAE1;opacity:1;stroke-width:0.5;" x1="263" x2="3036" y1="1126" y2="1126"/>
  <line id="Capline-M" style="fill:none;stroke:#27AAE1;opacity:1;stroke-width:0.5;" x1="263" x2="3036" y1="1055.54" y2="1055.54"/>
  <g id="H-reference" style="fill:#27AAE1;stroke:none;" transform="matrix(1 0 0 1 339 1556)">
   <path d="M0.993654 0L3.63775 0L29.3281-67.1323L30.0303-67.1323L30.0303-70.459L28.1226-70.459ZM11.6885-24.4799L46.9815-24.4799L46.2315-26.7285L12.4385-26.7285ZM55.1196 0L57.7637 0L30.6382-70.459L29.4326-70.459L29.4326-67.1323Z"/>
  </g>
  <line id="Baseline-L" style="fill:none;stroke:#27AAE1;opacity:1;stroke-width:0.5;" x1="263" x2="3036" y1="1556" y2="1556"/>
  <line id="Capline-L" style="fill:none;stroke:#27AAE1;opacity:1;stroke-width:0.5;" x1="263" x2="3036" y1="1485.54" y2="1485.54"/>
  <line id="left-margin-Regular-M" style="fill:none;stroke:#00AEEF;stroke-width:0.5;opacity:1.0;" x1="1407.75" x2="1407.75" y1="1030.79" y2="1150.12"/>
  <line id="right-margin-Regular-M" style="fill:none;stroke:#00AEEF;stroke-width:0.5;opacity:1.0;" x1="1491.94" x2="1491.94" y1="1030.79" y2="1150.12"/>
 </g>
 <g id="Symbols">
  <g id="Black-L" transform="matrix(1 0 0 1 2871.81 1556)">
   <path class="SFSymbolsPreviewWireframe" d="M28.8445 14.5022C36.2011 14.5022 40.2695 11.2012 42.2052 3.48883L45.3923-6.88297L77.1632-6.88297L80.3491 3.48883C82.2859 11.2012 86.3531 14.5022 93.7098 14.5022C101.828 14.5022 107.096 9.62646 107.096 2.1934C107.096-0.810338 106.682-3.2092 105.658-6.18059L83.5193-69.8611C80.0402-80.0907 73.0717-84.926 61.512-84.926C50.6155-84.926 43.7615-80.0335 40.246-69.8611L17.4639-4.99164C16.5565-2.31228 16.084 0.24098 16.084 2.56466C16.084 9.93931 20.9609 14.5022 28.8445 14.5022ZM50.8003-25.9722L61.3303-61.7307L61.8468-61.7307L72.3756-25.9722Z"/>
  </g>
  <g id="Heavy-L" transform="matrix(1 0 0 1 2576.84 1556)">
   <path class="SFSymbolsPreviewWireframe" d="M27.0076 13.7308C33.3462 13.7308 36.8207 10.9283 38.5611 4.27038L43.0145-9.12752L76.1797-9.12752L80.6275 4.27038C82.3735 10.9283 85.8423 13.7308 92.181 13.7308C99.111 13.7308 103.611 9.55875 103.611 3.1856C103.611 0.657743 103.247-1.3937 102.355-3.95867L78.3518-71.4119C75.3751-80.0693 69.4946-84.1866 59.7784-84.1866C50.5832-84.1866 44.7807-80.0303 41.7952-71.4119L17.2951-3.03603C16.4925-0.694181 16.084 1.46095 16.084 3.48352C16.084 9.81205 20.2617 13.7308 27.0076 13.7308ZM47.8213-25.8039L59.5874-63.3464L60.0675-63.3464L71.8279-25.8039Z"/>
  </g>
  <g id="Bold-L" transform="matrix(1 0 0 1 2282.13 1556)">
   <path class="SFSymbolsPreviewWireframe" d="M24.8002 12.8599C29.901 12.8599 32.6602 10.6499 34.1474 5.27582L40.1832-11.8793L75.1518-11.8793L81.1744 5.27582C82.6749 10.6499 85.4208 12.8599 90.5217 12.8599C96.0286 12.8599 99.6059 9.53386 99.6059 4.43738C99.6059 2.47131 99.3034 0.835257 98.573-1.23758L72.2716-73.318C69.9023-80.0908 65.3219-83.3542 57.791-83.3542C50.6192-83.3542 46.0707-80.0749 43.7235-73.318L17.0876-0.61553C16.4156 1.31129 16.084 2.99697 16.084 4.65058C16.084 9.71787 19.4233 12.8599 24.8002 12.8599ZM44.2373-25.589L57.5921-65.5232L58.0262-65.5232L71.3678-25.589Z"/>
  </g>
  <g id="Semibold-L" transform="matrix(1 0 0 1 1986.8 1556)">
   <path class="SFSymbolsPreviewWireframe" d="M23.2784 12.2595C27.5259 12.2595 29.792 10.4579 31.1046 5.96896L38.2314-13.7763L74.4432-13.7763L81.5515 5.96896C82.8826 10.4579 85.1303 12.2595 89.3777 12.2595C93.9036 12.2595 96.8446 9.51671 96.8446 5.30034C96.8446 3.72157 96.5846 2.37189 95.9655 0.638318L68.0798-74.6321C66.1294-80.1057 62.4453-82.7803 56.4208-82.7803C50.6441-82.7803 46.9601-80.1056 45.053-74.6321L16.9445 1.05315C16.3626 2.69385 16.084 4.05589 16.084 5.45515C16.084 9.65294 18.8453 12.2595 23.2784 12.2595ZM41.7665-25.4408L56.2166-67.0239L56.6189-67.0239L71.0506-25.4408Z"/>
  </g>
  <g id="Medium-L" transform="matrix(1 0 0 1 1691.14 1556)">
   <path class="SFSymbolsPreviewWireframe" d="M22.1245 11.8043C25.7249 11.8043 27.6172 10.3123 28.7975 6.49453L36.7514-15.2147L73.9059-15.2147L81.8374 6.49453C83.0401 10.3123 84.9099 11.8043 88.5104 11.8043C92.2924 11.8043 94.7509 9.5037 94.7509 5.95468C94.7509 4.66957 94.523 3.53703 93.9883 2.0607L64.9015-75.6284C63.2687-80.117 60.2641-82.3451 55.382-82.3451C50.6629-82.3451 47.6344-80.1289 46.061-75.6284L16.8361 2.31841C16.3224 3.74217 16.084 4.8588 16.084 6.0652C16.084 9.60371 18.407 11.8043 22.1245 11.8043ZM39.893-25.3285L55.1737-68.1617L55.5519-68.1617L70.81-25.3285Z"/>
  </g>
  <g id="Regular-L" transform="matrix(1 0 0 1 1395.79 1556)">
   <path class="SFSymbolsPreviewWireframe" d="M20.6195 11.2105C23.3759 11.2105 24.7805 10.1224 25.7881 7.18005L34.821-17.0909L73.2051-17.0909L82.2103 7.18005C83.2456 10.1224 84.6226 11.2105 87.379 11.2105C90.1907 11.2105 92.02 9.48673 92.02 6.80816C92.02 5.90609 91.8341 5.05677 91.4094 3.91599L60.7559-76.928C59.5372-80.1317 57.419-81.7775 54.0269-81.7775C50.6875-81.7775 48.514-80.1593 47.3758-76.928L16.6946 3.96875C16.2699 5.10954 16.084 5.90609 16.084 6.86093C16.084 9.53949 17.8354 11.2105 20.6195 11.2105ZM37.4494-25.1819L53.8133-69.6459L54.1601-69.6459L70.4963-25.1819Z"/>
  </g>
  <g id="Light-L" transform="matrix(1 0 0 1 1099.46 1556)">
   <path class="SFSymbolsPreviewWireframe" d="M19.5316 11.1532C21.5819 11.1532 22.6239 10.3133 23.3834 8.11523L33.5996-18.8086L73.7204-18.8086L83.8899 8.11523C84.6961 10.3133 85.6913 11.1532 87.7416 11.1532C89.8854 11.1532 91.2566 9.84935 91.2566 7.81968C91.2566 7.12754 91.1088 6.46908 90.7796 5.59549L58.6183-78.1495C57.7241-80.4561 56.1976-81.7394 53.6834-81.7394C51.2028-81.7394 49.5828-80.5029 48.769-78.1495L16.561 5.62917C16.2318 6.50276 16.084 7.12754 16.084 7.85336C16.084 9.88303 17.4346 11.1532 19.5316 11.1532ZM35.6554-24.9911L53.4888-72.2797L53.7974-72.2797L71.5842-24.9911Z"/>
  </g>
  <g id="Thin-L" transform="matrix(1 0 0 1 803.257 1556)">
   <path class="SFSymbolsPreviewWireframe" d="M18.0928 11.0775C19.2092 11.0775 19.7715 10.5657 20.2029 9.35208L31.9841-21.0803L74.4019-21.0803L86.1111 9.35208C86.6145 10.5657 87.1049 11.0775 88.2212 11.0775C89.4815 11.0775 90.2469 10.3289 90.2469 9.1575C90.2469 8.74302 90.1496 8.33698 89.9466 7.81677L55.7912-79.7649C55.3261-80.8852 54.5821-81.6889 53.229-81.6889C51.8843-81.6889 50.9963-80.9572 50.6117-79.7649L16.3843 7.82521C16.1813 8.34542 16.084 8.74302 16.084 9.16593C16.084 10.3374 16.9045 11.0775 18.0928 11.0775ZM33.2826-24.7386L53.0597-75.763L53.3179-75.763L73.0229-24.7386Z"/>
  </g>
  <g id="Ultralight-L" transform="matrix(1 0 0 1 506.804 1556)">
   <path class="SFSymbolsPreviewWireframe" d="M17.3559 11.0387C17.9939 11.0387 18.3106 10.695 18.5739 9.98559L31.1567-22.2439L74.751-22.2439L87.2489 9.98559C87.5971 10.695 87.8289 11.0387 88.4669 11.0387C89.2747 11.0387 89.7298 10.5746 89.7298 9.84272C89.7298 9.57046 89.6583 9.29371 89.52 8.9545L54.3432-80.5924C54.0979-81.105 53.7547-81.663 52.9963-81.663C52.2334-81.663 51.7203-81.1899 51.5554-80.5924L16.2938 8.95001C16.1554 9.28921 16.084 9.57046 16.084 9.83823C16.084 10.5701 16.633 11.0387 17.3559 11.0387ZM32.0673-24.6093L52.8399-77.5472L53.0722-77.5472L73.7599-24.6093Z"/>
  </g>
  <g id="Black-M" transform="matrix(1 0 0 1 2884.24 1126)">
   <path class="SFSymbolsPreviewWireframe" d="M23.7783 3.95492C30.2571 3.95492 33.8703 1.00267 35.5042-5.77777L37.0454-11.572L60.6966-11.572L62.2381-5.77777C63.8717 1.00267 67.4852 3.95492 73.964 3.95492C81.1844 3.95492 85.8633-0.370385 85.8633-6.95208C85.8633-9.65975 85.5045-11.791 84.6102-14.4061L68.8573-60.8928C65.7741-70.0477 59.5204-74.3617 49.0992-74.3617C39.3116-74.3617 33.1727-69.9903 30.0376-60.8928L13.6569-13.2587C12.8768-10.929 12.4609-8.63202 12.4609-6.60401C12.4609-0.0794115 16.786 3.95492 23.7783 3.95492ZM41.6743-28.1762L48.9691-54.7293L49.3954-54.7293L56.6906-28.1762Z"/>
  </g>
  <g id="Heavy-M" transform="matrix(1 0 0 1 2589.19 1126)">
   <path class="SFSymbolsPreviewWireframe" d="M22.083 3.20614C27.6317 3.20614 30.6978 0.71832 32.1637-5.10002L34.8336-13.6077L59.6876-13.6077L62.3553-5.10002C63.8234 0.71832 66.8873 3.20614 72.436 3.20614C78.5564 3.20614 82.5271-0.470027 82.5271-6.07546C82.5271-8.33728 82.2138-10.1465 81.4401-12.389L64.003-62.2961C61.381-69.9968 56.1363-73.6425 47.4362-73.6425C39.2324-73.6425 34.0705-69.9555 31.4235-62.2961L13.5043-11.5001C12.8178-9.47575 12.4609-7.5521 12.4609-5.79732C12.4609-0.235509 16.1394 3.20614 22.083 3.20614ZM38.9276-28.0293L47.2952-56.0658L47.6894-56.0658L56.0548-28.0293Z"/>
  </g>
  <g id="Bold-M" transform="matrix(1 0 0 1 2294.35 1126)">
   <path class="SFSymbolsPreviewWireframe" d="M20.1865 2.36852C24.6948 2.36852 27.1489 0.400233 28.4268-4.34186L32.3594-15.8849L58.559-15.8849L62.4864-4.34186C63.7695 0.400233 66.2184 2.36852 70.7267 2.36852C75.6165 2.36852 78.795-0.581491 78.795-5.09483C78.795-6.85792 78.5327-8.3069 77.8939-10.1325L58.5727-63.8659C56.4666-69.9399 52.3507-72.8378 45.5759-72.8378C39.1439-72.8378 35.0747-69.9165 32.9738-63.8659L13.3335-9.53293C12.7518-7.85006 12.4609-6.34405 12.4609-4.89491C12.4609-0.410127 15.4161 2.36852 20.1865 2.36852ZM35.8551-27.8651L45.4227-57.5609L45.7811-57.5609L55.3435-27.8651Z"/>
  </g>
  <g id="Semibold-M" transform="matrix(1 0 0 1 1998.93 1126)">
   <path class="SFSymbolsPreviewWireframe" d="M18.8791 1.79107C22.6702 1.79107 24.7023 0.180946 25.8507-3.81919L30.6537-17.4549L57.7809-17.4549L62.5768-3.81919C63.7323 0.180946 65.7573 1.79107 69.5484 1.79107C73.5898 1.79107 76.2222-0.658333 76.2222-4.41879C76.2222-5.83805 75.995-7.0387 75.4492-8.57693L54.8292-64.9481C53.0787-69.9007 49.7409-72.2831 44.2935-72.2831C39.0828-72.2831 35.7671-69.8897 34.0426-64.9481L13.2158-8.17675C12.7063-6.72931 12.4609-5.51123 12.4609-4.2728C12.4609-0.530508 14.9174 1.79107 18.8791 1.79107ZM33.7369-27.7518L44.1318-58.5916L44.4654-58.5916L54.8532-27.7518Z"/>
  </g>
  <g id="Medium-M" transform="matrix(1 0 0 1 1703.19 1126)">
   <path class="SFSymbolsPreviewWireframe" d="M17.8877 1.35322C21.135 1.35322 22.8472 0.0146731 23.8973-3.42288L29.3603-18.6453L57.1909-18.6453L62.6453-3.42288C63.7041 0.0146731 65.4076 1.35322 68.6549 1.35322C72.053 1.35322 74.2714-0.716599 74.2714-3.90618C74.2714-5.06474 74.0708-6.0771 73.5955-7.39741L51.9906-65.7687C50.5099-69.871 47.7621-71.8626 43.321-71.8626C39.0365-71.8626 36.2921-69.8693 34.853-65.7687L13.1266-7.14844C12.6718-5.87951 12.4609-4.87975 12.4609-3.80109C12.4609-0.621785 14.5394 1.35322 17.8877 1.35322ZM32.1308-27.666L43.153-59.3731L43.4679-59.3731L54.4815-27.666Z"/>
  </g>
  <g id="Regular-M" transform="matrix(1 0 0 1 1407.75 1126)">
   <path class="SFSymbolsPreviewWireframe" d="M16.5947 0.782116C19.1326 0.782116 20.4275-0.202204 21.3495-2.90595L27.6734-20.1979L56.4214-20.1979L62.7347-2.90595C63.6673-0.202204 64.9516 0.782116 67.4895 0.782116C70.0486 0.782116 71.7268-0.792597 71.7268-3.23757C71.7268-4.05608 71.561-4.82284 71.1776-5.85891L48.2882-66.839C47.1592-69.8322 45.181-71.314 42.0527-71.314C38.9761-71.314 36.9768-69.8428 35.9101-66.839L13.0101-5.80716C12.6267-4.77108 12.4609-4.05608 12.4609-3.18582C12.4609-0.740843 14.0462 0.782116 16.5947 0.782116ZM30.0359-27.554L41.8763-60.3925L42.1667-60.3925L53.9965-27.554Z"/>
  </g>
  <g id="Light-M" transform="matrix(1 0 0 1 1111.38 1126)">
   <path class="SFSymbolsPreviewWireframe" d="M15.6194 0.730784C17.5242 0.730784 18.4939-0.0310951 19.1935-2.06751L26.5783-21.7379L56.8834-21.7379L64.2405-2.06751C64.9677-0.0310951 65.9098 0.730784 67.8146 0.730784C69.7748 0.730784 71.0423-0.467489 71.0423-2.33069C71.0423-2.96098 70.9108-3.55663 70.6129-4.35315L46.3718-67.9341C45.5336-70.1231 44.0859-71.2797 41.7447-71.2797C39.4381-71.2797 37.935-70.1507 37.1592-67.9341L12.8904-4.31851C12.5925-3.52198 12.4609-2.96098 12.4609-2.29605C12.4609-0.432846 13.6869 0.730784 15.6194 0.730784ZM28.4275-27.3829L41.5854-62.7538L41.8416-62.7538L54.9718-27.3829Z"/>
  </g>
  <g id="Thin-M" transform="matrix(1 0 0 1 815.123 1126)">
   <path class="SFSymbolsPreviewWireframe" d="M14.3294 0.662892C15.3969 0.662892 15.9367 0.195211 16.342-0.958613L25.1299-23.7747L57.4944-23.7747L66.232-0.958613C66.6877 0.195211 67.1771 0.662892 68.2446 0.662892C69.4127 0.662892 70.1371-0.0375075 70.1371-1.13127C70.1371-1.51262 70.0508-1.88196 69.8661-2.36166L43.8372-69.3825C43.3837-70.5078 42.6375-71.2345 41.3373-71.2345C40.0491-71.2345 39.2023-70.5581 38.8112-69.3825L12.7319-2.34964C12.5473-1.86995 12.4609-1.51262 12.4609-1.11926C12.4609-0.0254954 13.2116 0.662892 14.3294 0.662892ZM26.3002-27.1565L41.2007-65.8768L41.4116-65.8768L56.2618-27.1565Z"/>
  </g>
  <g id="Ultralight-M" transform="matrix(1 0 0 1 518.644 1126)">
   <path class="SFSymbolsPreviewWireframe" d="M13.6687 0.628118C14.3073 0.628118 14.6269 0.311124 14.8815-0.39064L24.3881-24.8179L57.8074-24.8179L67.252-0.39064C67.5686 0.311124 67.8262 0.628118 68.4649 0.628118C69.2272 0.628118 69.6735 0.182727 69.6735-0.516933C69.6735-0.770781 69.6103-1.02421 69.4836-1.34162L42.5389-70.1243C42.2826-70.7049 41.8957-71.2113 41.1287-71.2113C40.3621-71.2113 39.8514-70.7667 39.6574-70.1243L12.6508-1.3412C12.5241-1.02379 12.4609-0.770781 12.4609-0.516512C12.4609 0.183148 12.9682 0.628118 13.6687 0.628118ZM25.2107-27.0406L41.0036-67.4764L41.1914-67.4764L56.9225-27.0406Z"/>
  </g>
  <g id="Black-S" transform="matrix(1 0 0 1 2894.39 696)">
   <path class="SFSymbolsPreviewWireframe" d="M19.0918-4.29688C24.4141-4.29688 27.3926-6.73828 28.7109-12.3047L29.6387-16.1621L47.9004-16.1621L48.8281-12.3047C50.1465-6.73828 53.125-4.29688 58.4473-4.29688C64.4043-4.29688 68.2617-7.86133 68.2617-13.2812C68.2617-15.5273 67.9688-17.2852 67.2363-19.4336L55.3223-54.9805C52.7832-62.5488 47.6074-66.1133 38.9648-66.1133C30.8594-66.1133 25.7812-62.5 23.1934-54.9805L10.7422-18.457C10.1074-16.5527 9.76562-14.6484 9.76562-12.9883C9.76562-7.61719 13.3301-4.29688 19.0918-4.29688ZM33.3984-29.7363L38.8672-50.2441L39.209-50.2441L44.6777-29.7363Z"/>
  </g>
  <g id="Heavy-S" transform="matrix(1 0 0 1 2599.06 696)">
   <path class="SFSymbolsPreviewWireframe" d="M17.7665-4.93072C22.3742-4.93072 24.9263-7.00334 26.1295-11.8322L27.887-17.7064L46.9784-17.7064L48.7359-11.8322C49.939-7.00334 52.4912-4.93072 57.0989-4.93072C62.1916-4.93072 65.4958-7.9881 65.4958-12.6474C65.4958-14.5362 65.2375-16.0405 64.5972-17.9008L51.4155-56.0407C49.2337-62.4682 44.8531-65.5025 37.5819-65.5025C30.7326-65.5025 26.4266-62.4309 24.219-56.0407L10.6269-17.1432C10.0613-15.4694 9.76562-13.8648 9.76562-12.4121C9.76562-7.79005 12.823-4.93072 17.7665-4.93072ZM31.2549-29.6326L37.4727-51.0854L37.7915-51.0854L44.0093-29.6326Z"/>
  </g>
  <g id="Bold-S" transform="matrix(1 0 0 1 2303.89 696)">
   <path class="SFSymbolsPreviewWireframe" d="M16.2842-5.63965C20.0928-5.63965 22.168-7.2998 23.2422-11.3037L25.9277-19.4336L45.9473-19.4336L48.6328-11.3037C49.707-7.2998 51.7822-5.63965 55.5908-5.63965C59.7168-5.63965 62.4023-8.12988 62.4023-11.9385C62.4023-13.4277 62.1826-14.6484 61.6455-16.1865L47.0459-57.2266C45.2637-62.3779 41.7725-64.8193 36.0352-64.8193C30.5908-64.8193 27.1484-62.3535 25.3662-57.2266L10.498-15.6738C10.0098-14.2578 9.76562-12.9883 9.76562-11.7676C9.76562-7.9834 12.2559-5.63965 16.2842-5.63965ZM28.8574-29.5166L35.9131-52.0264L36.2061-52.0264L43.2617-29.5166Z"/>
  </g>
  <g id="Semibold-S" transform="matrix(1 0 0 1 2008.25 696)">
   <path class="SFSymbolsPreviewWireframe" d="M15.2622-6.12842C18.5198-6.12842 20.2662-7.5042 21.2516-10.9394L24.577-20.6244L45.2363-20.6244L48.5617-10.9394C49.5471-7.5042 51.2935-6.12842 54.5511-6.12842C58.0105-6.12842 60.2695-8.22764 60.2695-11.4497C60.2695-12.6635 60.0765-13.6887 59.6104-15.0046L44.0333-58.0441C42.5266-62.3157 39.6485-64.3483 34.9688-64.3483C30.4931-64.3483 27.6461-62.3002 26.1571-58.0441L10.4092-14.6607C9.97422-13.4225 9.76562-12.384 9.76562-11.3232C9.76562-8.1167 11.8648-6.12842 15.2622-6.12842ZM27.2045-29.4366L34.8378-52.6751L35.113-52.6751L42.7463-29.4366Z"/>
  </g>
  <g id="Medium-S" transform="matrix(1 0 0 1 1712.35 696)">
   <path class="SFSymbolsPreviewWireframe" d="M14.4873-6.49902C17.3271-6.49902 18.8242-7.65918 19.7422-10.6631L23.5527-21.5273L44.6973-21.5273L48.5078-10.6631C49.4258-7.65918 50.9229-6.49902 53.7627-6.49902C56.7168-6.49902 58.6523-8.30176 58.6523-11.0791C58.6523-12.084 58.4795-12.9609 58.0674-14.1084L41.749-58.6641C40.4512-62.2686 38.0381-63.9912 34.1602-63.9912C30.4189-63.9912 28.0234-62.2598 26.7568-58.6641L10.3418-13.8926C9.94727-12.7891 9.76562-11.9258 9.76562-10.9863C9.76562-8.21777 11.5684-6.49902 14.4873-6.49902ZM25.9512-29.376L34.0225-53.167L34.2842-53.167L42.3555-29.376Z"/>
  </g>
  <g id="Regular-S" transform="matrix(1 0 0 1 1416.69 696)">
   <path class="SFSymbolsPreviewWireframe" d="M13.4766-6.98242C15.7715-6.98242 16.9434-7.86133 17.7734-10.3027L22.2168-22.7051L43.9941-22.7051L48.4375-10.3027C49.2676-7.86133 50.4395-6.98242 52.7344-6.98242C55.0293-6.98242 56.543-8.39844 56.543-10.5957C56.543-11.3281 56.3965-12.0117 56.0547-12.9395L38.7695-59.4727C37.7441-62.207 35.9375-63.5254 33.1055-63.5254C30.3223-63.5254 28.5156-62.207 27.5391-59.4727L10.2539-12.8906C9.91211-11.9629 9.76562-11.3281 9.76562-10.5469C9.76562-8.34961 11.1816-6.98242 13.4766-6.98242ZM24.3164-29.2969L32.959-53.8086L33.2031-53.8086L41.8457-29.2969Z"/>
  </g>
  <g id="Light-S" transform="matrix(1 0 0 1 1120.28 696)">
   <path class="SFSymbolsPreviewWireframe" d="M12.6138-7.02783C14.3486-7.02783 15.2329-7.70996 15.8662-9.56104L21.2481-24.0674L44.4028-24.0674L49.7695-9.56104C50.418-7.70996 51.2871-7.02783 53.022-7.02783C54.7871-7.02783 55.9375-8.11084 55.9375-9.79346C55.9375-10.3594 55.8213-10.8916 55.5552-11.6074L37.0742-60.4414C36.3062-62.4644 34.9688-63.4951 32.833-63.4951C30.731-63.4951 29.3633-62.4795 28.644-60.4414L10.148-11.5737C9.88184-10.8579 9.76562-10.3594 9.76562-9.75977C9.76562-8.07715 10.8638-7.02783 12.6138-7.02783ZM22.8936-29.1455L32.7017-55.8974L32.9155-55.8974L42.7085-29.1455Z"/>
  </g>
  <g id="Thin-S" transform="matrix(1 0 0 1 823.971 696)">
   <path class="SFSymbolsPreviewWireframe" d="M11.4727-7.08789C12.4668-7.08789 12.9707-7.50977 13.3438-8.58009L19.9668-25.8691L44.9434-25.8691L51.5312-8.58009C51.9394-7.50977 52.4082-7.08789 53.4023-7.08789C54.4668-7.08789 55.1367-7.73047 55.1367-8.73244C55.1367-9.07814 55.0606-9.41018 54.8945-9.84573L34.8321-61.7226C34.4043-62.8047 33.6875-63.4551 32.4727-63.4551C31.2715-63.4551 30.4844-62.8398 30.1054-61.7226L10.0078-9.83206C9.8418-9.3965 9.76562-9.07814 9.76562-8.71876C9.76562-7.7168 10.4434-7.08789 11.4727-7.08789ZM21.0117-28.9453L32.3613-58.6601L32.5352-58.6601L43.8496-28.9453Z"/>
  </g>
  <g id="Ultralight-S" transform="matrix(1 0 0 1 527.465 696)">
   <path class="SFSymbolsPreviewWireframe" d="M10.8882-7.11865C11.503-7.11865 11.8121-7.40723 12.0518-8.07765L19.3106-26.792L45.2202-26.792L52.4336-8.07765C52.7187-7.40723 52.9824-7.11865 53.5972-7.11865C54.3027-7.11865 54.7266-7.53565 54.7266-8.18898C54.7266-8.4219 54.6709-8.65139 54.5562-8.94339L33.6836-62.3789C33.4302-62.979 33.0313-63.4346 32.2881-63.4346C31.5483-63.4346 31.0586-63.0244 30.854-62.3789L9.93604-8.93997C9.82129-8.64798 9.76562-8.4219 9.76562-8.18557C9.76562-7.53223 10.228-7.11865 10.8882-7.11865ZM20.0479-28.8428L32.187-60.0751L32.3403-60.0751L44.4341-28.8428Z"/>
  </g>
 </g>
</svg>
