<svg xmlns="http://www.w3.org/2000/svg" version="1.1" width="3300" height="2000"><g id="Notes"><style>
    text {
      font-family: monospace;
      text-anchor: middle;
    }
    text.emphasis {
      font-weight:bold;
    }
    text.lanchor {
      text-anchor: start;
    }
  </style><rect height="2200" id="artboard" fill="white" width="3300" x="0" y="0"/><line id="" style="fill:none;stroke:black;stroke-width:0.5;" x1="263" x2="3036" y1="292" y2="292"/><text class="lanchor emphasis" transform="matrix(1 0 0 1 263 322)">Weight/Scale Variations</text><text transform="matrix(1 0 0 1 559.711 322)">Ultralight</text><text transform="matrix(1 0 0 1 856.422 322)">Thin</text><text transform="matrix(1 0 0 1 1153.13 322)">Light</text><text transform="matrix(1 0 0 1 1449.84 322)">Regular</text><text transform="matrix(1 0 0 1 1746.56 322)">Medium</text><text transform="matrix(1 0 0 1 2043.27 322)">Semibold</text><text transform="matrix(1 0 0 1 2339.98 322)">Bold</text><text transform="matrix(1 0 0 1 2636.69 322)">Heavy</text><text transform="matrix(1 0 0 1 2933.4 322)">Black</text><text id="template-version" style="text-anchor: end;" transform="matrix(1 0 0 1 3036 1933)">Template v.1.0</text><text class="lanchor" transform="matrix(1 0 0 1 263 726)">Small</text><text class="lanchor" transform="matrix(1 0 0 1 263 1156)">Medium</text><text class="lanchor" transform="matrix(1 0 0 1 263 1586)">Large</text></g><g id="Guides"><g id="H-reference" style="fill:#27AAE1;stroke:none;" transform="matrix(1 0 0 1 339 696)"><path d="M 54.9316 0 L 57.666 0 L 30.5664 -70.459 L 28.0762 -70.459 L 0.976562 0 L 3.66211 0 L 12.9395 -24.4629 L 45.7031 -24.4629 Z M 29.1992 -67.0898 L 29.4434 -67.0898 L 44.8242 -26.709 L 13.8184 -26.709 Z"/></g><line id="Baseline-S" style="fill:none;stroke:#27AAE1;opacity:1;stroke-width:0.577;" x1="263" x2="3036" y1="696" y2="696"/><line id="Capline-S" style="fill:none;stroke:#27AAE1;opacity:1;stroke-width:0.577;" x1="263" x2="3036" y1="625.541" y2="625.541"/><g id="H-reference" style="fill:#27AAE1;stroke:none;" transform="matrix(1 0 0 1 339 1126)"><path d="M 54.9316 0 L 57.666 0 L 30.5664 -70.459 L 28.0762 -70.459 L 0.976562 0 L 3.66211 0 L 12.9395 -24.4629 L 45.7031 -24.4629 Z M 29.1992 -67.0898 L 29.4434 -67.0898 L 44.8242 -26.709 L 13.8184 -26.709 Z"/></g><line id="Baseline-M" style="fill:none;stroke:#27AAE1;opacity:1;stroke-width:0.577;" x1="263" x2="3036" y1="1126" y2="1126"/><line id="Capline-M" style="fill:none;stroke:#27AAE1;opacity:1;stroke-width:0.577;" x1="263" x2="3036" y1="1055.54" y2="1055.54"/><g id="H-reference" style="fill:#27AAE1;stroke:none;" transform="matrix(1 0 0 1 339 1556)"><path d="M 54.9316 0 L 57.666 0 L 30.5664 -70.459 L 28.0762 -70.459 L 0.976562 0 L 3.66211 0 L 12.9395 -24.4629 L 45.7031 -24.4629 Z M 29.1992 -67.0898 L 29.4434 -67.0898 L 44.8242 -26.709 L 13.8184 -26.709 Z"/></g><line id="Baseline-L" style="fill:none;stroke:#27AAE1;opacity:1;stroke-width:0.577;" x1="263" x2="3036" y1="1556" y2="1556"/><line id="Capline-L" style="fill:none;stroke:#27AAE1;opacity:1;stroke-width:0.577;" x1="263" x2="3036" y1="1485.54" y2="1485.54"/><rect height="119.336" id="left-margin" style="fill:darkred;stroke:none;opacity:0.4;" width="12.4512" x="1394.06" y="1030.79"/><rect height="119.336" id="right-margin" style="fill:darkgreen;stroke:none;opacity:0.4;" width="12.4512" x="1502.5112" y="1030.79"/><rect x="1406.5112" y="1045" width="96" height="96" fill="none" stroke="blue" stroke-dasharray="5"/><rect x="1394.06" y="1030.79" width="120.9024" height="119.336" fill="none" stroke="blue"/></g><g id="Symbols"><g id="Bold-L" transform="matrix(1 0 0 1 2266 1556)"><path d="M43.538 33.301 Q37.079 33.301 32.65 28.872 Q28.219 24.441 28.219 18.144 V-88.442 Q28.219 -94.805 32.65 -99.364 Q37.079 -103.922 43.538 -103.922 H85.301 Q88.371 -103.922 91.155 -102.724 Q93.936 -101.525 96.266 -99.407 L122.066 -73.93 Q124.114 -71.885 125.428 -68.97 Q126.743 -66.055 126.743 -62.965 V18.144 Q126.743 24.441 122.265 28.872 Q117.787 33.301 111.424 33.301 H43.538 Z M69.821 -88.604 H43.376 Q43.376 -88.604 43.376 -88.604 Q43.376 -88.604 43.376 -88.604 V18.144 Q43.376 18.144 43.376 18.144 Q43.376 18.144 43.376 18.144 H111.424 Q111.424 18.144 111.424 18.144 Q111.424 18.144 111.424 18.144 V-48.291 H91.267 Q82.21 -48.291 76.016 -54.499 Q69.821 -60.707 69.821 -69.576 V-88.604 Z M82.56 -88.281 V-69.576 Q82.56 -66.105 85.064 -63.568 Q87.567 -61.03 91.267 -61.03 H110.618 V-63.932 L85.624 -88.281 H82.56 Z M61.92 4.115 Q59.263 4.115 57.366 2.228 Q55.47 0.342 55.47 -2.448 Q55.47 -5.237 57.371 -7.092 Q59.271 -8.946 62.081 -8.946 H79.335 Q81.992 -8.946 83.889 -7.063 Q85.785 -5.181 85.785 -2.391 Q85.785 0.398 83.873 2.256 Q81.959 4.115 79.335 4.115 H61.92 Z M61.92 -19.427 Q59.263 -19.427 57.366 -21.23 Q55.47 -23.031 55.47 -25.713 Q55.47 -28.395 57.366 -30.281 Q59.263 -32.166 61.92 -32.166 H93.041 Q95.697 -32.166 97.595 -30.252 Q99.491 -28.338 99.491 -25.657 Q99.491 -22.975 97.595 -21.201 Q95.697 -19.427 93.041 -19.427 H61.92 Z"/></g><g id="Semibold-L" transform="matrix(1 0 0 1 1970.27 1556)"><path d="M42.836 31.548 Q37.504 31.548 33.737 27.783 Q29.972 24.016 29.972 18.774 V-89.144 Q29.972 -94.423 33.737 -98.261 Q37.504 -102.1 42.836 -102.1 H85.651 Q88.249 -102.1 90.602 -101.112 Q92.956 -100.123 94.863 -98.356 L121.015 -72.458 Q122.732 -70.742 123.825 -68.302 Q124.92 -65.864 124.92 -63.246 V18.774 Q124.92 24.016 121.126 27.783 Q117.334 31.548 112.054 31.548 H42.836 Z M71.013 -89.234 H42.746 Q42.746 -89.234 42.746 -89.234 Q42.746 -89.234 42.746 -89.234 V18.774 Q42.746 18.774 42.746 18.774 Q42.746 18.774 42.746 18.774 H112.054 Q112.054 18.774 112.054 18.774 Q112.054 18.774 112.054 18.774 V-49.133 H91.058 Q82.637 -49.133 76.824 -54.952 Q71.013 -60.772 71.013 -69.086 V-89.234 Z M82.42 -89.052 V-69.086 Q82.42 -65.545 84.903 -63.042 Q87.386 -60.54 91.058 -60.54 H111.6 V-63.792 L85.833 -89.052 H82.42 Z M61.639 4.676 Q59.245 4.676 57.568 3.001 Q55.891 1.327 55.891 -1.15 Q55.891 -3.625 57.569 -5.27 Q59.248 -6.913 61.731 -6.913 H79.685 Q82.081 -6.913 83.758 -5.241 Q85.435 -3.569 85.435 -1.093 Q85.435 1.383 83.748 3.03 Q82.063 4.676 79.685 4.676 H61.639 Z M61.639 -18.445 Q59.245 -18.445 57.568 -20.072 Q55.891 -21.7 55.891 -24.115 Q55.891 -26.529 57.568 -28.191 Q59.245 -29.852 61.639 -29.852 H93.251 Q95.647 -29.852 97.324 -28.162 Q99.001 -26.473 99.001 -24.059 Q99.001 -21.643 97.324 -20.045 Q95.647 -18.445 93.251 -18.445 H61.639 Z"/></g><g id="Medium-L" transform="matrix(1 0 0 1 1674.31 1556)"><path d="M42.31 30.234 Q37.821 30.234 34.554 26.966 Q31.286 23.699 31.286 19.248 V-89.67 Q31.286 -94.136 34.554 -97.434 Q37.821 -100.733 42.31 -100.733 H85.914 Q88.157 -100.733 90.187 -99.903 Q92.219 -99.07 93.812 -97.568 L120.226 -71.353 Q121.697 -69.883 122.624 -67.802 Q123.553 -65.721 123.553 -63.455 V19.248 Q123.553 23.699 120.273 26.966 Q116.995 30.234 112.528 30.234 H42.31 Z M71.906 -89.708 H42.272 Q42.272 -89.708 42.272 -89.708 Q42.272 -89.708 42.272 -89.708 V19.248 Q42.272 19.248 42.272 19.248 Q42.272 19.248 42.272 19.248 H112.528 Q112.528 19.248 112.528 19.248 Q112.528 19.248 112.528 19.248 V-49.763 H90.9 Q82.957 -49.763 77.432 -55.291 Q71.906 -60.82 71.906 -68.717 V-89.708 Z M82.315 -89.631 V-68.717 Q82.315 -65.124 84.782 -62.647 Q87.251 -60.171 90.9 -60.171 H112.335 V-63.687 L85.991 -89.631 H82.315 Z M61.43 5.097 Q59.23 5.097 57.718 3.581 Q56.207 2.066 56.207 -0.176 Q56.207 -2.416 57.719 -3.902 Q59.232 -5.387 61.468 -5.387 H79.948 Q82.149 -5.387 83.66 -3.873 Q85.172 -2.359 85.172 -0.118 Q85.172 2.122 83.656 3.609 Q82.141 5.097 79.948 5.097 H61.43 Z M61.43 -17.71 Q59.23 -17.71 57.718 -19.205 Q56.207 -20.7 56.207 -22.915 Q56.207 -25.129 57.718 -26.624 Q59.23 -28.117 61.43 -28.117 H93.409 Q95.608 -28.117 97.121 -26.595 Q98.632 -25.073 98.632 -22.859 Q98.632 -20.643 97.121 -19.178 Q95.608 -17.71 93.409 -17.71 H61.43 Z"/></g><g id="Regular-L" transform="matrix(1 0 0 1 1378.56 1556)"><path d="M41.925 29.27 Q38.055 29.27 35.153 26.368 Q32.25 23.465 32.25 19.595 V-90.055 Q32.25 -93.925 35.153 -96.827 Q38.055 -99.73 41.925 -99.73 H86.108 Q88.089 -99.73 89.884 -99.016 Q91.679 -98.3 93.041 -96.989 L119.648 -70.544 Q120.938 -69.254 121.744 -67.435 Q122.55 -65.616 122.55 -63.61 V19.595 Q122.55 23.465 119.648 26.368 Q116.745 29.27 112.875 29.27 H41.925 Z M72.562 -90.055 H41.925 Q41.925 -90.055 41.925 -90.055 Q41.925 -90.055 41.925 -90.055 V19.595 Q41.925 19.595 41.925 19.595 Q41.925 19.595 41.925 19.595 H112.875 Q112.875 19.595 112.875 19.595 Q112.875 19.595 112.875 19.595 V-50.226 H90.784 Q83.192 -50.226 77.877 -55.541 Q72.562 -60.856 72.562 -68.447 V-90.055 Z M82.237 -90.055 V-68.447 Q82.237 -64.815 84.695 -62.359 Q87.151 -59.901 90.784 -59.901 H112.875 V-63.61 L86.108 -90.055 H82.237 Z M61.275 5.405 Q59.219 5.405 57.829 4.005 Q56.438 2.607 56.438 0.538 Q56.438 -1.529 57.829 -2.899 Q59.219 -4.27 61.275 -4.27 H80.141 Q82.197 -4.27 83.589 -2.87 Q84.979 -1.472 84.979 0.597 Q84.979 2.664 83.589 4.034 Q82.197 5.405 80.141 5.405 H61.275 Z M61.275 -17.17 Q59.219 -17.17 57.829 -18.57 Q56.438 -19.968 56.438 -22.037 Q56.438 -24.104 57.829 -25.474 Q59.219 -26.845 61.275 -26.845 H93.525 Q95.581 -26.845 96.973 -25.445 Q98.362 -24.047 98.362 -21.978 Q98.362 -19.911 96.973 -18.541 Q95.581 -17.17 93.525 -17.17 H61.275 Z"/></g><g id="Light-L" transform="matrix(1 0 0 1 1082.77 1556)"><path d="M44.778 26.045 Q40.983 26.045 38.229 23.291 Q35.475 20.537 35.475 16.742 V-87.202 Q35.475 -90.997 38.229 -93.751 Q40.983 -96.505 44.778 -96.505 H85.177 Q87.07 -96.505 88.823 -95.818 Q90.577 -95.131 91.863 -93.825 L116.608 -68.868 Q117.837 -67.578 118.58 -65.916 Q119.325 -64.252 119.325 -62.307 V16.742 Q119.325 20.537 116.571 23.291 Q113.817 26.045 110.022 26.045 H44.778 Z M73.741 -89.186 H44.778 Q43.91 -89.186 43.352 -88.597 Q42.794 -88.009 42.794 -87.202 V16.742 Q42.794 17.61 43.352 18.168 Q43.91 18.726 44.778 18.726 H110.022 Q110.829 18.726 111.417 18.168 Q112.006 17.61 112.006 16.742 V-50.723 H90.102 Q83.253 -50.723 78.496 -55.568 Q73.741 -60.416 73.741 -67.332 V-89.186 Z M81.059 -89.186 V-67.332 Q81.059 -63.441 83.634 -60.74 Q86.211 -58.04 90.102 -58.04 H112.006 V-63.052 L86.046 -89.186 H81.059 Z M62.639 3.978 Q61.082 3.978 60.03 2.92 Q58.98 1.861 58.98 0.29 Q58.98 -1.28 60.03 -2.311 Q61.082 -3.34 62.639 -3.34 H79.396 Q80.956 -3.34 82.005 -2.28 Q83.057 -1.222 83.057 0.348 Q83.057 1.919 82.005 2.949 Q80.956 3.978 79.396 3.978 H62.639 Z M62.639 -18.782 Q61.082 -18.782 60.03 -19.842 Q58.98 -20.9 58.98 -22.47 Q58.98 -24.042 60.03 -25.071 Q61.082 -26.1 62.639 -26.1 H92.098 Q93.657 -26.1 94.707 -25.042 Q95.757 -23.983 95.757 -22.412 Q95.757 -20.842 94.707 -19.813 Q93.657 -18.782 92.098 -18.782 H62.639 Z"/></g><g id="Thin-L" transform="matrix(1 0 0 1 787.282 1556)"><path d="M47.63 22.82 Q43.913 22.82 41.306 20.214 Q38.7 17.607 38.7 13.89 V-84.35 Q38.7 -88.067 41.306 -90.674 Q43.913 -93.28 47.63 -93.28 H84.247 Q86.051 -93.28 87.764 -92.622 Q89.476 -91.963 90.684 -90.663 L113.57 -67.195 Q114.736 -65.905 115.418 -64.397 Q116.1 -62.888 116.1 -61.006 V13.89 Q116.1 17.607 113.494 20.214 Q110.887 22.82 107.17 22.82 H47.63 Z M74.92 -88.318 H47.63 Q45.895 -88.318 44.778 -87.14 Q43.662 -85.962 43.662 -84.35 V13.89 Q43.662 15.625 44.778 16.742 Q45.895 17.858 47.63 17.858 H107.17 Q108.782 17.858 109.96 16.742 Q111.138 15.625 111.138 13.89 V-51.218 H89.42 Q83.316 -51.218 79.117 -55.597 Q74.92 -59.977 74.92 -66.214 V-88.318 Z M79.88 -88.318 V-66.214 Q79.88 -62.065 82.575 -59.122 Q85.269 -56.18 89.42 -56.18 H111.138 V-62.494 L85.983 -88.318 H79.88 Z M64.003 2.552 Q62.944 2.552 62.233 1.833 Q61.523 1.114 61.523 0.04 Q61.523 -1.032 62.233 -1.721 Q62.944 -2.409 64.003 -2.409 H78.653 Q79.714 -2.409 80.423 -1.69 Q81.133 -0.972 81.133 0.101 Q81.133 1.175 80.423 1.864 Q79.714 2.552 78.653 2.552 H64.003 Z M64.003 -20.395 Q62.944 -20.395 62.233 -21.114 Q61.523 -21.833 61.523 -22.906 Q61.523 -23.98 62.233 -24.668 Q62.944 -25.357 64.003 -25.357 H90.672 Q91.732 -25.357 92.443 -24.637 Q93.153 -23.918 93.153 -22.846 Q93.153 -21.772 92.443 -21.084 Q91.732 -20.395 90.672 -20.395 H64.003 Z"/></g><g id="Ultralight-L" transform="matrix(1 0 0 1 491.205 1556)"><path d="M49.343 20.885 Q45.671 20.885 43.152 18.368 Q40.635 15.849 40.635 12.178 V-82.637 Q40.635 -86.311 43.152 -88.828 Q45.671 -91.345 49.343 -91.345 H83.689 Q85.44 -91.345 87.127 -90.703 Q88.815 -90.061 89.978 -88.765 L111.746 -66.19 Q112.875 -64.9 113.52 -63.484 Q114.165 -62.068 114.165 -60.224 V12.178 Q114.165 15.849 111.648 18.368 Q109.131 20.885 105.457 20.885 H49.343 Z M75.626 -87.797 H49.343 Q47.085 -87.797 45.634 -86.266 Q44.183 -84.734 44.183 -82.637 V12.178 Q44.183 14.435 45.634 15.886 Q47.085 17.338 49.343 17.338 H105.457 Q107.554 17.338 109.086 15.886 Q110.618 14.435 110.618 12.178 V-51.516 H89.01 Q83.353 -51.516 79.49 -55.615 Q75.626 -59.713 75.626 -65.545 V-87.797 Z M79.174 -87.797 V-65.545 Q79.174 -61.24 81.939 -58.152 Q84.705 -55.064 89.01 -55.064 H110.618 V-62.159 L85.946 -87.797 H79.174 Z M64.823 1.696 Q64.06 1.696 63.555 1.182 Q63.049 0.666 63.049 -0.108 Q63.049 -0.884 63.555 -1.367 Q64.06 -1.851 64.823 -1.851 H78.206 Q78.969 -1.851 79.474 -1.337 Q79.98 -0.821 79.98 -0.047 Q79.98 0.729 79.474 1.213 Q78.969 1.696 78.206 1.696 H64.823 Z M64.823 -21.362 Q64.06 -21.362 63.555 -21.877 Q63.049 -22.393 63.049 -23.167 Q63.049 -23.942 63.555 -24.426 Q64.06 -24.91 64.823 -24.91 H89.816 Q90.577 -24.91 91.084 -24.396 Q91.59 -23.88 91.59 -23.106 Q91.59 -22.33 91.084 -21.846 Q90.577 -21.362 89.816 -21.362 H64.823 Z"/></g><g id="Bold-M" transform="matrix(1 0 0 1 2281.8 1126)"><path d="M36.625 19.02 Q29.875 19.02 25.312 14.458 Q20.75 9.895 20.75 3.27 V-73.605 Q20.75 -80.23 25.312 -84.855 Q29.875 -89.48 36.625 -89.48 H65 Q68.155 -89.48 71.015 -88.23 Q73.875 -86.98 76.125 -84.855 L94.625 -66.605 Q96.838 -64.395 98.044 -61.482 Q99.25 -58.569 99.25 -55.355 V3.27 Q99.25 9.895 94.688 14.458 Q90.125 19.02 83.5 19.02 H36.625 Z M52.125 -73.73 H36.5 Q36.5 -73.73 36.5 -73.73 Q36.5 -73.73 36.5 -73.73 V3.27 Q36.5 3.27 36.5 3.27 Q36.5 3.27 36.5 3.27 H83.5 Q83.5 3.27 83.5 3.27 Q83.5 3.27 83.5 3.27 V-43.23 H70.5 Q62.75 -43.23 57.438 -48.516 Q52.125 -53.802 52.125 -61.355 V-73.73 Z M65.375 -73.355 V-61.355 Q65.375 -59.23 66.849 -57.792 Q68.323 -56.355 70.5 -56.355 H82.625 L65.375 -73.355 Z M50.625 -1.605 Q47.875 -1.605 45.938 -3.547 Q44 -5.489 44 -8.36 Q44 -11.23 45.94 -13.105 Q47.881 -14.98 50.75 -14.98 H59.125 Q61.875 -14.98 63.812 -13.105 Q65.75 -11.23 65.75 -8.36 Q65.75 -5.489 63.845 -3.547 Q61.94 -1.605 59.125 -1.605 H50.625 Z M50.625 -22.48 Q47.875 -22.48 45.938 -24.417 Q44 -26.355 44 -29.105 Q44 -31.855 45.938 -33.792 Q47.875 -35.73 50.625 -35.73 H69.5 Q72.25 -35.73 74.188 -33.792 Q76.125 -31.855 76.125 -29.105 Q76.125 -26.355 74.188 -24.417 Q72.25 -22.48 69.5 -22.48 H50.625 Z"/></g><g id="Semibold-M" transform="matrix(1 0 0 1 1985.97 1126)"><path d="M35.919 17.173 Q30.31 17.173 26.454 13.316 Q22.598 9.46 22.598 3.923 V-74.311 Q22.598 -79.85 26.454 -83.741 Q30.31 -87.632 35.919 -87.632 H65.38 Q68.034 -87.632 70.438 -86.6 Q72.843 -85.567 74.713 -83.767 L93.537 -65.084 Q95.386 -63.236 96.394 -60.802 Q97.403 -58.367 97.403 -55.681 V3.923 Q97.403 9.46 93.546 13.316 Q89.69 17.173 84.153 17.173 H35.919 Z M53.375 -74.382 H35.847 Q35.847 -74.382 35.847 -74.382 Q35.847 -74.382 35.847 -74.382 V3.923 Q35.847 3.923 35.847 3.923 Q35.847 3.923 35.847 3.923 H84.153 Q84.153 3.923 84.153 3.923 Q84.153 3.923 84.153 3.923 V-44.1 H70.282 Q63.185 -44.1 58.28 -48.99 Q53.375 -53.88 53.375 -60.866 V-74.382 Z M65.213 -74.17 V-60.866 Q65.213 -58.741 66.67 -57.304 Q68.127 -55.866 70.282 -55.866 H83.657 V-56.246 L65.593 -74.17 H65.213 Z M50.354 -1.007 Q47.875 -1.007 46.155 -2.73 Q44.435 -4.452 44.435 -6.999 Q44.435 -9.545 46.156 -11.23 Q47.879 -12.915 50.424 -12.915 H59.505 Q61.984 -12.915 63.704 -11.23 Q65.424 -9.545 65.424 -6.999 Q65.424 -4.452 63.722 -2.73 Q62.021 -1.007 59.505 -1.007 H50.354 Z M50.354 -21.501 Q47.875 -21.501 46.155 -23.222 Q44.435 -24.942 44.435 -27.42 Q44.435 -29.899 46.155 -31.619 Q47.875 -33.339 50.354 -33.339 H69.718 Q72.196 -33.339 73.916 -31.619 Q75.636 -29.899 75.636 -27.42 Q75.636 -24.942 73.916 -23.222 Q72.196 -21.501 69.718 -21.501 H50.354 Z"/></g><g id="Medium-M" transform="matrix(1 0 0 1 1689.91 1126)"><path d="M35.389 15.786 Q30.636 15.786 27.31 12.46 Q23.984 9.134 23.984 4.411 V-74.841 Q23.984 -79.564 27.31 -82.905 Q30.636 -86.246 35.389 -86.246 H65.666 Q67.942 -86.246 70.005 -85.376 Q72.067 -84.507 73.653 -82.952 L92.722 -63.942 Q94.297 -62.367 95.157 -60.291 Q96.016 -58.216 96.016 -55.926 V4.411 Q96.016 9.134 92.69 12.46 Q89.364 15.786 84.641 15.786 H35.389 Z M54.312 -74.871 H35.359 Q35.359 -74.871 35.359 -74.871 Q35.359 -74.871 35.359 -74.871 V4.411 Q35.359 4.411 35.359 4.411 Q35.359 4.411 35.359 4.411 H84.641 Q84.641 4.411 84.641 4.411 Q84.641 4.411 84.641 4.411 V-44.751 H70.12 Q63.511 -44.751 58.911 -49.345 Q54.312 -53.937 54.312 -60.499 V-74.871 Z M65.09 -74.781 V-60.499 Q65.09 -58.374 66.536 -56.936 Q67.981 -55.499 70.12 -55.499 H84.433 V-56.165 L65.755 -74.781 H65.09 Z M50.15 -0.559 Q47.875 -0.559 46.318 -2.117 Q44.761 -3.675 44.761 -5.979 Q44.761 -8.281 46.319 -9.824 Q47.876 -11.366 50.179 -11.366 H59.791 Q62.065 -11.366 63.623 -9.824 Q65.179 -8.281 65.179 -5.979 Q65.179 -3.675 63.63 -2.117 Q62.081 -0.559 59.791 -0.559 H50.15 Z M50.15 -20.767 Q47.875 -20.767 46.318 -22.325 Q44.761 -23.882 44.761 -26.156 Q44.761 -28.431 46.318 -29.989 Q47.875 -31.545 50.15 -31.545 H69.88 Q72.155 -31.545 73.713 -29.989 Q75.269 -28.431 75.269 -26.156 Q75.269 -23.882 73.713 -22.325 Q72.155 -20.767 69.88 -20.767 H50.15 Z"/></g><g id="Regular-M" transform="matrix(1 0 0 1 1394.06 1126)"><path d="M35 14.77 Q30.875 14.77 27.938 11.833 Q25 8.895 25 4.77 V-75.23 Q25 -79.355 27.938 -82.292 Q30.875 -85.23 35 -85.23 H65.875 Q67.875 -85.23 69.688 -84.48 Q71.5 -83.73 72.875 -82.355 L92.125 -63.105 Q93.5 -61.73 94.25 -59.917 Q95 -58.105 95 -56.105 V4.77 Q95 8.895 92.062 11.833 Q89.125 14.77 85 14.77 H35 Z M55 -75.23 H35 Q35 -75.23 35 -75.23 Q35 -75.23 35 -75.23 V4.77 Q35 4.77 35 4.77 Q35 4.77 35 4.77 H85 Q85 4.77 85 4.77 Q85 4.77 85 4.77 V-45.23 H70 Q63.75 -45.23 59.375 -49.605 Q55 -53.98 55 -60.23 V-75.23 Z M65 -75.23 V-60.23 Q65 -58.105 66.438 -56.667 Q67.875 -55.23 70 -55.23 H85 V-56.105 L65.875 -75.23 H65 Z M50 -0.23 Q47.875 -0.23 46.438 -1.667 Q45 -3.105 45 -5.23 Q45 -7.355 46.438 -8.792 Q47.875 -10.23 50 -10.23 H60 Q62.125 -10.23 63.562 -8.792 Q65 -7.355 65 -5.23 Q65 -3.105 63.562 -1.667 Q62.125 -0.23 60 -0.23 H50 Z M50 -20.23 Q47.875 -20.23 46.438 -21.667 Q45 -23.105 45 -25.23 Q45 -27.355 46.438 -28.792 Q47.875 -30.23 50 -30.23 H70 Q72.125 -30.23 73.562 -28.792 Q75 -27.355 75 -25.23 Q75 -23.105 73.562 -21.667 Q72.125 -20.23 70 -20.23 H50 Z"/></g><g id="Light-M" transform="matrix(1 0 0 1 1098.18 1126)"><path d="M36.539 12.27 Q32.75 12.27 30.125 9.645 Q27.5 7.02 27.5 3.231 V-73.691 Q27.5 -77.48 30.125 -80.105 Q32.75 -82.73 36.539 -82.73 H65.394 Q67.201 -82.73 68.87 -82.052 Q70.539 -81.374 71.769 -80.095 L89.914 -61.662 Q91.144 -60.431 91.823 -58.811 Q92.5 -57.191 92.5 -55.384 V3.231 Q92.5 7.02 89.875 9.645 Q87.25 12.27 83.461 12.27 H36.539 Z M56.25 -75.23 H36.539 Q35.865 -75.23 35.432 -74.774 Q35 -74.316 35 -73.691 V3.231 Q35 3.905 35.432 4.338 Q35.865 4.77 36.539 4.77 H83.461 Q84.086 4.77 84.544 4.338 Q85 3.905 85 3.231 V-46.047 H69.567 Q64.039 -46.047 60.144 -49.99 Q56.25 -53.932 56.25 -59.556 V-75.23 Z M63.75 -75.23 V-59.556 Q63.75 -57.047 65.404 -55.297 Q67.058 -53.547 69.567 -53.547 H85 V-55.961 L66.067 -75.23 H63.75 Z M50.385 -2.297 Q48.789 -2.297 47.711 -3.374 Q46.635 -4.451 46.635 -6.047 Q46.635 -7.644 47.711 -8.72 Q48.789 -9.797 50.385 -9.797 H60 Q61.596 -9.797 62.672 -8.72 Q63.75 -7.644 63.75 -6.047 Q63.75 -4.451 62.672 -3.374 Q61.596 -2.297 60 -2.297 H50.385 Z M50.385 -21.769 Q48.789 -21.769 47.711 -22.845 Q46.635 -23.922 46.635 -25.519 Q46.635 -27.115 47.711 -28.191 Q48.789 -29.269 50.385 -29.269 H69.567 Q71.164 -29.269 72.24 -28.191 Q73.317 -27.115 73.317 -25.519 Q73.317 -23.922 72.24 -22.845 Q71.164 -21.769 69.567 -21.769 H50.385 Z"/></g><g id="Thin-M" transform="matrix(1 0 0 1 802.565 1126)"><path d="M38.078 9.77 Q34.625 9.77 32.312 7.458 Q30 5.145 30 1.693 V-72.152 Q30 -75.605 32.312 -77.917 Q34.625 -80.23 38.078 -80.23 H64.914 Q66.529 -80.23 68.052 -79.624 Q69.578 -79.019 70.664 -77.836 L87.703 -60.22 Q88.789 -59.134 89.394 -57.706 Q90 -56.277 90 -54.662 V1.693 Q90 5.145 87.688 7.458 Q85.375 9.77 81.922 9.77 H38.078 Z M57.5 -75.23 H38.078 Q36.731 -75.23 35.865 -74.316 Q35 -73.402 35 -72.152 V1.693 Q35 3.039 35.865 3.905 Q36.731 4.77 38.078 4.77 H81.922 Q83.172 4.77 84.086 3.905 Q85 3.039 85 1.693 V-46.865 H69.135 Q64.328 -46.865 60.914 -50.374 Q57.5 -53.884 57.5 -58.884 V-75.23 Z M62.5 -75.23 V-58.884 Q62.5 -55.99 64.37 -53.927 Q66.24 -51.865 69.135 -51.865 H85 V-55.816 L66.26 -75.23 H62.5 Z M50.769 -4.365 Q49.703 -4.365 48.985 -5.081 Q48.269 -5.797 48.269 -6.865 Q48.269 -7.932 48.985 -8.649 Q49.703 -9.365 50.769 -9.365 H60 Q61.068 -9.365 61.784 -8.649 Q62.5 -7.932 62.5 -6.865 Q62.5 -5.797 61.784 -5.081 Q61.068 -4.365 60 -4.365 H50.769 Z M50.769 -23.307 Q49.703 -23.307 48.985 -24.024 Q48.269 -24.74 48.269 -25.807 Q48.269 -26.874 48.985 -27.59 Q49.703 -28.307 50.769 -28.307 H69.135 Q70.203 -28.307 70.919 -27.59 Q71.635 -26.874 71.635 -25.807 Q71.635 -24.74 70.919 -24.024 Q70.203 -23.307 69.135 -23.307 H50.769 Z"/></g><g id="Ultralight-M" transform="matrix(1 0 0 1 506.415 1126)"><path d="M39 8.27 Q35.75 8.27 33.625 6.145 Q31.5 4.02 31.5 0.77 V-71.23 Q31.5 -74.48 33.625 -76.605 Q35.75 -78.73 39 -78.73 H64.625 Q66.125 -78.73 67.562 -78.167 Q69 -77.605 70 -76.48 L86.375 -59.355 Q87.375 -58.355 87.938 -57.042 Q88.5 -55.73 88.5 -54.23 V0.77 Q88.5 4.02 86.375 6.145 Q84.25 8.27 81 8.27 H39 Z M58.25 -75.23 H39 Q37.25 -75.23 36.125 -74.042 Q35 -72.855 35 -71.23 V0.77 Q35 2.52 36.125 3.645 Q37.25 4.77 39 4.77 H81 Q82.625 4.77 83.812 3.645 Q85 2.52 85 0.77 V-47.355 H68.875 Q64.5 -47.355 61.375 -50.605 Q58.25 -53.855 58.25 -58.48 V-75.23 Z M61.75 -75.23 V-58.48 Q61.75 -55.355 63.75 -53.105 Q65.75 -50.855 68.875 -50.855 H85 V-55.73 L66.375 -75.23 H61.75 Z M51 -5.605 Q50.25 -5.605 49.75 -6.105 Q49.25 -6.605 49.25 -7.355 Q49.25 -8.105 49.75 -8.605 Q50.25 -9.105 51 -9.105 H60 Q60.75 -9.105 61.25 -8.605 Q61.75 -8.105 61.75 -7.355 Q61.75 -6.605 61.25 -6.105 Q60.75 -5.605 60 -5.605 H51 Z M51 -24.23 Q50.25 -24.23 49.75 -24.73 Q49.25 -25.23 49.25 -25.98 Q49.25 -26.73 49.75 -27.23 Q50.25 -27.73 51 -27.73 H68.875 Q69.625 -27.73 70.125 -27.23 Q70.625 -26.73 70.625 -25.98 Q70.625 -25.23 70.125 -24.73 Q69.625 -24.23 68.875 -24.23 H51 Z"/></g><g id="Bold-S" transform="matrix(1 0 0 1 2294.23 696)"><path d="M29.686 5.995 Q24.36 5.995 21.155 2.79 Q17.95 -0.415 17.95 -5.642 V-64.719 Q17.95 -69.946 21.155 -73.201 Q24.36 -76.455 29.686 -76.455 H48.461 Q50.717 -76.455 52.826 -75.568 Q54.934 -74.68 56.709 -73.003 L73.278 -56.632 Q75.024 -54.888 75.877 -52.749 Q76.73 -50.61 76.73 -48.248 V-5.642 Q76.73 -0.415 73.525 2.79 Q70.32 5.995 65.093 5.995 H29.686 Z M40.338 -64.817 H29.588 Q29.588 -64.817 29.588 -64.817 Q29.588 -64.817 29.588 -64.817 V-5.642 Q29.588 -5.642 29.588 -5.642 Q29.588 -5.642 29.588 -5.642 H65.093 Q65.093 -5.642 65.093 -5.642 Q65.093 -5.642 65.093 -5.642 V-43.12 H53.652 Q48.03 -43.12 44.184 -46.946 Q40.338 -50.771 40.338 -56.237 V-64.817 Z M50.003 -63.93 V-56.19 Q50.003 -54.758 51.052 -53.722 Q52.102 -52.687 53.652 -52.687 H61.443 V-51.996 L49.312 -63.93 H50.003 Z M39.549 -12.645 Q37.547 -12.645 36.131 -14.057 Q34.716 -15.47 34.716 -17.558 Q34.716 -19.647 36.134 -21.028 Q37.551 -22.409 39.647 -22.409 H47.833 Q49.835 -22.409 51.25 -21.049 Q52.666 -19.689 52.666 -17.601 Q52.666 -15.512 51.276 -14.079 Q49.886 -12.645 47.833 -12.645 H39.549 Z M39.549 -27.537 Q37.547 -27.537 36.131 -28.947 Q34.716 -30.356 34.716 -32.349 Q34.716 -34.342 36.131 -35.772 Q37.547 -37.202 39.549 -37.202 H55.23 Q57.232 -37.202 58.647 -35.793 Q60.063 -34.384 60.063 -32.391 Q60.063 -30.397 58.647 -28.967 Q57.232 -27.537 55.23 -27.537 H39.549 Z"/></g><g id="Semibold-S" transform="matrix(1 0 0 1 1998.1 696)"><path d="M29.129 4.538 Q24.704 4.538 22.056 1.889 Q19.407 -0.759 19.407 -5.128 V-65.276 Q19.407 -69.646 22.056 -72.322 Q24.704 -74.998 29.129 -74.998 H48.762 Q50.621 -74.998 52.37 -74.282 Q54.119 -73.566 55.595 -72.145 L72.42 -55.431 Q73.879 -53.974 74.575 -52.212 Q75.273 -50.45 75.273 -48.506 V-5.128 Q75.273 -0.759 72.624 1.889 Q69.976 4.538 65.607 4.538 H29.129 Z M41.324 -65.332 H29.073 Q29.073 -65.332 29.073 -65.332 Q29.073 -65.332 29.073 -65.332 V-5.128 Q29.073 -5.128 29.073 -5.128 Q29.073 -5.128 29.073 -5.128 H65.607 Q65.607 -5.128 65.607 -5.128 Q65.607 -5.128 65.607 -5.128 V-43.806 H53.48 Q48.374 -43.806 44.849 -47.319 Q41.324 -50.832 41.324 -55.852 V-65.332 Z M49.875 -64.573 V-55.804 Q49.875 -54.372 50.911 -53.337 Q51.948 -52.301 53.48 -52.301 H62.258 V-51.91 L49.484 -64.573 H49.875 Z M39.335 -12.173 Q37.547 -12.173 36.303 -13.413 Q35.059 -14.653 35.059 -16.485 Q35.059 -18.318 36.304 -19.549 Q37.549 -20.779 39.39 -20.779 H48.133 Q49.921 -20.779 51.165 -19.569 Q52.408 -18.359 52.408 -16.527 Q52.408 -14.694 51.179 -13.434 Q49.951 -12.173 48.133 -12.173 H39.335 Z M39.335 -26.765 Q37.547 -26.765 36.303 -28.003 Q35.059 -29.241 35.059 -31.02 Q35.059 -32.799 36.303 -34.057 Q37.547 -35.316 39.335 -35.316 H55.402 Q57.19 -35.316 58.433 -34.078 Q59.677 -32.84 59.677 -31.061 Q59.677 -29.283 58.433 -28.024 Q57.19 -26.765 55.402 -26.765 H39.335 Z"/></g><g id="Medium-S" transform="matrix(1 0 0 1 1701.85 696)"><path d="M28.711 3.444 Q24.961 3.444 22.731 1.214 Q20.501 -1.016 20.501 -4.742 V-65.694 Q20.501 -69.42 22.731 -71.662 Q24.961 -73.904 28.711 -73.904 H48.987 Q50.549 -73.904 52.029 -73.316 Q53.508 -72.729 54.759 -71.502 L71.777 -54.531 Q73.02 -53.288 73.6 -51.809 Q74.179 -50.33 74.179 -48.699 V-4.742 Q74.179 -1.016 71.949 1.214 Q69.719 3.444 65.993 3.444 H28.711 Z M42.064 -65.718 H28.687 Q28.687 -65.718 28.687 -65.718 Q28.687 -65.718 28.687 -65.718 V-4.742 Q28.687 -4.742 28.687 -4.742 Q28.687 -4.742 28.687 -4.742 H65.993 Q65.993 -4.742 65.993 -4.742 Q65.993 -4.742 65.993 -4.742 V-44.32 H53.352 Q48.631 -44.32 45.347 -47.6 Q42.064 -50.878 42.064 -55.562 V-65.718 Z M49.778 -65.055 V-55.514 Q49.778 -54.082 50.806 -53.047 Q51.832 -52.011 53.352 -52.011 H62.869 V-51.846 L49.612 -65.055 H49.778 Z M39.174 -11.819 Q37.547 -11.819 36.431 -12.929 Q35.317 -14.039 35.317 -15.681 Q35.317 -17.321 36.432 -18.439 Q37.548 -19.558 39.197 -19.558 H48.359 Q49.985 -19.558 51.101 -18.46 Q52.215 -17.362 52.215 -15.722 Q52.215 -14.081 51.106 -12.951 Q49.998 -11.819 48.359 -11.819 H39.174 Z M39.174 -26.186 Q37.547 -26.186 36.431 -27.296 Q35.317 -28.405 35.317 -30.023 Q35.317 -31.641 36.431 -32.771 Q37.547 -33.901 39.174 -33.901 H55.53 Q57.157 -33.901 58.273 -32.792 Q59.387 -31.682 59.387 -30.064 Q59.387 -28.447 58.273 -27.316 Q57.157 -26.186 55.53 -26.186 H39.174 Z"/></g><g id="Regular-S" transform="matrix(1 0 0 1 1405.73 696)"><path d="M28.404 2.642 Q25.149 2.642 23.226 0.719 Q21.303 -1.204 21.303 -4.459 V-66.001 Q21.303 -69.256 23.226 -71.179 Q25.149 -73.102 28.404 -73.102 H49.152 Q50.496 -73.102 51.778 -72.609 Q53.06 -72.116 54.145 -71.031 L71.306 -53.87 Q72.391 -52.785 72.884 -51.514 Q73.377 -50.243 73.377 -48.84 V-4.459 Q73.377 -1.204 71.454 0.719 Q69.531 2.642 66.276 2.642 H28.404 Z M42.606 -66.001 H28.404 Q28.404 -66.001 28.404 -66.001 Q28.404 -66.001 28.404 -66.001 V-4.459 Q28.404 -4.459 28.404 -4.459 Q28.404 -4.459 28.404 -4.459 H66.276 Q66.276 -4.459 66.276 -4.459 Q66.276 -4.459 66.276 -4.459 V-44.698 H53.258 Q48.819 -44.698 45.713 -47.805 Q42.606 -50.911 42.606 -55.349 V-66.001 Z M49.707 -65.409 V-55.302 Q49.707 -53.87 50.728 -52.835 Q51.749 -51.799 53.258 -51.799 H63.317 L49.707 -65.409 Z M39.056 -11.56 Q37.547 -11.56 36.526 -12.575 Q35.505 -13.59 35.505 -15.09 Q35.505 -16.59 36.526 -17.625 Q37.547 -18.661 39.056 -18.661 H48.524 Q50.032 -18.661 51.053 -17.646 Q52.074 -16.631 52.074 -15.131 Q52.074 -13.631 51.053 -12.596 Q50.032 -11.56 48.524 -11.56 H39.056 Z M39.056 -25.762 Q37.547 -25.762 36.526 -26.777 Q35.505 -27.792 35.505 -29.292 Q35.505 -30.792 36.526 -31.827 Q37.547 -32.863 39.056 -32.863 H55.625 Q57.133 -32.863 58.154 -31.848 Q59.175 -30.833 59.175 -29.333 Q59.175 -27.833 58.154 -26.798 Q57.133 -25.762 55.625 -25.762 H39.056 Z"/></g><g id="Light-S" transform="matrix(1 0 0 1 1109.75 696)"><path d="M29.618 0.67 Q26.629 0.67 24.952 -1.007 Q23.276 -2.684 23.276 -5.673 V-64.787 Q23.276 -67.776 24.952 -69.453 Q26.629 -71.129 29.618 -71.129 H48.773 Q49.964 -71.129 51.133 -70.694 Q52.302 -70.257 53.272 -69.248 L69.561 -52.732 Q70.532 -51.761 70.969 -50.641 Q71.404 -49.522 71.404 -48.271 V-5.673 Q71.404 -2.684 69.728 -1.007 Q68.051 0.67 65.062 0.67 H29.618 Z M43.592 -66.001 H29.618 Q29.086 -66.001 28.745 -65.641 Q28.404 -65.28 28.404 -64.787 V-5.673 Q28.404 -5.141 28.745 -4.8 Q29.086 -4.459 29.618 -4.459 H65.062 Q65.555 -4.459 65.916 -4.8 Q66.276 -5.141 66.276 -5.673 V-45.343 H52.916 Q49.047 -45.343 46.319 -48.108 Q43.592 -50.874 43.592 -54.818 V-66.001 Z M48.721 -65.409 V-54.771 Q48.721 -53.036 49.912 -51.754 Q51.104 -50.472 52.916 -50.472 H63.317 V-51.686 L49.859 -65.409 H48.721 Z M39.359 -13.191 Q38.267 -13.191 37.531 -13.921 Q36.795 -14.652 36.795 -15.735 Q36.795 -16.818 37.531 -17.568 Q38.267 -18.32 39.359 -18.32 H48.524 Q49.615 -18.32 50.351 -17.589 Q51.088 -16.859 51.088 -15.776 Q51.088 -14.693 50.351 -13.942 Q49.615 -13.191 48.524 -13.191 H39.359 Z M39.359 -26.976 Q38.267 -26.976 37.531 -27.706 Q36.795 -28.437 36.795 -29.52 Q36.795 -30.603 37.531 -31.353 Q38.267 -32.105 39.359 -32.105 H55.283 Q56.375 -32.105 57.111 -31.374 Q57.848 -30.644 57.848 -29.561 Q57.848 -28.478 57.111 -27.727 Q56.375 -26.976 55.283 -26.976 H39.359 Z"/></g><g id="Thin-S" transform="matrix(1 0 0 1 814.015 696)"><path d="M30.832 -1.303 Q28.108 -1.303 26.678 -2.733 Q25.248 -4.163 25.248 -6.887 V-63.573 Q25.248 -66.297 26.678 -67.727 Q28.108 -69.157 30.832 -69.157 H48.393 Q49.434 -69.157 50.488 -68.777 Q51.543 -68.399 52.4 -67.466 L67.817 -51.594 Q68.674 -50.737 69.052 -49.769 Q69.432 -48.802 69.432 -47.702 V-6.887 Q69.432 -4.163 68.002 -2.733 Q66.572 -1.303 63.848 -1.303 H30.832 Z M44.579 -66.001 H30.832 Q29.77 -66.001 29.086 -65.28 Q28.404 -64.559 28.404 -63.573 V-6.887 Q28.404 -5.825 29.086 -5.141 Q29.77 -4.459 30.832 -4.459 H63.848 Q64.834 -4.459 65.555 -5.141 Q66.276 -5.825 66.276 -6.887 V-45.988 H52.575 Q49.275 -45.988 46.927 -48.411 Q44.579 -50.835 44.579 -54.287 V-66.001 Z M47.735 -65.409 V-54.24 Q47.735 -52.201 49.097 -50.673 Q50.459 -49.144 52.575 -49.144 H63.317 V-51.571 L50.011 -65.409 H47.735 Z M39.662 -14.823 Q38.988 -14.823 38.536 -15.268 Q38.084 -15.714 38.084 -16.38 Q38.084 -17.046 38.536 -17.512 Q38.988 -17.979 39.662 -17.979 H48.524 Q49.198 -17.979 49.65 -17.533 Q50.102 -17.087 50.102 -16.421 Q50.102 -15.756 49.65 -15.289 Q49.198 -14.823 48.524 -14.823 H39.662 Z M39.662 -28.19 Q38.988 -28.19 38.536 -28.636 Q38.084 -29.082 38.084 -29.746 Q38.084 -30.412 38.536 -30.879 Q38.988 -31.346 39.662 -31.346 H54.942 Q55.617 -31.346 56.068 -30.9 Q56.52 -30.454 56.52 -29.789 Q56.52 -29.123 56.068 -28.657 Q55.617 -28.19 54.942 -28.19 H39.662 Z"/></g><g id="Ultralight-S" transform="matrix(1 0 0 1 517.792 696)"><path d="M31.56 -2.486 Q28.996 -2.486 27.714 -3.769 Q26.431 -5.051 26.431 -7.615 V-62.845 Q26.431 -65.409 27.714 -66.691 Q28.996 -67.973 31.56 -67.973 H48.165 Q49.115 -67.973 50.102 -67.628 Q51.088 -67.283 51.877 -66.395 L66.769 -50.911 Q67.558 -50.122 67.903 -49.246 Q68.249 -48.369 68.249 -47.361 V-7.615 Q68.249 -5.051 66.966 -3.769 Q65.684 -2.486 63.12 -2.486 H31.56 Z M45.17 -66.001 H31.56 Q30.179 -66.001 29.292 -65.064 Q28.404 -64.127 28.404 -62.845 V-7.615 Q28.404 -6.234 29.292 -5.347 Q30.179 -4.459 31.56 -4.459 H63.12 Q64.402 -4.459 65.339 -5.347 Q66.276 -6.234 66.276 -7.615 V-46.375 H52.37 Q49.411 -46.375 47.291 -48.594 Q45.17 -50.813 45.17 -53.969 V-66.001 Z M47.143 -65.409 V-53.921 Q47.143 -51.7 48.607 -50.024 Q50.072 -48.347 52.37 -48.347 H63.317 V-51.503 L50.102 -65.409 H47.143 Z M39.845 -15.801 Q39.42 -15.801 39.139 -16.076 Q38.858 -16.351 38.858 -16.766 Q38.858 -17.182 39.139 -17.477 Q39.42 -17.773 39.845 -17.773 H48.524 Q48.948 -17.773 49.229 -17.498 Q49.51 -17.223 49.51 -16.808 Q49.51 -16.393 49.229 -16.097 Q48.948 -15.801 48.524 -15.801 H39.845 Z M39.845 -28.918 Q39.42 -28.918 39.139 -29.193 Q38.858 -29.468 38.858 -29.884 Q38.858 -30.299 39.139 -30.595 Q39.42 -30.89 39.845 -30.89 H54.737 Q55.161 -30.89 55.442 -30.615 Q55.723 -30.34 55.723 -29.925 Q55.723 -29.51 55.442 -29.214 Q55.161 -28.918 54.737 -28.918 H39.845 Z"/></g></g></svg>