<?xml version="1.0" encoding="UTF-8"?>
<!--Generator: Apple Native CoreSVG 232.5-->
<!DOCTYPE svg
PUBLIC "-//W3C//DTD SVG 1.1//EN"
       "http://www.w3.org/Graphics/SVG/1.1/DTD/svg11.dtd">
<svg version="1.1" xmlns="http://www.w3.org/2000/svg" xmlns:xlink="http://www.w3.org/1999/xlink" width="3300" height="2200">
 <!--glyph: "uni100A38.medium", point size: 100.0, font version: "19.2d2e1", template writer version: "128"-->
 <style>.SFSymbolsPreviewWireframe {fill:none;opacity:1.0;stroke:black;stroke-width:0.5}
</style>
 <g id="Notes">
  <rect height="2200" id="artboard" style="fill:white;opacity:1" width="3300" x="0" y="0"/>
  <line style="fill:none;stroke:black;opacity:1;stroke-width:0.5;" x1="263" x2="3036" y1="292" y2="292"/>
  <text style="stroke:none;fill:black;font-family:sans-serif;font-size:13;font-weight:bold;" transform="matrix(1 0 0 1 263 322)">Weight/Scale Variations</text>
  <text style="stroke:none;fill:black;font-family:sans-serif;font-size:13;text-anchor:middle;" transform="matrix(1 0 0 1 559.711 322)">Ultralight</text>
  <text style="stroke:none;fill:black;font-family:sans-serif;font-size:13;text-anchor:middle;" transform="matrix(1 0 0 1 856.422 322)">Thin</text>
  <text style="stroke:none;fill:black;font-family:sans-serif;font-size:13;text-anchor:middle;" transform="matrix(1 0 0 1 1153.13 322)">Light</text>
  <text style="stroke:none;fill:black;font-family:sans-serif;font-size:13;text-anchor:middle;" transform="matrix(1 0 0 1 1449.84 322)">Regular</text>
  <text style="stroke:none;fill:black;font-family:sans-serif;font-size:13;text-anchor:middle;" transform="matrix(1 0 0 1 1746.56 322)">Medium</text>
  <text style="stroke:none;fill:black;font-family:sans-serif;font-size:13;text-anchor:middle;" transform="matrix(1 0 0 1 2043.27 322)">Semibold</text>
  <text style="stroke:none;fill:black;font-family:sans-serif;font-size:13;text-anchor:middle;" transform="matrix(1 0 0 1 2339.98 322)">Bold</text>
  <text style="stroke:none;fill:black;font-family:sans-serif;font-size:13;text-anchor:middle;" transform="matrix(1 0 0 1 2636.69 322)">Heavy</text>
  <text style="stroke:none;fill:black;font-family:sans-serif;font-size:13;text-anchor:middle;" transform="matrix(1 0 0 1 2933.4 322)">Black</text>
  <line style="fill:none;stroke:black;opacity:1;stroke-width:0.5;" x1="263" x2="3036" y1="1903" y2="1903"/>
  <g transform="matrix(0.2 0 0 0.2 263 1933)">
   <path d="m46.2402 4.15039c21.5332 0 39.4531-17.8711 39.4531-39.4043s-17.9688-39.4043-39.502-39.4043c-21.4844 0-39.3555 17.8711-39.3555 39.4043s17.9199 39.4043 39.4043 39.4043Zm0-7.42188c-17.7246 0-31.8848-14.209-31.8848-31.9824s14.1113-31.9824 31.8359-31.9824c17.7734 0 32.0312 14.209 32.0312 31.9824s-14.209 31.9824-31.9824 31.9824Zm-17.9688-31.9824c0 2.14844 1.51367 3.61328 3.75977 3.61328h10.498v10.5957c0 2.19727 1.46484 3.71094 3.61328 3.71094 2.24609 0 3.71094-1.51367 3.71094-3.71094v-10.5957h10.5957c2.19727 0 3.71094-1.46484 3.71094-3.61328 0-2.19727-1.51367-3.71094-3.71094-3.71094h-10.5957v-10.5469c0-2.24609-1.46484-3.75977-3.71094-3.75977-2.14844 0-3.61328 1.51367-3.61328 3.75977v10.5469h-10.498c-2.24609 0-3.75977 1.51367-3.75977 3.71094Z"/>
  </g>
  <g transform="matrix(0.2 0 0 0.2 281.506 1933)">
   <path d="m58.5449 14.5508c27.2461 0 49.8047-22.6074 49.8047-49.8047 0-27.2461-22.6074-49.8047-49.8535-49.8047-27.1973 0-49.7559 22.5586-49.7559 49.8047 0 27.1973 22.6074 49.8047 49.8047 49.8047Zm0-8.30078c-23.0469 0-41.4551-18.457-41.4551-41.5039s18.3594-41.5039 41.4062-41.5039 41.5527 18.457 41.5527 41.5039-18.457 41.5039-41.5039 41.5039Zm-22.6562-41.5039c0 2.39258 1.66016 4.00391 4.15039 4.00391h14.3555v14.4043c0 2.44141 1.66016 4.15039 4.05273 4.15039 2.44141 0 4.15039-1.66016 4.15039-4.15039v-14.4043h14.4043c2.44141 0 4.15039-1.61133 4.15039-4.00391 0-2.44141-1.70898-4.15039-4.15039-4.15039h-14.4043v-14.3555c0-2.49023-1.70898-4.19922-4.15039-4.19922-2.39258 0-4.05273 1.70898-4.05273 4.19922v14.3555h-14.3555c-2.49023 0-4.15039 1.70898-4.15039 4.15039Z"/>
  </g>
  <g transform="matrix(0.2 0 0 0.2 304.924 1933)">
   <path d="m74.8535 28.3203c34.8145 0 63.623-28.8086 63.623-63.5742 0-34.8145-28.8574-63.623-63.6719-63.623-34.7656 0-63.5254 28.8086-63.5254 63.623 0 34.7656 28.8086 63.5742 63.5742 63.5742Zm0-9.08203c-30.1758 0-54.4434-24.3164-54.4434-54.4922 0-30.2246 24.2188-54.4922 54.3945-54.4922 30.2246 0 54.541 24.2676 54.541 54.4922 0 30.1758-24.2676 54.4922-54.4922 54.4922Zm-28.8574-54.4922c0 2.58789 1.85547 4.39453 4.58984 4.39453h19.7266v19.7754c0 2.68555 1.85547 4.58984 4.44336 4.58984 2.68555 0 4.54102-1.85547 4.54102-4.58984v-19.7754h19.7754c2.68555 0 4.58984-1.80664 4.58984-4.39453 0-2.73438-1.85547-4.58984-4.58984-4.58984h-19.7754v-19.7266c0-2.73438-1.85547-4.63867-4.54102-4.63867-2.58789 0-4.44336 1.9043-4.44336 4.63867v19.7266h-19.7266c-2.73438 0-4.58984 1.85547-4.58984 4.58984Z"/>
  </g>
  <text style="stroke:none;fill:black;font-family:sans-serif;font-size:13;font-weight:bold;" transform="matrix(1 0 0 1 263 1953)">Design Variations</text>
  <text style="stroke:none;fill:black;font-family:sans-serif;font-size:13;" transform="matrix(1 0 0 1 263 1971)">Symbols are supported in up to nine weights and three scales.</text>
  <text style="stroke:none;fill:black;font-family:sans-serif;font-size:13;" transform="matrix(1 0 0 1 263 1989)">For optimal layout with text and other symbols, vertically align</text>
  <text style="stroke:none;fill:black;font-family:sans-serif;font-size:13;" transform="matrix(1 0 0 1 263 2007)">symbols with the adjacent text.</text>
  <line style="fill:none;stroke:#00AEEF;stroke-width:0.5;opacity:1.0;" x1="776" x2="776" y1="1919" y2="1933"/>
  <g transform="matrix(0.2 0 0 0.2 776 1933)">
   <path d="m16.5527 0.78125c2.58789 0 3.85742-0.976562 4.78516-3.71094l6.29883-17.2363h28.8086l6.29883 17.2363c0.927734 2.73438 2.19727 3.71094 4.73633 3.71094 2.58789 0 4.24805-1.5625 4.24805-4.00391 0-0.830078-0.146484-1.61133-0.537109-2.63672l-22.9004-60.9863c-1.12305-2.97852-3.125-4.49219-6.25-4.49219-3.02734 0-5.07812 1.46484-6.15234 4.44336l-22.9004 61.084c-0.390625 1.02539-0.537109 1.80664-0.537109 2.63672 0 2.44141 1.5625 3.95508 4.10156 3.95508Zm13.4766-28.3691 11.8652-32.8613h0.244141l11.8652 32.8613Z"/>
  </g>
  <line style="fill:none;stroke:#00AEEF;stroke-width:0.5;opacity:1.0;" x1="792.836" x2="792.836" y1="1919" y2="1933"/>
  <text style="stroke:none;fill:black;font-family:sans-serif;font-size:13;font-weight:bold;" transform="matrix(1 0 0 1 776 1953)">Margins</text>
  <text style="stroke:none;fill:black;font-family:sans-serif;font-size:13;" transform="matrix(1 0 0 1 776 1971)">Leading and trailing margins on the left and right side of each symbol</text>
  <text style="stroke:none;fill:black;font-family:sans-serif;font-size:13;" transform="matrix(1 0 0 1 776 1989)">can be adjusted by modifying the x-location of the margin guidelines.</text>
  <text style="stroke:none;fill:black;font-family:sans-serif;font-size:13;" transform="matrix(1 0 0 1 776 2007)">Modifications are automatically applied proportionally to all</text>
  <text style="stroke:none;fill:black;font-family:sans-serif;font-size:13;" transform="matrix(1 0 0 1 776 2025)">scales and weights.</text>
  <g transform="matrix(0.2 0 0 0.2 1289 1933)">
   <path d="m14.209 9.32617 8.49609 8.54492c4.29688 4.3457 9.22852 4.05273 13.8672-1.07422l53.4668-58.9355-4.83398-4.88281-53.0762 58.3984c-1.75781 2.00195-3.41797 2.49023-5.76172 0.146484l-5.85938-5.81055c-2.34375-2.29492-1.80664-4.00391 0.195312-5.81055l57.373-54.0039-4.88281-4.83398-57.959 54.4434c-4.93164 4.58984-5.32227 9.47266-1.02539 13.8184Zm32.0801-90.9668c-2.09961 2.05078-2.24609 4.93164-1.07422 6.88477 1.17188 1.80664 3.4668 2.97852 6.68945 2.14844 7.32422-1.70898 14.9414-2.00195 22.0703 2.68555l-2.92969 7.27539c-1.70898 4.15039-0.830078 7.08008 1.85547 9.81445l11.4746 11.5723c2.44141 2.44141 4.49219 2.53906 7.32422 2.05078l5.32227-0.976562 3.32031 3.36914-0.195312 2.7832c-0.195312 2.49023 0.439453 4.39453 2.88086 6.78711l3.80859 3.71094c2.39258 2.39258 5.46875 2.53906 7.8125 0.195312l14.5508-14.5996c2.34375-2.34375 2.24609-5.32227-0.146484-7.71484l-3.85742-3.80859c-2.39258-2.39258-4.24805-3.17383-6.64062-2.97852l-2.88086 0.244141-3.22266-3.17383 1.2207-5.61523c0.634766-2.83203-0.146484-5.0293-3.07617-7.95898l-10.9863-10.9375c-16.6992-16.6016-38.8672-16.2109-53.3203-1.75781Zm7.4707 1.85547c12.1582-8.88672 28.6133-7.37305 39.7461 3.75977l12.1582 12.0605c1.17188 1.17188 1.36719 2.09961 1.02539 3.80859l-1.61133 7.42188 7.51953 7.42188 4.93164-0.292969c1.26953-0.0488281 1.66016 0.0488281 2.63672 1.02539l2.88086 2.88086-12.207 12.207-2.88086-2.88086c-0.976562-0.976562-1.12305-1.36719-1.07422-2.68555l0.341797-4.88281-7.4707-7.42188-7.61719 1.26953c-1.61133 0.341797-2.34375 0.195312-3.56445-0.976562l-10.0098-10.0098c-1.26953-1.17188-1.41602-2.00195-0.634766-3.85742l4.39453-10.4492c-7.8125-7.27539-17.9688-10.4004-28.125-7.42188-0.78125 0.195312-1.07422-0.439453-0.439453-0.976562Z"/>
  </g>
  <text style="stroke:none;fill:black;font-family:sans-serif;font-size:13;font-weight:bold;" transform="matrix(1 0 0 1 1289 1953)">Exporting</text>
  <text style="stroke:none;fill:black;font-family:sans-serif;font-size:13;" transform="matrix(1 0 0 1 1289 1971)">Symbols should be outlined when exporting to ensure the</text>
  <text style="stroke:none;fill:black;font-family:sans-serif;font-size:13;" transform="matrix(1 0 0 1 1289 1989)">design is preserved when submitting to Xcode.</text>
  <text id="template-version" style="stroke:none;fill:black;font-family:sans-serif;font-size:13;text-anchor:end;" transform="matrix(1 0 0 1 3036 1933)">Template v.5.0</text>
  <text style="stroke:none;fill:black;font-family:sans-serif;font-size:13;text-anchor:end;" transform="matrix(1 0 0 1 3036 1951)">Requires Xcode 15 or greater</text>
  <text id="descriptive-name" style="stroke:none;fill:black;font-family:sans-serif;font-size:13;text-anchor:end;" transform="matrix(1 0 0 1 3036 1969)">Generated from face.dashed.fill</text>
  <text style="stroke:none;fill:black;font-family:sans-serif;font-size:13;text-anchor:end;" transform="matrix(1 0 0 1 3036 1987)">Typeset at 100.0 points</text>
  <text style="stroke:none;fill:black;font-family:sans-serif;font-size:13;" transform="matrix(1 0 0 1 263 726)">Small</text>
  <text style="stroke:none;fill:black;font-family:sans-serif;font-size:13;" transform="matrix(1 0 0 1 263 1156)">Medium</text>
  <text style="stroke:none;fill:black;font-family:sans-serif;font-size:13;" transform="matrix(1 0 0 1 263 1586)">Large</text>
 </g>
 <g id="Guides">
  <g id="H-reference" style="fill:#27AAE1;stroke:none;" transform="matrix(1 0 0 1 339 696)">
   <path d="M0.993654 0L3.63775 0L29.3281-67.1323L30.0303-67.1323L30.0303-70.459L28.1226-70.459ZM11.6885-24.4799L46.9815-24.4799L46.2315-26.7285L12.4385-26.7285ZM55.1196 0L57.7637 0L30.6382-70.459L29.4326-70.459L29.4326-67.1323Z"/>
  </g>
  <line id="Baseline-S" style="fill:none;stroke:#27AAE1;opacity:1;stroke-width:0.5;" x1="263" x2="3036" y1="696" y2="696"/>
  <line id="Capline-S" style="fill:none;stroke:#27AAE1;opacity:1;stroke-width:0.5;" x1="263" x2="3036" y1="625.541" y2="625.541"/>
  <g id="H-reference" style="fill:#27AAE1;stroke:none;" transform="matrix(1 0 0 1 339 1126)">
   <path d="M0.993654 0L3.63775 0L29.3281-67.1323L30.0303-67.1323L30.0303-70.459L28.1226-70.459ZM11.6885-24.4799L46.9815-24.4799L46.2315-26.7285L12.4385-26.7285ZM55.1196 0L57.7637 0L30.6382-70.459L29.4326-70.459L29.4326-67.1323Z"/>
  </g>
  <line id="Baseline-M" style="fill:none;stroke:#27AAE1;opacity:1;stroke-width:0.5;" x1="263" x2="3036" y1="1126" y2="1126"/>
  <line id="Capline-M" style="fill:none;stroke:#27AAE1;opacity:1;stroke-width:0.5;" x1="263" x2="3036" y1="1055.54" y2="1055.54"/>
  <g id="H-reference" style="fill:#27AAE1;stroke:none;" transform="matrix(1 0 0 1 339 1556)">
   <path d="M0.993654 0L3.63775 0L29.3281-67.1323L30.0303-67.1323L30.0303-70.459L28.1226-70.459ZM11.6885-24.4799L46.9815-24.4799L46.2315-26.7285L12.4385-26.7285ZM55.1196 0L57.7637 0L30.6382-70.459L29.4326-70.459L29.4326-67.1323Z"/>
  </g>
  <line id="Baseline-L" style="fill:none;stroke:#27AAE1;opacity:1;stroke-width:0.5;" x1="263" x2="3036" y1="1556" y2="1556"/>
  <line id="Capline-L" style="fill:none;stroke:#27AAE1;opacity:1;stroke-width:0.5;" x1="263" x2="3036" y1="1485.54" y2="1485.54"/>
  <line id="left-margin-Regular-M" style="fill:none;stroke:#00AEEF;stroke-width:0.5;opacity:1.0;" x1="1391.32" x2="1391.32" y1="1030.79" y2="1150.12"/>
  <line id="right-margin-Regular-M" style="fill:none;stroke:#00AEEF;stroke-width:0.5;opacity:1.0;" x1="1508.37" x2="1508.37" y1="1030.79" y2="1150.12"/>
 </g>
 <g id="Symbols">
  <g id="Black-L" transform="matrix(1 0 0 1 2854.19 1556)">
   <path class="SFSymbolsPreviewWireframe" d="M31.4468-35.2697C31.4468-39.7681 32.0829-44.1044 33.214-48.2115L14.5048-55.9992C12.4091-49.4255 11.2588-42.4683 11.2588-35.2697C11.2588-28.0712 12.4091-21.1139 14.5256-14.5402L33.214-22.3267C32.0841-26.4338 31.4468-30.7713 31.4468-35.2697ZM55.837-77.0008L48.0922-95.6244C35.5799-89.1204 25.323-78.8635 18.819-66.3721L37.4647-58.5856C41.7618-66.3285 48.115-72.6817 55.837-77.0008ZM79.175-83.0592C83.6733-83.0592 88.0097-82.4022 92.1388-81.2723L99.9044-99.9399C93.3516-102.056 86.3943-103.207 79.175-103.207C71.9764-103.207 64.9983-102.056 58.4455-99.9399L66.2332-81.2723C70.3403-82.4034 74.6766-83.0592 79.175-83.0592ZM120.906-58.6064L139.573-66.3721C133.048-78.8647 122.79-89.1216 110.277-95.6464L102.512-77.0008C110.235-72.7025 116.629-66.3505 120.906-58.6064ZM126.985-35.2697C126.985-30.7713 126.349-26.4338 125.219-22.3059L143.866-14.5402C146.003-21.093 147.154-28.0712 147.154-35.2697C147.154-42.4683 146.003-49.4452 143.866-55.998L125.2-48.2323C126.35-44.1044 126.985-39.7681 126.985-35.2697ZM102.512 6.46143L110.277 25.107C122.79 18.5822 133.069 8.32533 139.571-4.1661L120.927-11.9318C116.649-4.18894 110.256 2.16312 102.512 6.46143ZM79.1958 12.5197C74.6766 12.5197 70.3403 11.864 66.2332 10.7329L58.4663 29.4005C65.0191 31.517 71.9972 32.6673 79.1958 32.6673C86.4152 32.6673 93.3713 31.5182 99.9241 29.4213L92.1364 10.7549C88.0085 11.864 83.693 12.5197 79.1958 12.5197ZM37.4855-11.9318L18.8202-4.1661C25.3451 8.32533 35.5811 18.5822 48.0934 25.0862L55.8382 6.44061C48.115 2.1423 41.763-4.20975 37.4855-11.9318ZM79.1542 0.727526C98.9289 0.727526 115.172-15.5158 115.151-35.2697C115.131-55.0236 98.8872-71.2669 79.1333-71.2669C59.3794-71.2669 43.1777-55.0444 43.1777-35.2697C43.1777-15.495 59.4003 0.727526 79.1542 0.727526ZM78.8829-12.8848C68.4751-12.8848 61.567-19.7525 61.567-23.0574C61.567-24.3774 62.8857-24.9915 64.1177-24.4518C67.7238-22.6146 71.8092-20.5637 78.8829-20.5637C85.9775-20.5637 89.9472-22.7886 93.669-24.4518C94.9218-24.9331 96.2197-24.3774 96.2197-23.0574C96.2197-19.7525 89.274-12.8848 78.8829-12.8848ZM64.8099-40.0342C61.7654-40.0342 59.2595-42.7225 59.2595-46.4179C59.2595-50.2134 61.7642-52.9017 64.8099-52.9017C67.7387-52.9017 70.3822-50.2134 70.3822-46.4179C70.3822-42.7225 67.7375-40.0342 64.8099-40.0342ZM92.9977-40.0342C89.9532-40.0342 87.4461-42.7225 87.4461-46.4179C87.4461-50.2134 89.952-52.9017 92.9977-52.9017C95.9849-52.9017 98.6272-50.2134 98.6272-46.4179C98.6272-42.7225 95.9837-40.0342 92.9977-40.0342Z"/>
  </g>
  <g id="Heavy-L" transform="matrix(1 0 0 1 2558.42 1556)">
   <path class="SFSymbolsPreviewWireframe" d="M29.0554-35.2697C29.0554-40.0863 29.7594-44.7365 31.0312-49.1072L14.5451-55.97C12.4317-49.4057 11.2588-42.4584 11.2588-35.2697C11.2588-28.0811 12.4317-21.1337 14.5752-14.5694L31.0312-21.4266C29.765-25.7973 29.0554-30.4531 29.0554-35.2697ZM54.6232-78.5269L47.8264-94.881C35.302-88.441 25.0461-78.1852 18.6061-65.6909L34.9961-58.8337C39.5028-67.1722 46.3149-73.9844 54.6232-78.5269ZM78.2231-84.5223C83.0397-84.5223 87.6898-83.7881 92.0963-82.522L98.9233-98.9477C92.3893-101.091 85.4419-102.264 78.2231-102.264C71.0344-102.264 64.0568-101.091 57.5228-98.9477L64.3856-82.522C68.7563-83.7937 73.4064-84.5223 78.2231-84.5223ZM121.48-58.8639L137.9-65.6909C131.43-78.1908 121.169-88.4466 108.644-94.9168L101.817-78.5269C110.131-74.0146 116.998-67.208 121.48-58.8639ZM127.506-35.2697C127.506-30.4531 126.802-25.7973 125.536-21.3964L141.931-14.5694C144.105-21.1035 145.278-28.0811 145.278-35.2697C145.278-42.4584 144.105-49.4303 141.931-55.9644L125.511-49.1374C126.807-44.7365 127.506-40.0863 127.506-35.2697ZM101.817 7.98746L108.644 24.3774C121.169 17.9072 131.46 7.65138 137.895-4.84287L121.51-11.6699C117.028-3.33138 110.161 3.47516 101.817 7.98746ZM78.2532 13.9829C73.4064 13.9829 68.7563 13.2543 64.3856 11.9825L57.553 28.4083C64.087 30.5519 71.0646 31.7248 78.2532 31.7248C85.4721 31.7248 92.4139 30.5575 98.9479 28.4385L92.0851 12.0183C87.6842 13.2543 83.0642 13.9829 78.2532 13.9829ZM35.0263-11.6699L18.6117-4.84287C25.0819 7.65138 35.3076 17.9072 47.832 24.3472L54.6288 7.95728C46.3149 3.44497 39.5084-3.36156 35.0263-11.6699ZM78.1929 2.82568C99.1904 2.82568 116.318-14.3024 116.288-35.2697C116.258-56.237 99.13-73.3651 78.1627-73.3651C57.1954-73.3651 40.1277-56.2672 40.1277-35.2697C40.1277-14.2722 57.2256 2.82568 78.1929 2.82568ZM77.9999-11.9312C67.387-11.9312 60.2924-18.971 60.2924-22.331C60.2924-23.6388 61.5946-24.2126 62.7592-23.6911C66.4397-21.738 70.7221-19.5784 77.9999-19.5784C85.308-19.5784 89.5067-21.8663 93.2709-23.6911C94.4657-24.168 95.7377-23.6388 95.7377-22.331C95.7377-18.971 88.6287-11.9312 77.9999-11.9312ZM63.4023-40.3094C60.279-40.3094 57.6717-43.0842 57.6717-46.9136C57.6717-50.848 60.2734-53.6229 63.4023-53.6229C66.4419-53.6229 69.1686-50.848 69.1686-46.9136C69.1686-43.0842 66.4363-40.3094 63.4023-40.3094ZM92.658-40.3094C89.5348-40.3094 86.9218-43.0842 86.9218-46.9136C86.9218-50.848 89.5291-53.6229 92.658-53.6229C95.7422-53.6229 98.4634-50.848 98.4634-46.9136C98.4634-43.0842 95.7366-40.3094 92.658-40.3094Z"/>
  </g>
  <g id="Bold-L" transform="matrix(1 0 0 1 2262.89 1556)">
   <path class="SFSymbolsPreviewWireframe" d="M26.0672-35.2697C26.0672-40.4932 26.8631-45.5426 28.319-50.251L14.6062-55.9615C12.4623-49.405 11.2588-42.458 11.2588-35.2697C11.2588-28.0814 12.4623-21.1344 14.6442-14.578L28.319-20.2751C26.8764-24.9836 26.0672-30.0462 26.0672-35.2697ZM53.1396-80.432L47.5184-93.9664C34.9562-87.6033 24.6855-77.3326 18.3224-64.8085L31.9081-59.1113C36.676-68.2098 44.0791-75.6129 53.1396-80.432ZM77.0324-86.3357C82.2559-86.3357 87.3053-85.5017 92.0649-84.0591L97.7242-97.6959C91.2057-99.8778 84.2587-101.081 77.0324-101.081C69.8441-101.081 62.8591-99.8778 56.3407-97.6959L62.0511-84.0591C66.7595-85.5149 71.8089-86.3357 77.0324-86.3357ZM122.195-59.1493L135.818-64.8085C129.417-77.3459 119.133-87.6166 106.571-94.0177L100.912-80.432C109.986-75.6509 117.452-68.261 122.195-59.1493ZM128.136-35.2697C128.136-30.0462 127.34-24.9836 125.898-20.2372L139.497-14.578C141.716-21.0964 142.92-28.0814 142.92-35.2697C142.92-42.458 141.716-49.4298 139.497-55.9482L125.873-50.289C127.354-45.5426 128.136-40.4932 128.136-35.2697ZM100.912 9.89262L106.571 23.4782C119.133 17.0772 129.455 6.80646 135.805-5.7177L122.233-11.3769C117.49-2.27839 110.024 5.11149 100.912 9.89262ZM77.0704 15.7963C71.8089 15.7963 66.7595 14.9755 62.0511 13.5197L56.3786 27.1565C62.8971 29.3383 69.8821 30.5419 77.0704 30.5419C84.2967 30.5419 91.2305 29.3516 97.7489 27.1945L92.0385 13.5709C87.292 14.9755 82.2806 15.7963 77.0704 15.7963ZM31.9461-11.3769L18.3357-5.7177C24.7368 6.80646 34.9695 17.0772 47.5316 23.4403L53.1528 9.85463C44.0791 5.0735 36.6892-2.31637 31.9461-11.3769ZM76.9944 5.54214C99.5579 5.54214 117.844-12.7443 117.806-35.2697C117.768-57.7952 99.4819-76.0815 76.9564-76.0815C54.431-76.0815 36.2206-57.8331 36.2206-35.2697C36.2206-12.7063 54.469 5.54214 76.9944 5.54214ZM76.8864-10.6957C66.0198-10.6957 58.6873-17.9655 58.6873-21.3872C58.6873-22.6573 59.9441-23.17 61.0093-22.6716C64.7597-20.5353 69.3401-18.23 76.8864-18.23C84.4707-18.23 89.0058-20.6097 92.8014-22.6716C93.9046-23.1408 95.1235-22.6573 95.1235-21.3872C95.1235-17.9655 87.7997-10.6957 76.8864-10.6957ZM61.576-40.6252C58.3753-40.6252 55.6599-43.5076 55.6599-47.4761C55.6599-51.5498 58.3621-54.4323 61.576-54.4323C64.7316-54.4323 67.5434-51.5498 67.5434-47.4761C67.5434-43.5076 64.7184-40.6252 61.576-40.6252ZM92.2727-40.6252C89.072-40.6252 86.3433-43.5076 86.3433-47.4761C86.3433-51.5498 89.0588-54.4323 92.2727-54.4323C95.4574-54.4323 98.2561-51.5498 98.2561-47.4761C98.2561-43.5076 95.4442-40.6252 92.2727-40.6252Z"/>
  </g>
  <g id="Semibold-L" transform="matrix(1 0 0 1 1966.99 1556)">
   <path class="SFSymbolsPreviewWireframe" d="M24.0071-35.2697C24.0071-40.7737 24.8665-46.0983 26.4492-51.0396L14.6483-55.9556C12.4835-49.4045 11.2588-42.4577 11.2588-35.2697C11.2588-28.0817 12.4835-21.1349 14.6917-14.5838L26.4492-19.4813C24.8849-24.4226 24.0071-29.7657 24.0071-35.2697ZM52.1168-81.7454L47.306-93.3359C34.7179-87.0258 24.437-76.7449 18.1269-64.2001L29.7792-59.3026C34.7272-68.9251 42.5377-76.7356 52.1168-81.7454ZM76.2116-87.5858C81.7155-87.5858 87.0402-86.6831 92.0433-85.1188L96.8974-96.833C90.3897-99.0412 83.443-100.266 76.2116-100.266C69.0236-100.266 62.0334-99.0412 55.5257-96.833L60.4417-85.1188C65.383-86.7015 70.7076-87.5858 76.2116-87.5858ZM122.687-59.346L134.383-64.2001C128.03-76.7634 117.73-87.0443 105.142-93.3978L100.288-81.7454C109.885-76.779 117.764-68.9869 122.687-59.346ZM128.571-35.2697C128.571-29.7657 127.712-24.4226 126.147-19.438L137.818-14.5838C140.07-21.0915 141.294-28.0817 141.294-35.2697C141.294-42.4577 140.07-49.4294 137.818-55.9371L126.122-51.0829C127.73-46.0983 128.571-40.7737 128.571-35.2697ZM100.288 11.206L105.142 22.8584C117.73 16.5049 128.073 6.22397 134.365-6.32081L122.731-11.1749C117.808-1.55246 109.929 6.23957 100.288 11.206ZM76.2549 17.0464C70.7076 17.0464 65.383 16.1621 60.4417 14.5794L55.5691 26.2936C62.0768 28.5018 69.0669 29.7265 76.2549 29.7265C83.4863 29.7265 90.4146 28.5202 96.9223 26.3369L92.0063 14.6412C87.0217 16.1621 81.7404 17.0464 76.2549 17.0464ZM29.8226-11.1749L18.1454-6.32081C24.4988 6.22397 34.7364 16.5049 47.3245 22.815L52.1353 11.1627C42.5377 6.1962 34.7457-1.59583 29.8226-11.1749ZM76.1682 7.41486C99.8112 7.41486 118.896-11.6701 118.853-35.2697C118.809-58.8693 99.7245-77.9543 76.1248-77.9543C52.5252-77.9543 33.527-58.9127 33.527-35.2697C33.527-11.6267 52.5686 7.41486 76.1682 7.41486ZM76.1187-9.84403C65.0773-9.84403 57.5807-17.2724 57.5807-20.7366C57.5807-21.9807 58.8063-22.4513 59.803-21.9687C63.6016-19.7061 68.3873-17.3005 76.1187-17.3005C83.8935-17.3005 88.6606-19.7434 92.4778-21.9687C93.5179-22.4327 94.7001-21.9807 94.7001-20.7366C94.7001-17.2724 87.2283-9.84403 76.1187-9.84403ZM60.3171-40.8429C57.0629-40.8429 54.273-43.7995 54.273-47.8639C54.273-52.0337 57.0445-54.9903 60.3171-54.9903C63.5525-54.9903 66.423-52.0337 66.423-47.8639C66.423-43.7995 63.534-40.8429 60.3171-40.8429ZM92.0071-40.8429C88.753-40.8429 85.9445-43.7995 85.9445-47.8639C85.9445-52.0337 88.7345-54.9903 92.0071-54.9903C95.2611-54.9903 98.1131-52.0337 98.1131-47.8639C98.1131-43.7995 95.2426-40.8429 92.0071-40.8429Z"/>
  </g>
  <g id="Medium-L" transform="matrix(1 0 0 1 1670.9 1556)">
   <path class="SFSymbolsPreviewWireframe" d="M22.4451-35.2697C22.4451-40.9863 23.3525-46.5197 25.0315-51.6375L14.6803-55.9511C12.4995-49.4041 11.2588-42.4575 11.2588-35.2697C11.2588-28.0819 12.4995-21.1353 14.7277-14.5883L25.0315-18.8794C23.375-23.9973 22.4451-29.5531 22.4451-35.2697ZM51.3413-82.7413L47.145-92.8578C34.5372-86.588 24.2485-76.2993 17.9786-63.7388L28.165-59.4477C33.2495-69.4675 41.369-77.5869 51.3413-82.7413ZM75.5892-88.5337C81.3058-88.5337 86.8391-87.5788 92.0269-85.9223L96.2706-96.1786C89.771-98.4068 82.8245-99.6475 75.5892-99.6475C68.4014-99.6475 61.4073-98.4068 54.9078-96.1786L59.2214-85.9223C64.3392-87.6013 69.8726-88.5337 75.5892-88.5337ZM123.061-59.4951L133.295-63.7388C126.977-76.3217 116.666-86.6104 104.058-92.9278L99.8146-82.7413C109.809-77.6343 118.001-69.5374 123.061-59.4951ZM128.901-35.2697C128.901-29.5531 127.993-23.9973 126.337-18.832L136.546-14.5883C138.821-21.0879 140.062-28.0819 140.062-35.2697C140.062-42.4575 138.821-49.4291 136.546-55.9286L126.312-51.6849C128.016-46.5197 128.901-40.9863 128.901-35.2697ZM99.8146 12.2019L104.058 22.3884C116.666 16.071 127.025 5.78231 133.272-6.77811L123.108-11.0218C118.049-1.00204 109.857 7.09493 99.8146 12.2019ZM75.6366 17.9943C69.8726 17.9943 64.3392 17.0619 59.2214 15.3829L54.9552 25.6392C61.4548 27.8674 68.4488 29.1081 75.6366 29.1081C82.8719 29.1081 89.796 27.8899 96.2956 25.6867L91.982 15.4528C86.8167 17.0619 81.3308 17.9943 75.6366 17.9943ZM28.2125-11.0218L18.001-6.77811C24.3184 5.78231 34.5596 16.071 47.1675 22.3409L51.3637 12.1545C41.369 7.04748 33.272-1.04948 28.2125-11.0218ZM75.5417 8.83482C100.003 8.83482 119.694-10.8556 119.646-35.2697C119.599-59.6838 99.9084-79.3742 75.4943-79.3742C51.0802-79.3742 31.4847-59.7312 31.4847-35.2697C31.4847-10.8082 51.1277 8.83482 75.5417 8.83482ZM75.5366-9.19824C64.3627-9.19824 56.7417-16.7468 56.7417-20.2433C56.7417-21.4676 57.9436-21.9063 58.8883-21.4357C62.7234-19.0774 67.6649-16.5956 75.5366-16.5956C83.4558-16.5956 88.3988-19.0865 92.2324-21.4357C93.2246-21.8958 94.379-21.4676 94.379-20.2433C94.379-16.7468 86.795-9.19824 75.5366-9.19824ZM59.3625-41.008C56.0678-41.008 53.2213-44.0208 53.2213-48.158C53.2213-52.4006 56.0454-55.4134 59.3625-55.4134C62.6585-55.4134 65.5735-52.4006 65.5735-48.158C65.5735-44.0208 62.636-41.008 59.3625-41.008ZM91.8057-41.008C88.5111-41.008 85.6421-44.0208 85.6421-48.158C85.6421-52.4006 88.4886-55.4134 91.8057-55.4134C95.1122-55.4134 98.0048-52.4006 98.0048-48.158C98.0048-44.0208 95.0898-41.008 91.8057-41.008Z"/>
  </g>
  <g id="Regular-L" transform="matrix(1 0 0 1 1374.99 1556)">
   <path class="SFSymbolsPreviewWireframe" d="M20.4076-35.2697C20.4076-41.2637 21.3778-47.0693 23.1823-52.4174L14.7219-55.9453C12.5204-49.4036 11.2588-42.4573 11.2588-35.2697C11.2588-28.0821 12.5204-21.1358 14.7747-14.5941L23.1823-18.0944C21.4054-23.4425 20.4076-29.2757 20.4076-35.2697ZM50.3297-84.0403L46.935-92.2343C34.3014-86.0168 24.0026-75.718 17.7852-63.1372L26.0596-59.6369C31.3222-70.1749 39.8445-78.6972 50.3297-84.0403ZM74.7774-89.7701C80.7714-89.7701 86.5769-88.7472 92.0055-86.9703L95.453-95.3251C88.964-97.5794 82.0177-98.8411 74.7774-98.8411C67.5898-98.8411 60.5907-97.5794 54.1018-95.3251L57.6297-86.9703C62.9778-88.7748 68.7834-89.7701 74.7774-89.7701ZM123.548-59.6897L131.875-63.1372C125.605-75.7456 115.278-86.0445 102.645-92.3147L99.1974-84.0403C109.71-78.75 118.31-70.2553 123.548-59.6897ZM129.331-35.2697C129.331-29.2757 128.36-23.4425 126.584-18.0416L134.886-14.5941C137.193-21.083 138.454-28.0821 138.454-35.2697C138.454-42.4573 137.193-49.4287 134.886-55.9176L126.558-52.4702C128.388-47.0693 129.331-41.2637 129.331-35.2697ZM99.1974 13.5009L102.645 21.7753C115.278 15.5051 125.658 5.20623 131.847-7.37458L123.601-10.822C118.363-0.284092 109.763 8.21061 99.1974 13.5009ZM74.8301 19.2307C68.7834 19.2307 62.9778 18.2354 57.6297 16.4309L54.1546 24.7857C60.6435 27.04 67.6426 28.3017 74.8301 28.3017C82.0705 28.3017 88.9892 27.0677 95.4781 24.8385L91.9502 16.5113C86.5493 18.2354 80.7965 19.2307 74.8301 19.2307ZM26.1123-10.822L17.8128-7.37458C24.083 5.20623 34.3291 15.5051 46.9627 21.7225L50.3574 13.4481C39.8445 8.15784 31.3498-0.336855 26.1123-10.822ZM74.7246 10.687C100.254 10.687 120.734-9.79325 120.681-35.2697C120.629-60.7461 100.148-81.2264 74.6719-81.2264C49.1954-81.2264 28.8207-60.7989 28.8207-35.2697C28.8207-9.74049 49.2482 10.687 74.7246 10.687ZM74.7774-8.3559C63.4305-8.3559 55.6472-16.0613 55.6472-19.5998C55.6472-20.7984 56.8182-21.1954 57.6952-20.7406C61.5779-18.2574 66.7226-15.6763 74.7774-15.6763C82.8849-15.6763 88.0573-18.2297 91.9123-20.7406C92.8421-21.1954 93.9603-20.7984 93.9603-19.5998C93.9603-16.0613 86.2298-8.3559 74.7774-8.3559ZM58.1173-41.2233C54.7699-41.2233 51.8497-44.3095 51.8497-48.5415C51.8497-52.8791 54.7422-55.9653 58.1173-55.9653C61.4924-55.9653 64.4654-52.8791 64.4654-48.5415C64.4654-44.3095 61.4647-41.2233 58.1173-41.2233ZM91.543-41.2233C88.1955-41.2233 85.2477-44.3095 85.2477-48.5415C85.2477-52.8791 88.1679-55.9653 91.543-55.9653C94.9181-55.9653 97.8634-52.8791 97.8634-48.5415C97.8634-44.3095 94.8904-41.2233 91.543-41.2233Z"/>
  </g>
  <g id="Light-L" transform="matrix(1 0 0 1 1079.2 1556)">
   <path class="SFSymbolsPreviewWireframe" d="M18.1746-35.2697C18.1746-41.6264 19.2593-47.7754 21.2547-53.4289L14.8365-56.117C12.5586-49.5563 11.2588-42.5336 11.2588-35.2697C11.2588-28.0058 12.5586-20.9831 14.8701-14.4224L21.2547-17.0638C19.306-22.7172 18.1746-28.9131 18.1746-35.2697ZM49.4327-85.4526L46.8587-91.6426C34.0533-85.4634 23.64-75.05 17.4607-62.2783L23.7312-59.6369C29.1846-70.8429 38.2605-79.9187 49.4327-85.4526ZM73.8804-91.0297C80.237-91.0297 86.3861-89.9114 92.12-87.9627L94.7277-94.3136C88.2006-96.6252 81.178-97.925 73.8804-97.925C66.6165-97.925 59.5601-96.6252 53.033-94.3136L55.7212-87.9627C61.3747-89.9581 67.5237-91.0297 73.8804-91.0297ZM124.063-59.6706L130.367-62.2783C124.154-75.0967 113.694-85.5101 100.889-91.723L98.2813-85.4526C109.5-79.9524 118.597-70.9233 124.063-59.6706ZM129.674-35.2697C129.674-28.9131 128.589-22.7172 126.641-17.0301L132.958-14.4224C135.303-20.9494 136.603-28.0058 136.603-35.2697C136.603-42.5336 135.303-49.5432 132.958-56.0703L126.654-53.4626C128.636-47.7754 129.674-41.6264 129.674-35.2697ZM98.2813 14.9132L100.889 21.1836C113.694 14.9707 124.188 4.55733 130.321-8.21434L124.097-10.822C118.63 0.383893 109.534 9.41298 98.2813 14.9132ZM73.9141 20.4903C67.5237 20.4903 61.3747 19.4187 55.7212 17.4233L53.0667 23.7742C59.5938 26.0858 66.6501 27.3856 73.9141 27.3856C81.2117 27.3856 88.1876 26.1325 94.7146 23.8079L92.0265 17.5038C86.3394 19.4187 80.224 20.4903 73.9141 20.4903ZM23.7649-10.822L17.5075-8.21434C23.7204 4.55733 34.1001 14.9707 46.9054 21.15L49.4795 14.8795C38.2605 9.3793 29.2314 0.350215 23.7649-10.822ZM73.8467 13.3207C100.788 13.3207 122.471-8.36186 122.437-35.2697C122.403-62.1775 100.721-83.8601 73.813-83.8601C46.9052-83.8601 25.2899-62.2112 25.2899-35.2697C25.2899-8.32818 46.9389 13.3207 73.8467 13.3207ZM73.8804-7.15352C62.3617-7.15352 54.3685-15.1261 54.3685-18.6646C54.3685-19.6915 55.3487-19.974 56.0539-19.5382C59.8412-16.6733 65.5394-13.9204 73.8804-13.9204C82.2551-13.9204 88-16.6265 91.7406-19.5382C92.4794-19.974 93.4259-19.6915 93.4259-18.6646C93.4259-15.1261 85.4664-7.15352 73.8804-7.15352ZM56.3233-41.2806C53.0522-41.2806 50.1702-44.4431 50.1702-48.5988C50.1702-52.8219 53.0055-55.9844 56.3233-55.9844C59.6411-55.9844 62.5569-52.8219 62.5569-48.5988C62.5569-44.4431 59.5944-41.2806 56.3233-41.2806ZM91.5048-41.2806C88.2337-41.2806 85.3049-44.4431 85.3049-48.5988C85.3049-52.8219 88.187-55.9844 91.5048-55.9844C94.8226-55.9844 97.6916-52.8219 97.6916-48.5988C97.6916-44.4431 94.7759-41.2806 91.5048-41.2806Z"/>
  </g>
  <g id="Thin-L" transform="matrix(1 0 0 1 783.716 1556)">
   <path class="SFSymbolsPreviewWireframe" d="M15.2214-35.2697C15.2214-42.1059 16.4575-48.7094 18.7053-54.7667L14.9879-56.3442C12.6091-49.7582 11.2588-42.6346 11.2588-35.2697C11.2588-27.9048 12.6091-20.7812 14.9963-14.1952L18.7053-15.7007C16.5294-21.758 15.2214-28.4335 15.2214-35.2697ZM48.2464-87.3205L46.7577-90.8601C33.7252-84.7313 23.1604-74.1665 17.0316-61.1424L20.6517-59.6369C26.3575-71.7263 36.1654-81.5342 48.2464-87.3205ZM72.694-92.6957C79.5303-92.6957 86.1337-91.4511 92.2715-89.2753L93.7685-92.9758C87.191-95.3631 80.0673-96.7134 72.694-96.7134C65.3291-96.7134 58.1971-95.3631 51.6195-92.9758L53.197-89.2753C59.2543-91.5231 65.8578-92.6957 72.694-92.6957ZM124.745-59.6454L128.373-61.1424C122.236-74.2385 111.599-84.8033 98.5668-90.9405L97.0697-87.3205C109.223-81.5426 118.975-71.8068 124.745-59.6454ZM130.128-35.2697C130.128-28.4335 128.892-21.758 126.716-15.6923L130.409-14.1952C132.804-20.7727 134.155-27.9048 134.155-35.2697C134.155-42.6346 132.804-49.6947 130.409-56.2722L126.78-54.7752C128.964-48.7094 130.128-42.1059 130.128-35.2697ZM97.0697 16.7811L98.5668 20.4011C111.599 14.2639 122.245 3.69911 128.301-9.32498L124.753-10.822C118.984 1.26736 109.231 11.0032 97.0697 16.7811ZM72.7024 22.1563C65.8578 22.1563 59.2543 20.9837 53.197 18.7359L51.6279 22.4364C58.2055 24.8237 65.3376 26.174 72.7024 26.174C80.0758 26.174 87.1274 24.8957 93.705 22.4448L92.1275 18.8163C86.0617 20.9837 79.4667 22.1563 72.7024 22.1563ZM20.6601-10.822L17.1036-9.32498C23.2408 3.69911 33.7972 14.2639 46.8297 20.3927L48.3183 16.7726C36.1654 10.9948 26.4295 1.25892 20.6601-10.822ZM72.6856 16.8041C101.495 16.8041 124.768-6.46872 124.759-35.2697C124.751-64.0707 101.478-87.3435 72.6771-87.3435C43.8762-87.3435 20.6202-64.0791 20.6202-35.2697C20.6202-6.46029 43.8846 16.8041 72.6856 16.8041ZM72.694-5.56329C60.9482-5.56329 52.6773-13.8893 52.6773-17.4278C52.6773-18.2275 53.4051-18.3585 53.8831-17.948C57.5442-14.5782 63.9744-11.5982 72.694-11.5982C81.4221-11.5982 87.9243-14.5062 91.5134-17.948C91.9998-18.3585 92.7191-18.2275 92.7191-17.4278C92.7191-13.8893 84.4567-5.56329 72.694-5.56329ZM53.9506-41.3563C50.7804-41.3563 47.9489-44.6198 47.9489-48.6745C47.9489-52.7461 50.7085-56.0096 53.9506-56.0096C57.1927-56.0096 60.0327-52.7461 60.0327-48.6745C60.0327-44.6198 57.1207-41.3563 53.9506-41.3563ZM91.4543-41.3563C88.2842-41.3563 85.3806-44.6198 85.3806-48.6745C85.3806-52.7461 88.2122-56.0096 91.4543-56.0096C94.6964-56.0096 97.4645-52.7461 97.4645-48.6745C97.4645-44.6198 94.6244-41.3563 91.4543-41.3563Z"/>
  </g>
  <g id="Ultralight-L" transform="matrix(1 0 0 1 487.631 1556)">
   <path class="SFSymbolsPreviewWireframe" d="M13.7087-35.2697C13.7087-42.3516 15.0224-49.1877 17.3995-55.4519L15.0655-56.4606C12.6349-49.8616 11.2588-42.6863 11.2588-35.2697C11.2588-27.8531 12.6349-20.6778 15.061-14.0788L17.3995-15.0025C15.1073-21.2668 13.7087-28.1878 13.7087-35.2697ZM47.6387-88.2772L46.706-90.4593C33.5571-84.3564 22.9147-73.714 16.8118-60.5607L19.0744-59.6369C24.9095-72.1788 35.0923-82.3616 47.6387-88.2772ZM72.0864-93.549C79.1683-93.549 86.0044-92.2398 92.349-89.9476L93.2772-92.2906C86.6738-94.7167 79.4985-96.0928 72.0864-96.0928C64.6698-96.0928 57.4989-94.7167 50.8955-92.2906L51.9041-89.9476C58.1683-92.3247 65.0045-93.549 72.0864-93.549ZM125.094-59.6324L127.352-60.5607C121.253-73.7989 110.526-84.4413 97.3773-90.5398L96.4491-88.2772C109.08-82.3571 119.169-72.2593 125.094-59.6324ZM130.361-35.2697C130.361-28.1878 129.047-21.2668 126.755-15.007L129.103-14.0788C131.524-20.6822 132.9-27.8531 132.9-35.2697C132.9-42.6863 131.524-49.7722 129.103-56.3757L126.845-55.4475C129.132-49.1877 130.361-42.3516 130.361-35.2697ZM96.4491 17.7378L97.3773 20.0004C110.526 13.9019 121.249 3.25953 127.267-9.89384L125.089-10.822C119.165 1.71986 109.076 11.8177 96.4491 17.7378ZM72.0819 23.0096C65.0045 23.0096 58.1683 21.7853 51.9041 19.4082L50.891 21.7512C57.4944 24.1773 64.6653 25.5534 72.0819 25.5534C79.494 25.5534 86.5844 24.2622 93.1878 21.7467L92.1792 19.4886C85.9195 21.7853 79.0788 23.0096 72.0819 23.0096ZM19.0699-10.822L16.8967-9.89384C22.9952 3.25953 33.642 13.9019 46.7909 20.0048L47.7236 17.7423C35.0923 11.8222 24.9944 1.72435 19.0699-10.822ZM72.0909 18.5883C101.857 18.5883 125.944-5.49907 125.949-35.2697C125.953-65.0403 101.866-89.1277 72.0953-89.1277C42.3247-89.1277 18.2284-65.0358 18.2284-35.2697C18.2284-5.50356 42.3202 18.5883 72.0909 18.5883ZM72.0864-4.74878C60.2242-4.74878 51.8111-13.2558 51.8111-16.7942C51.8111-17.4776 52.4095-17.5311 52.7712-17.1334C56.3676-13.5051 63.1728-10.4087 72.0864-10.4087C80.9954-10.4087 87.8855-13.4202 91.397-17.1334C91.7542-17.5311 92.3571-17.4776 92.3571-16.7942C92.3571-13.2558 83.9395-4.74878 72.0864-4.74878ZM52.7353-41.3951C49.6169-41.3951 46.8111-44.7103 46.8111-48.7133C46.8111-52.7073 49.5319-56.0225 52.7353-56.0225C55.9386-56.0225 58.7398-52.7073 58.7398-48.7133C58.7398-44.7103 55.8537-41.3951 52.7353-41.3951ZM91.4285-41.3951C88.3101-41.3951 85.4194-44.7103 85.4194-48.7133C85.4194-52.7073 88.2251-56.0225 91.4285-56.0225C94.6318-56.0225 97.3481-52.7073 97.3481-48.7133C97.3481-44.7103 94.5469-41.3951 91.4285-41.3951Z"/>
  </g>
  <g id="Black-M" transform="matrix(1 0 0 1 2871.36 1126)">
   <path class="SFSymbolsPreviewWireframe" d="M26.1158-35.2606C26.1158-38.5213 26.5659-41.6577 27.3471-44.6544L11.2184-51.369C9.59956-46.2655 8.72266-40.8565 8.72266-35.2606C8.72266-29.6648 9.59956-24.2558 11.2238-19.1523L27.3471-25.8671C26.5656-28.8638 26.1158-31.9999 26.1158-35.2606ZM44.1809-66.4713L37.4771-82.5787C27.7705-77.49 19.8077-69.5271 14.7189-59.8261L30.8315-53.1112C34.0064-58.6885 38.6092-63.2912 44.1809-66.4713ZM62.0367-71.1983C65.2974-71.1983 68.4338-70.7428 71.4357-69.9612L78.1451-86.079C73.0471-87.7033 67.6381-88.5802 62.0367-88.5802C56.4409-88.5802 51.0264-87.7033 45.9284-86.079L52.643-69.9612C55.6397-70.7425 58.776-71.1983 62.0367-71.1983ZM93.2474-53.1167L109.366-59.8261C104.271-69.5268 96.3087-77.4897 86.6021-82.5839L79.8928-66.4713C85.4643-63.2967 90.0783-58.6937 93.2474-53.1167ZM97.9799-35.2606C97.9799-31.9999 97.5299-28.8638 96.7483-25.8616L112.861-19.1523C114.49-24.2503 115.367-29.6648 115.367-35.2606C115.367-40.8565 114.49-46.2713 112.861-51.3693L96.7425-44.6599C97.5296-41.6577 97.9799-38.5213 97.9799-35.2606ZM79.8928-4.04995L86.6021 12.0626C96.3087 6.96844 104.277-0.994445 109.366-10.6955L93.2529-17.4049C90.0838-11.8276 85.4698-7.22457 79.8928-4.04995ZM62.0422 0.677054C58.776 0.677054 55.6397 0.22122 52.643-0.560064L45.9339 15.5577C51.0319 17.182 56.4464 18.0589 62.0422 18.0589C67.6436 18.0589 73.0528 17.1817 78.1508 15.5632L71.4363-0.554856C68.4341 0.22122 65.3032 0.677054 62.0422 0.677054ZM30.837-17.4049L14.7187-10.6955C19.8129-0.994445 27.7703 6.96844 37.4768 12.0572L44.1807-4.05544C38.6092-7.23006 34.0062-11.8331 30.837-17.4049ZM62.0312-8.81846C76.492-8.81846 88.4789-20.8054 88.4734-35.2606C88.4679-49.7159 76.481-61.7028 62.0258-61.7028C47.5705-61.7028 35.5946-49.7214 35.5946-35.2606C35.5946-20.7999 47.576-8.81846 62.0312-8.81846ZM61.7513-18.5748C53.8409-18.5748 48.6207-23.7838 48.6207-26.2968C48.6207-27.3067 49.6308-27.8016 50.6198-27.3704C53.3368-25.9949 56.4075-24.4761 61.7513-24.4761C67.1005-24.4761 70.0568-26.1665 72.8882-27.3704C73.8827-27.7445 74.8874-27.3067 74.8874-26.2968C74.8874-23.7838 69.6155-18.5748 61.7513-18.5748ZM51.1776-38.7232C48.897-38.7232 47.048-40.7419 47.048-43.4794C47.048-46.285 48.8973-48.3037 51.1776-48.3037C53.3437-48.3037 55.3124-46.285 55.3124-43.4794C55.3124-40.7419 53.344-38.7232 51.1776-38.7232ZM72.3359-38.7232C70.0554-38.7232 68.2066-40.7419 68.2066-43.4794C68.2066-46.285 70.0556-48.3037 72.3359-48.3037C74.5591-48.3037 76.5281-46.285 76.5281-43.4794C76.5281-40.7419 74.5594-38.7232 72.3359-38.7232Z"/>
  </g>
  <g id="Heavy-M" transform="matrix(1 0 0 1 2575.48 1126)">
   <path class="SFSymbolsPreviewWireframe" d="M23.9841-35.2606C23.9841-38.799 24.4899-42.2105 25.3911-45.4367L11.2472-51.3246C9.61815-46.232 8.72266-40.8398 8.72266-35.2606C8.72266-29.6815 9.61815-24.2893 11.2636-19.1967L25.3911-25.0823C24.4922-28.3085 23.9841-31.7223 23.9841-35.2606ZM43.0771-67.8328L37.2243-81.9066C27.5217-76.8769 19.5704-68.9256 14.5407-59.2394L28.6331-53.3538C31.9953-59.4517 36.9956-64.452 43.0771-67.8328ZM61.1889-72.5124C64.7273-72.5124 68.1388-71.9902 71.3837-71.0913L77.2529-85.2024C72.1767-86.8478 66.7845-87.7433 61.1889-87.7433C55.6098-87.7433 50.2011-86.8478 45.125-85.2024L51.0128-71.0913C54.2391-71.9925 57.6506-72.5124 61.1889-72.5124ZM93.7611-53.3702L107.87-59.2394C102.824-68.9279 94.8703-76.8791 85.1677-81.9253L79.2985-67.8328C85.3823-64.4684 90.4131-59.4704 93.7611-53.3702ZM98.4571-35.2606C98.4571-31.7223 97.9513-28.3085 97.0524-25.0659L111.147-19.1967C112.809-24.2728 113.704-29.6815 113.704-35.2606C113.704-40.8398 112.809-46.2462 111.147-51.3223L97.0383-45.4531C97.9536-42.2105 98.4571-38.799 98.4571-35.2606ZM79.2985-2.68844L85.1677 11.404C94.8703 6.35786 102.84-1.59342 107.868-11.2796L93.7775-17.1488C90.4295-11.0509 85.3987-6.05288 79.2985-2.68844ZM61.2053 1.99116C57.6506 1.99116 54.2391 1.4712 51.0128 0.570023L45.1414 14.6811C50.2175 16.3265 55.6262 17.222 61.2053 17.222C66.8009 17.222 72.1909 16.3288 77.267 14.6975L71.3792 0.588706C68.1365 1.4712 64.7414 1.99116 61.2053 1.99116ZM28.6495-17.1488L14.543-11.2796C19.5891-1.59342 27.524 6.35786 37.2266 11.3876L43.0794-2.70485C36.9956-6.06929 31.9976-11.0673 28.6495-17.1488ZM61.1725-7.01034C76.6983-7.01034 89.4392-19.7512 89.4228-35.2606C89.4064-50.7701 76.6655-63.5109 61.1561-63.5109C45.6467-63.5109 32.9386-50.7865 32.9386-35.2606C32.9386-19.7348 45.6631-7.01034 61.1725-7.01034ZM60.9708-17.7535C52.8758-17.7535 47.4926-23.1061 47.4926-25.673C47.4926-26.6868 48.5041-27.1529 49.4432-26.7377C52.2417-25.2842 55.454-23.675 60.9708-23.675C66.5041-23.675 69.6314-25.4128 72.5149-26.7377C73.4703-27.1093 74.4654-26.6868 74.4654-25.673C74.4654-23.1061 69.0551-17.7535 60.9708-17.7535ZM49.9671-38.9869C47.6024-38.9869 45.6507-41.0832 45.6507-43.9587C45.6507-46.9106 47.6001-49.0069 49.9671-49.0069C52.2467-49.0069 54.3022-46.9106 54.3022-43.9587C54.3022-41.0832 52.2445-38.9869 49.9671-38.9869ZM72.0074-38.9869C69.6428-38.9869 67.6887-41.0832 67.6887-43.9587C67.6887-46.9106 69.6405-49.0069 72.0074-49.0069C74.3307-49.0069 76.3838-46.9106 76.3838-43.9587C76.3838-41.0832 74.3284-38.9869 72.0074-38.9869Z"/>
  </g>
  <g id="Bold-M" transform="matrix(1 0 0 1 2279.69 1126)">
   <path class="SFSymbolsPreviewWireframe" d="M21.5995-35.2606C21.5995-39.1096 22.1677-42.8288 23.203-46.3118L11.2794-51.275C9.63895-46.1946 8.72266-40.8211 8.72266-35.2606C8.72266-29.7002 9.63895-24.3267 11.308-19.2463L23.203-24.2043C22.1728-27.6874 21.5995-31.4117 21.5995-35.2606ZM41.8423-69.3559L36.9416-81.1547C27.2433-76.191 19.3051-68.2527 14.3414-58.5831L26.1739-53.6251C29.7456-60.3055 35.1905-65.7505 41.8423-69.3559ZM60.2405-73.9825C64.0895-73.9825 67.8087-73.3856 71.3255-72.3555L76.2549-84.2218C71.2031-85.8909 65.8296-86.8071 60.2405-86.8071C54.6801-86.8071 49.2779-85.8909 44.2262-84.2218L49.1893-72.3555C52.6724-73.3908 56.3916-73.9825 60.2405-73.9825ZM94.3358-53.6537L106.197-58.5831C101.205-68.2578 93.2612-76.1961 83.563-81.1884L78.6336-69.3559C85.2905-65.7791 90.7876-60.3393 94.3358-53.6537ZM98.991-35.2606C98.991-31.4117 98.4228-27.6874 97.3926-24.1757L109.23-19.2463C110.928-24.298 111.844-29.7002 111.844-35.2606C111.844-40.8211 110.928-46.2181 109.23-51.2698L97.3691-46.3405C98.4279-42.8288 98.991-39.1096 98.991-35.2606ZM78.6336-1.1654L83.563 10.6671C93.2612 5.67484 101.233-2.26346 106.192-11.9331L94.3644-16.8624C90.8162-10.182 85.3192-4.74218 78.6336-1.1654ZM60.2692 3.46117C56.3916 3.46117 52.6724 2.86948 49.1893 1.83419L44.2548 13.7005C49.3066 15.3696 54.7087 16.2859 60.2692 16.2859C65.8582 16.2859 71.2266 15.3747 76.2784 13.7291L71.3152 1.86794C67.8036 2.86948 64.113 3.46117 60.2692 3.46117ZM26.2025-16.8624L14.3465-11.9331C19.3388-2.26346 27.2485 5.67484 36.9467 10.6385L41.8475-1.19402C35.1905-4.77081 29.7507-10.2107 26.2025-16.8624ZM60.2119-4.9877C76.9292-4.9877 90.5135-18.572 90.4849-35.2606C90.4562-51.9493 76.8719-65.5336 60.1833-65.5336C43.4947-65.5336 29.9676-51.9779 29.9676-35.2606C29.9676-18.5434 43.5233-4.9877 60.2119-4.9877ZM60.0978-16.8347C51.7961-16.8347 46.2308-22.3479 46.2308-24.9751C46.2308-25.9933 47.2438-26.4272 48.127-26.0299C51.0167-24.489 54.3873-22.7787 60.0978-22.7787C65.8369-22.7787 69.1555-24.5696 72.0972-26.0299C73.009-26.3986 73.9934-25.9933 73.9934-24.9751C73.9934-22.3479 68.4282-16.8347 60.0978-16.8347ZM48.6129-39.2819C46.1542-39.2819 44.0876-41.4649 44.0876-44.4948C44.0876-47.6105 46.1491-49.7936 48.6129-49.7936C51.0197-49.7936 53.172-47.6105 53.172-44.4948C53.172-41.4649 51.0145-39.2819 48.6129-39.2819ZM71.6399-39.2819C69.1812-39.2819 67.1094-41.4649 67.1094-44.4948C67.1094-47.6105 69.1761-49.7936 71.6399-49.7936C74.0752-49.7936 76.2224-47.6105 76.2224-44.4948C76.2224-41.4649 74.0701-39.2819 71.6399-39.2819Z"/>
  </g>
  <g id="Semibold-M" transform="matrix(1 0 0 1 1983.62 1126)">
   <path class="SFSymbolsPreviewWireframe" d="M19.9555-35.2606C19.9555-39.3237 20.5667-43.2551 21.6945-46.9151L11.3016-51.2408C9.65328-46.1688 8.72266-40.8082 8.72266-35.2606C8.72266-29.7131 9.65328-24.3525 11.3387-19.2805L21.6945-23.599C20.5738-27.2591 19.9555-31.1976 19.9555-35.2606ZM40.9911-70.4059L36.7466-80.6363C27.0515-75.7181 19.1221-67.7888 14.2039-58.1307L24.4785-53.8121C28.1946-60.8941 33.9462-66.6457 40.9911-70.4059ZM59.5867-74.9959C63.6498-74.9959 67.5811-74.3476 71.2854-73.227L75.5668-83.5457C70.5319-85.2311 65.1713-86.1618 59.5867-86.1618C54.0392-86.1618 48.6415-85.2311 43.6066-83.5457L47.9322-73.227C51.5923-74.3547 55.5237-74.9959 59.5867-74.9959ZM94.7319-53.8492L105.044-58.1307C100.088-67.7959 92.1519-75.7253 82.4567-80.6805L78.1753-70.4059C85.2273-66.6827 91.0458-60.9382 94.7319-53.8492ZM99.359-35.2606C99.359-31.1976 98.7478-27.2591 97.6271-23.562L107.909-19.2805C109.631-24.3154 110.562-29.7131 110.562-35.2606C110.562-40.8082 109.631-46.1988 107.909-51.2337L97.5972-46.9522C98.7549-43.2551 99.359-39.3237 99.359-35.2606ZM78.1753-0.11542L82.4567 10.1592C92.1519 5.20396 100.125-2.72538 105.036-12.3835L94.769-16.665C91.0829-9.58305 85.2643-3.83859 78.1753-0.11542ZM59.6238 4.47459C55.5237 4.47459 51.5923 3.83345 47.9322 2.7057L43.6436 13.0244C48.6785 14.7098 54.0762 15.6405 59.6238 15.6405C65.2084 15.6405 70.5619 14.7169 75.5968 13.0615L71.2712 2.74984C67.574 3.83345 63.6797 4.47459 59.6238 4.47459ZM24.5156-16.665L14.211-12.3835C19.1663-2.72538 27.0586 5.20396 36.7537 10.1221L40.9982-0.152462C33.9462-3.87564 28.2017-9.62009 24.5156-16.665ZM59.5497-3.59331C77.0883-3.59331 91.2541-17.7591 91.217-35.2606C91.18-52.7622 77.0142-66.928 59.5126-66.928C42.0111-66.928 27.9194-52.7993 27.9194-35.2606C27.9194-17.722 42.0481-3.59331 59.5497-3.59331ZM59.4959-16.2013C51.0518-16.2013 45.3609-21.8252 45.3609-24.494C45.3609-25.5152 46.375-25.9269 47.2196-25.542C50.1722-23.9409 53.652-22.1609 59.4959-22.1609C65.3769-22.1609 68.8275-23.9883 71.8093-25.542C72.691-25.9087 73.668-25.5152 73.668-24.494C73.668-21.8252 67.996-16.2013 59.4959-16.2013ZM47.6794-39.4852C45.1558-39.4852 43.01-41.7281 43.01-44.8644C43.01-48.093 45.1487-50.3359 47.6794-50.3359C50.1737-50.3359 52.3929-48.093 52.3929-44.8644C52.3929-41.7281 50.1666-39.4852 47.6794-39.4852ZM71.3866-39.4852C68.863-39.4852 66.7101-41.7281 66.7101-44.8644C66.7101-48.093 68.8559-50.3359 71.3866-50.3359C73.8991-50.3359 76.1112-48.093 76.1112-44.8644C76.1112-41.7281 73.892-39.4852 71.3866-39.4852Z"/>
  </g>
  <g id="Medium-M" transform="matrix(1 0 0 1 1687.4 1126)">
   <path class="SFSymbolsPreviewWireframe" d="M18.709-35.2606C18.709-39.4861 19.3528-43.5783 20.5507-47.3726L11.3185-51.2148C9.66415-46.1493 8.72266-40.7984 8.72266-35.2606C8.72266-29.7229 9.66415-24.372 11.3619-19.3065L20.5507-23.1401C19.3614-26.9344 18.709-31.0352 18.709-35.2606ZM40.3456-71.202L36.5988-80.2433C26.9059-75.3596 18.9834-67.4371 14.0997-57.7876L23.193-53.954C27.0186-61.3404 33.0026-67.3244 40.3456-71.202ZM59.091-75.7643C63.3164-75.7643 67.4086-75.0771 71.2549-73.8878L75.0452-83.0331C70.023-84.7309 64.6722-85.6724 59.091-85.6724C53.5532-85.6724 48.1589-84.7309 43.1368-83.0331L46.979-73.8878C50.7733-75.0857 54.8655-75.7643 59.091-75.7643ZM95.0323-53.9974L104.169-57.7876C99.242-67.4457 91.3108-75.3682 81.6179-80.2953L77.8277-71.202C85.1793-67.3678 91.2416-61.3924 95.0323-53.9974ZM99.6381-35.2606C99.6381-31.0352 98.9942-26.9344 97.805-23.0967L106.907-19.3065C108.648-24.3286 109.59-29.7229 109.59-35.2606C109.59-40.7984 108.648-46.1841 106.907-51.2062L97.7701-47.416C99.0028-43.5783 99.6381-39.4861 99.6381-35.2606ZM77.8277 0.680717L81.6179 9.77403C91.3108 4.84693 99.2854-3.07562 104.16-12.7251L95.0758-16.5153C91.285-9.12887 85.2227-3.15346 77.8277 0.680717ZM59.1344 5.24301C54.8655 5.24301 50.7733 4.56437 46.979 3.36651L43.1802 12.5118C48.2023 14.2096 53.5966 15.1511 59.1344 15.1511C64.7156 15.1511 70.0578 14.2182 75.08 12.5553L71.2377 3.41854C67.4 4.56437 63.3512 5.24301 59.1344 5.24301ZM23.2365-16.5153L14.1083-12.7251C19.0354-3.07562 26.9145 4.84693 36.6074 9.7306L40.3542 0.63729C33.0026-3.19688 27.0272-9.1723 23.2365-16.5153ZM59.0475-2.53602C77.209-2.53602 91.8156-17.1427 91.7722-35.2606C91.7287-53.3786 77.1221-67.9853 59.0041-67.9853C40.8861-67.9853 26.3663-53.4221 26.3663-35.2606C26.3663-17.0992 40.9296-2.53602 59.0475-2.53602ZM59.0396-15.721C50.4875-15.721 44.7013-21.4289 44.7013-24.1292C44.7013-25.1527 45.7162-25.5476 46.5316-25.172C49.5319-23.5253 53.0944-21.6924 59.0396-21.6924C65.0282-21.6924 68.5787-23.5475 71.591-25.172C72.4498-25.5373 73.4213-25.1527 73.4213-24.1292C73.4213-21.4289 67.6683-15.721 59.0396-15.721ZM46.9715-39.6394C44.3988-39.6394 42.1929-41.9277 42.1929-45.1447C42.1929-48.4588 44.3902-50.7471 46.9715-50.7471C49.5323-50.7471 51.8022-48.4588 51.8022-45.1447C51.8022-41.9277 49.5237-39.6394 46.9715-39.6394ZM71.1945-39.6394C68.6217-39.6394 66.4073-41.9277 66.4073-45.1447C66.4073-48.4588 68.6131-50.7471 71.1945-50.7471C73.7656-50.7471 76.0268-48.4588 76.0268-45.1447C76.0268-41.9277 73.757-39.6394 71.1945-39.6394Z"/>
  </g>
  <g id="Regular-M" transform="matrix(1 0 0 1 1391.32 1126)">
   <path class="SFSymbolsPreviewWireframe" d="M17.0831-35.2606C17.0831-39.6978 17.7695-43.9999 19.0588-47.9693L11.3405-51.181C9.67833-46.1238 8.72266-40.7857 8.72266-35.2606C8.72266-29.7356 9.67833-24.3975 11.3922-19.3403L19.0588-22.5415C17.78-26.5109 17.0831-30.8235 17.0831-35.2606ZM39.5037-72.2404L36.406-79.7306C26.7162-74.892 18.8025-66.9783 13.9638-57.3401L21.5163-54.139C25.4847-61.9225 31.7719-68.2097 39.5037-72.2404ZM58.4443-76.7666C62.8815-76.7666 67.1836-76.0285 71.2153-74.7497L74.3647-82.3645C69.3592-84.0784 64.0211-85.0341 58.4443-85.0341C52.9193-85.0341 47.5295-84.0784 42.524-82.3645L45.7357-74.7497C49.7051-76.039 54.0071-76.7666 58.4443-76.7666ZM95.4241-54.1907L103.028-57.3401C98.138-66.9888 90.2137-74.9025 80.5238-79.7929L77.3744-72.2404C85.1168-68.2615 91.4969-61.9848 95.4241-54.1907ZM100.002-35.2606C100.002-30.8235 99.3157-26.5109 98.0369-22.4897L105.6-19.3403C107.366-24.3458 108.321-29.7356 108.321-35.2606C108.321-40.7857 107.366-46.165 105.6-51.1704L97.9957-48.021C99.3262-43.9999 100.002-39.6978 100.002-35.2606ZM77.3744 1.71916L80.5238 9.27165C90.2137 4.38123 98.1897-3.53247 103.018-13.1706L95.4759-16.32C91.5487-8.53648 85.1685-2.2598 77.3744 1.71916ZM58.4961 6.24529C54.0071 6.24529 49.7051 5.51774 45.7357 4.22844L42.5757 11.8432C47.5812 13.5571 52.9711 14.5128 58.4961 14.5128C64.0729 14.5128 69.4004 13.5677 74.4059 11.895L71.1942 4.29074C67.173 5.51774 62.9227 6.24529 58.4961 6.24529ZM21.568-16.32L13.9743-13.1706C18.8648-3.53247 26.7267 4.38123 36.4166 9.21989L39.5143 1.6674C31.7719-2.31155 25.4952-8.58823 21.568-16.32ZM58.3926-1.15695C77.3663-1.15695 92.548-16.3387 92.4963-35.2606C92.4445-54.1826 77.2628-69.3643 58.3408-69.3643C39.4188-69.3643 24.3406-54.2344 24.3406-35.2606C24.3406-16.2869 39.4706-1.15695 58.3926-1.15695ZM58.4443-15.0946C49.7513-15.0946 43.8409-20.912 43.8409-23.6534C43.8409-24.6799 44.8569-25.0528 45.6342-24.6895C48.6967-22.9832 52.3671-21.0814 58.4443-21.0814C64.5733-21.0814 68.2543-22.9726 71.3062-24.6895C72.1353-25.0528 73.0995-24.6799 73.0995-23.6534C73.0995-20.912 67.2408-15.0946 58.4443-15.0946ZM46.0482-39.8405C43.4113-39.8405 41.1272-42.188 41.1272-45.5103C41.1272-48.936 43.4008-51.2835 46.0482-51.2835C48.6957-51.2835 51.0316-48.936 51.0316-45.5103C51.0316-42.188 48.6851-39.8405 46.0482-39.8405ZM70.9439-39.8405C68.307-39.8405 66.0123-42.188 66.0123-45.5103C66.0123-48.936 68.2965-51.2835 70.9439-51.2835C73.5914-51.2835 75.9168-48.936 75.9168-45.5103C75.9168-42.188 73.5808-39.8405 70.9439-39.8405Z"/>
  </g>
  <g id="Light-M" transform="matrix(1 0 0 1 1095.44 1126)">
   <path class="SFSymbolsPreviewWireframe" d="M15.0811-35.2606C15.0811-40.0229 15.8701-44.633 17.3306-48.8761L11.4431-51.335C9.71255-46.2607 8.72266-40.8541 8.72266-35.2606C8.72266-29.6672 9.71255-24.2606 11.4778-19.1863L17.3306-21.6175C15.8978-25.8607 15.0811-30.4983 15.0811-35.2606ZM38.6995-73.5067L36.3376-79.2002C26.4937-74.3958 18.4774-66.3794 13.6729-56.5702L19.4288-54.139C23.5683-62.5214 30.3517-69.3048 38.6995-73.5067ZM57.6401-77.8959C62.4024-77.8959 67.0124-77.0722 71.3179-75.6395L73.7145-81.4576C68.6748-83.2229 63.2682-84.2128 57.6401-84.2128C52.0467-84.2128 46.6055-83.2229 41.5658-81.4576L44.0246-75.6395C48.2678-77.0999 52.8778-77.8959 57.6401-77.8959ZM95.8861-54.1736L101.677-56.5702C96.8375-66.4071 88.7935-74.4234 78.9496-79.2625L76.5531-73.5067C84.9285-69.3395 91.7536-62.5837 95.8861-54.1736ZM100.31-35.2606C100.31-30.4983 99.521-25.8607 98.0883-21.5828L103.872-19.1863C105.672-24.226 106.662-29.6672 106.662-35.2606C106.662-40.8541 105.672-46.2676 103.872-51.3073L98.0813-48.9108C99.5487-44.633 100.31-40.0229 100.31-35.2606ZM76.5531 2.98537L78.9496 8.74121C88.7935 3.90212 96.8722-4.11424 101.649-13.9235L95.9208-16.32C91.7882-7.93759 84.9632-1.18181 76.5531 2.98537ZM57.6748 7.37462C52.8778 7.37462 48.2678 6.57862 44.0246 5.11821L41.6004 10.9364C46.6401 12.7016 52.0813 13.6915 57.6748 13.6915C63.3029 13.6915 68.6818 12.7292 73.7215 10.971L71.2626 5.18051C66.9848 6.57862 62.4094 7.37462 57.6748 7.37462ZM19.4634-16.32L13.7006-13.9235C18.5397-4.11424 26.5214 3.90212 36.3653 8.70657L38.7272 2.95072C30.3517-1.21645 23.5959-7.97224 19.4634-16.32ZM57.6055 1.20436C77.8454 1.20436 94.1051-15.0553 94.0705-35.2606C94.0358-55.466 77.7761-71.7257 57.5708-71.7257C37.3655-71.7257 21.1751-55.5006 21.1751-35.2606C21.1751-15.0207 37.4002 1.20436 57.6055 1.20436ZM57.6401-14.0166C48.7931-14.0166 42.6945-20.0736 42.6945-22.815C42.6945-23.6875 43.5394-23.9577 44.1627-23.6115C47.1396-21.5629 51.3062-19.5071 57.6401-19.5071C64.0086-19.5071 68.203-21.5353 71.1522-23.6115C71.8102-23.9577 72.6204-23.6875 72.6204-22.815C72.6204-20.0736 66.5564-14.0166 57.6401-14.0166ZM44.4398-39.8919C41.8714-39.8919 39.6214-42.3078 39.6214-45.5616C39.6214-48.8847 41.8437-51.3006 44.4398-51.3006C47.0359-51.3006 49.3205-48.8847 49.3205-45.5616C49.3205-42.3078 47.0083-39.8919 44.4398-39.8919ZM70.9097-39.8919C68.3413-39.8919 66.0636-42.3078 66.0636-45.5616C66.0636-48.8847 68.3136-51.3006 70.9097-51.3006C73.5058-51.3006 75.7628-48.8847 75.7628-45.5616C75.7628-42.3078 73.4782-39.8919 70.9097-39.8919Z"/>
  </g>
  <g id="Thin-M" transform="matrix(1 0 0 1 799.828 1126)">
   <path class="SFSymbolsPreviewWireframe" d="M12.4333-35.2606C12.4333-40.4529 13.3581-45.4703 15.0449-50.0756L11.5789-51.5387C9.75781-46.4417 8.72266-40.9446 8.72266-35.2606C8.72266-29.5767 9.75781-24.0796 11.5909-18.9826L15.0449-20.3954C13.4084-25.0007 12.4333-30.0684 12.4333-35.2606ZM37.6359-75.1813L36.2471-78.4986C26.1995-73.7395 18.0474-65.5873 13.2882-55.5518L16.6678-54.139C21.0336-63.3135 28.4734-70.7532 37.6359-75.1813ZM56.5765-79.3895C61.7688-79.3895 66.7861-78.4527 71.4537-76.8163L72.8545-80.2582C67.7695-82.0913 62.2725-83.1265 56.5765-83.1265C50.8925-83.1265 45.3834-82.0913 40.2985-80.2582L41.7616-76.8163C46.3668-78.503 51.3842-79.3895 56.5765-79.3895ZM96.4972-54.151L99.8888-55.5518C95.1176-65.6376 86.9152-73.7898 76.8676-78.5609L75.4668-75.1813C84.6796-70.7652 92.0931-63.3758 96.4972-54.151ZM100.717-35.2606C100.717-30.0684 99.7926-25.0007 98.1562-20.3834L101.586-18.9826C103.431-24.0676 104.466-29.5767 104.466-35.2606C104.466-40.9446 103.431-46.4034 101.586-51.4884L98.1944-50.0876C99.8429-45.4703 100.717-40.4529 100.717-35.2606ZM75.4668 4.66003L76.8676 8.03966C86.9152 3.26847 95.1296-4.88368 99.8385-14.9192L96.5092-16.32C92.1051-7.14552 84.6916 0.24392 75.4668 4.66003ZM56.5885 8.86824C51.3842 8.86824 46.3668 7.98171 41.7616 6.295L40.3105 9.73694C45.3954 11.57 50.9045 12.6052 56.5885 12.6052C62.2845 12.6052 67.7313 11.6203 72.8162 9.74895L71.3531 6.3573C66.7358 7.98171 61.7305 8.86824 56.5885 8.86824ZM16.6798-16.32L13.3385-14.9192C18.1097-4.88368 26.2498 3.26847 36.2974 8.02765L37.6862 4.64802C28.4734 0.231908 21.0839-7.15753 16.6798-16.32ZM56.5645 4.32739C78.4791 4.32739 96.1645-13.358 96.1525-35.2606C96.1405-57.1633 78.4551-74.8487 56.5525-74.8487C34.6499-74.8487 16.9885-57.1753 16.9885-35.2606C16.9885-13.346 34.6619 4.32739 56.5645 4.32739ZM56.5765-12.5908C47.5258-12.5908 41.1782-18.9647 41.1782-21.7061C41.1782-22.3749 41.7968-22.5093 42.2164-22.1858C45.0802-19.6846 49.9031-17.4251 56.5765-17.4251C63.2618-17.4251 68.1351-19.6343 70.9485-22.1858C71.3802-22.5093 71.9867-22.3749 71.9867-21.7061C71.9867-18.9647 65.6512-12.5908 56.5765-12.5908ZM42.3125-39.9598C39.8346-39.9598 37.6299-42.4662 37.6299-45.6295C37.6299-48.8168 39.7843-51.3232 42.3125-51.3232C44.8408-51.3232 47.0575-48.8168 47.0575-45.6295C47.0575-42.4662 44.7905-39.9598 42.3125-39.9598ZM70.8645-39.9598C68.3865-39.9598 66.1315-42.4662 66.1315-45.6295C66.1315-48.8168 68.3362-51.3232 70.8645-51.3232C73.3927-51.3232 75.5591-48.8168 75.5591-45.6295C75.5591-42.4662 73.3424-39.9598 70.8645-39.9598Z"/>
  </g>
  <g id="Ultralight-M" transform="matrix(1 0 0 1 503.679 1126)">
   <path class="SFSymbolsPreviewWireframe" d="M11.0772-35.2606C11.0772-40.6732 12.0715-45.8992 13.8741-50.6899L11.6485-51.643C9.78099-46.5344 8.72266-40.991 8.72266-35.2606C8.72266-29.5303 9.78099-23.9869 11.6489-18.8783L13.8741-19.7695C12.1334-24.5602 11.0772-29.8481 11.0772-35.2606ZM37.0911-76.0391L36.2007-78.1393C26.0488-73.4033 17.8271-65.1816 13.0911-55.0302L15.2537-54.139C19.7354-63.7192 27.5113-71.495 37.0911-76.0391ZM56.0317-80.1545C61.4442-80.1545 66.6702-79.1598 71.5233-77.419L72.414-79.6439C67.3059-81.5118 61.7625-82.5701 56.0317-82.5701C50.3013-82.5701 44.7575-81.5118 39.6493-79.6439L40.6024-77.419C45.3932-79.2217 50.6192-80.1545 56.0317-80.1545ZM96.8101-54.1394L98.9731-55.0302C94.2367-65.2435 85.9531-73.4652 75.8012-78.2016L74.9104-76.0391C84.5521-71.4955 92.2669-63.7815 96.8101-54.1394ZM100.926-35.2606C100.926-29.8481 99.9317-24.5602 98.1909-19.7691L100.415-18.8783C102.284-23.9864 103.342-29.5303 103.342-35.2606C103.342-40.991 102.284-46.473 100.415-51.5811L98.2524-50.6903C99.9936-45.8992 100.926-40.6732 100.926-35.2606ZM74.9104 5.51778L75.8012 7.68033C85.9531 2.94391 94.2371-5.27778 98.9112-15.4292L96.8105-16.32C92.2674-6.73983 84.5525 0.974171 74.9104 5.51778ZM56.0321 9.63326C50.6192 9.63326 45.3932 8.70037 40.6024 6.89775L39.6498 9.1226C44.7579 10.9905 50.3018 12.0488 56.0321 12.0488C61.7629 12.0488 67.2444 11.0524 72.3526 9.12302L71.3995 6.96005C66.6083 8.70037 61.3827 9.63326 56.0321 9.63326ZM15.2541-16.32L13.153-15.4292C17.8894-5.27778 26.1107 2.94391 36.2626 7.67991L37.153 5.51736C27.5113 0.97375 19.7973-6.74025 15.2541-16.32ZM56.0313 5.92698C78.8036 5.92698 97.2193-12.4887 97.2189-35.2606C97.2185-58.0326 78.8028-76.4483 56.0309-76.4483C33.2589-76.4483 14.8441-58.033 14.8441-35.2606C14.8441-12.4883 33.2593 5.92698 56.0313 5.92698ZM56.0317-11.8606C46.8767-11.8606 40.4016-18.3967 40.4016-21.1381C40.4016-21.7026 40.9043-21.7675 41.2196-21.4555C44.0254-18.7225 49.1845-16.3587 56.0317-16.3587C62.8793-16.3587 68.1003-18.6606 70.8442-21.4555C71.1599-21.7675 71.6622-21.7026 71.6622-21.1381C71.6622-18.3967 65.1875-11.8606 56.0317-11.8606ZM41.223-39.9945C38.7914-39.9945 36.6099-42.5473 36.6099-45.6643C36.6099-48.782 38.7295-51.3348 41.223-51.3348C43.7164-51.3348 45.8983-48.782 45.8983-45.6643C45.8983-42.5473 43.6545-39.9945 41.223-39.9945ZM70.8413-39.9945C68.4097-39.9945 66.1663-42.5473 66.1663-45.6643C66.1663-48.782 68.3478-51.3348 70.8413-51.3348C73.3347-51.3348 75.4548-48.782 75.4548-45.6643C75.4548-42.5473 73.2728-39.9945 70.8413-39.9945Z"/>
  </g>
  <g id="Black-S" transform="matrix(1 0 0 1 2884.57 696)">
   <path class="SFSymbolsPreviewWireframe" d="M20.9961-35.2539C20.9961-37.7441 21.3379-40.1367 21.9238-42.4316L8.78906-47.9004C7.51953-43.8965 6.83594-39.6484 6.83594-35.2539C6.83594-30.8594 7.51953-26.6113 8.78906-22.6074L21.9238-28.0762C21.3379-30.3711 20.9961-32.7637 20.9961-35.2539ZM34.9121-59.375L29.4434-72.5098C21.8262-68.5059 15.5762-62.2559 11.5723-54.6387L24.707-49.1699C27.1484-53.418 30.6641-56.9336 34.9121-59.375ZM48.8281-63.0859C51.3184-63.0859 53.7109-62.7441 56.0059-62.1582L61.4746-75.293C57.4707-76.5625 53.2227-77.2461 48.8281-77.2461C44.4336-77.2461 40.1855-76.5625 36.1816-75.293L41.6504-62.1582C43.9453-62.7441 46.3379-63.0859 48.8281-63.0859ZM72.9492-49.1699L86.084-54.6387C82.0801-62.2559 75.8301-68.5059 68.2129-72.5098L62.7441-59.375C66.9922-56.9336 70.5078-53.418 72.9492-49.1699ZM76.6602-35.2539C76.6602-32.7637 76.3184-30.3711 75.7324-28.0762L88.8672-22.6074C90.1367-26.6113 90.8203-30.8594 90.8203-35.2539C90.8203-39.6484 90.1367-43.8965 88.8672-47.9004L75.7324-42.4316C76.3184-40.1367 76.6602-37.7441 76.6602-35.2539ZM62.7441-11.1328L68.2129 2.00195C75.8301-2.00195 82.0801-8.25195 86.084-15.8691L72.9492-21.3379C70.5078-17.0898 66.9922-13.5742 62.7441-11.1328ZM48.8281-7.42188C46.3379-7.42188 43.9453-7.76367 41.6504-8.34961L36.1816 4.78516C40.1855 6.05469 44.4336 6.73828 48.8281 6.73828C53.2227 6.73828 57.4707 6.05469 61.4746 4.78516L56.0059-8.34961C53.7109-7.76367 51.3184-7.42188 48.8281-7.42188ZM24.707-21.3379L11.5723-15.8691C15.5762-8.25195 21.8262-2.00195 29.4434 2.00195L34.9121-11.1328C30.6641-13.5742 27.1484-17.0898 24.707-21.3379ZM48.8281-14.9414C59.9121-14.9414 69.1406-24.1699 69.1406-35.2539C69.1406-46.3379 59.9121-55.5664 48.8281-55.5664C37.7441-55.5664 28.5156-46.3379 28.5156-35.2539C28.5156-24.1699 37.7441-14.9414 48.8281-14.9414ZM48.584-22.3633C42.4316-22.3633 38.3789-26.416 38.3789-28.3691C38.3789-29.1504 39.1602-29.541 39.9414-29.1992C42.041-28.125 44.4336-26.9531 48.584-26.9531C52.7344-26.9531 55.0293-28.2715 57.2266-29.1992C58.0078-29.4922 58.7891-29.1504 58.7891-28.3691C58.7891-26.416 54.6875-22.3633 48.584-22.3633ZM40.3809-37.8906C38.623-37.8906 37.207-39.4531 37.207-41.5527C37.207-43.7012 38.623-45.2637 40.3809-45.2637C42.041-45.2637 43.5547-43.7012 43.5547-41.5527C43.5547-39.4531 42.041-37.8906 40.3809-37.8906ZM56.7871-37.8906C55.0293-37.8906 53.6133-39.4531 53.6133-41.5527C53.6133-43.7012 55.0293-45.2637 56.7871-45.2637C58.4961-45.2637 60.0098-43.7012 60.0098-41.5527C60.0098-39.4531 58.4961-37.8906 56.7871-37.8906Z"/>
  </g>
  <g id="Heavy-S" transform="matrix(1 0 0 1 2588.47 696)">
   <path class="SFSymbolsPreviewWireframe" d="M19.4288-35.2539C19.4288-37.9401 19.8051-40.5286 20.4717-42.9848L8.80059-47.8428C7.53106-43.8504 6.83594-39.6254 6.83594-35.2539C6.83594-30.8824 7.53106-26.6574 8.81211-22.665L20.4717-27.523C19.8051-29.9793 19.4288-32.5678 19.4288-35.2539ZM34.0708-60.3776L29.2359-72.0027C21.6418-68.0449 15.4148-61.8179 11.457-54.2353L23.0936-49.3774C25.6733-53.9942 29.4655-57.7864 34.0708-60.3776ZM48.2058-64.0655C50.892-64.0655 53.4804-63.6776 55.9482-63.011L60.7947-74.6591C56.8138-75.9402 52.5888-76.6353 48.2058-76.6353C43.8343-76.6353 39.5978-75.9402 35.6169-74.6591L40.4749-63.011C42.9312-63.6776 45.5197-64.0655 48.2058-64.0655ZM73.3295-49.3889L84.9776-54.2353C81.0083-61.8179 74.7814-68.0449 67.1872-72.0142L62.3408-60.3776C66.9461-57.7979 70.7614-54.0057 73.3295-49.3889ZM77.0289-35.2539C77.0289-32.5678 76.6526-29.9793 75.986-27.5115L87.6225-22.665C88.9151-26.6459 89.6102-30.8824 89.6102-35.2539C89.6102-39.6254 88.9151-43.8619 87.6225-47.8428L75.9744-42.9963C76.6526-40.5286 77.0289-37.9401 77.0289-35.2539ZM62.3408-10.1302L67.1872 1.5064C74.7814-2.46293 81.0198-8.68988 84.9776-16.2725L73.3411-21.1189C70.7729-16.5021 66.9576-12.7099 62.3408-10.1302ZM48.2173-6.4423C45.5197-6.4423 42.9312-6.83019 40.4749-7.4968L35.6285 4.15131C39.6093 5.43237 43.8458 6.12748 48.2173 6.12748C52.6003 6.12748 56.8253 5.43237 60.8062 4.16284L55.9482-7.48527C53.4804-6.83019 50.9035-6.4423 48.2173-6.4423ZM23.1051-21.1189L11.457-16.2725C15.4264-8.68988 21.6418-2.46293 29.2359 1.49488L34.0708-10.1417C29.4655-12.7214 25.6733-16.5136 23.1051-21.1189ZM48.1943-13.6968C60.0274-13.6968 69.7629-23.4324 69.7514-35.2539C69.7399-47.0755 60.0043-56.811 48.1828-56.811C36.3612-56.811 26.6487-47.087 26.6487-35.2539C26.6487-23.4208 36.3727-13.6968 48.1943-13.6968ZM48.0193-21.7986C41.7286-21.7986 37.5607-25.9435 37.5607-27.9427C37.5607-28.747 38.365-29.1261 39.1232-28.7959C41.3034-27.6986 43.7537-26.4691 48.0193-26.4691C52.2964-26.4691 54.672-27.8105 56.9269-28.7959C57.6967-29.0888 58.4894-28.747 58.4894-27.9427C58.4894-25.9435 54.2957-21.7986 48.0193-21.7986ZM39.5511-38.1096C37.7126-38.1096 36.2044-39.7297 36.2044-41.9561C36.2044-44.2428 37.7126-45.8629 39.5511-45.8629C41.315-45.8629 42.9093-44.2428 42.9093-41.9561C42.9093-39.7297 41.315-38.1096 39.5511-38.1096ZM56.5105-38.1096C54.672-38.1096 53.1638-39.7297 53.1638-41.9561C53.1638-44.2428 54.672-45.8629 56.5105-45.8629C58.3117-45.8629 59.906-44.2428 59.906-41.9561C59.906-39.7297 58.3117-38.1096 56.5105-38.1096Z"/>
  </g>
  <g id="Bold-S" transform="matrix(1 0 0 1 2292.43 696)">
   <path class="SFSymbolsPreviewWireframe" d="M17.6758-35.2539C17.6758-38.1592 18.0908-40.9668 18.8477-43.6035L8.81348-47.7783C7.54395-43.7988 6.83594-39.5996 6.83594-35.2539C6.83594-30.9082 7.54395-26.709 8.83789-22.7295L18.8477-26.9043C18.0908-29.541 17.6758-32.3486 17.6758-35.2539ZM33.1299-61.499L29.0039-71.4355C21.4355-67.5293 15.2344-61.3281 11.3281-53.7842L21.2891-49.6094C24.0234-54.6387 28.125-58.7402 33.1299-61.499ZM47.5098-65.1611C50.415-65.1611 53.2227-64.7217 55.8838-63.9648L60.0342-73.9502C56.0791-75.2441 51.8799-75.9521 47.5098-75.9521C43.1641-75.9521 38.9404-75.2441 34.9854-73.9502L39.1602-63.9648C41.7969-64.7217 44.6045-65.1611 47.5098-65.1611ZM73.7549-49.6338L83.7402-53.7842C79.8096-61.3281 73.6084-67.5293 66.04-71.46L61.8896-61.499C66.8945-58.7646 71.0449-54.6631 73.7549-49.6338ZM77.4414-35.2539C77.4414-32.3486 77.0264-29.541 76.2695-26.8799L86.2305-22.7295C87.5488-26.6846 88.2568-30.9082 88.2568-35.2539C88.2568-39.5996 87.5488-43.8232 86.2305-47.7783L76.2451-43.6279C77.0264-40.9668 77.4414-38.1592 77.4414-35.2539ZM61.8896-9.00879L66.04 0.952148C73.6084-2.97852 79.834-9.17969 83.7402-16.7236L73.7793-20.874C71.0693-15.8447 66.9189-11.7432 61.8896-9.00879ZM47.5342-5.34668C44.6045-5.34668 41.7969-5.78613 39.1602-6.54297L35.0098 3.44238C38.9648 4.73633 43.1885 5.44434 47.5342 5.44434C51.9043 5.44434 56.1035 4.73633 60.0586 3.4668L55.8838-6.51855C53.2227-5.78613 50.4395-5.34668 47.5342-5.34668ZM21.3135-20.874L11.3281-16.7236C15.2588-9.17969 21.4355-2.97852 29.0039 0.927734L33.1299-9.0332C28.125-11.7676 24.0234-15.8691 21.3135-20.874ZM47.4854-12.3047C60.1562-12.3047 70.459-22.6074 70.4346-35.2539C70.4102-47.9004 60.1074-58.2031 47.4609-58.2031C34.8145-58.2031 24.5605-47.9248 24.5605-35.2539C24.5605-22.583 34.8389-12.3047 47.4854-12.3047ZM47.3877-21.167C40.9424-21.167 36.6455-25.415 36.6455-27.4658C36.6455-28.2959 37.4756-28.6621 38.208-28.3447C40.4785-27.2217 42.9932-25.9277 47.3877-25.9277C51.8066-25.9277 54.2725-27.2949 56.5918-28.3447C57.3486-28.6377 58.1543-28.2959 58.1543-27.4658C58.1543-25.415 53.8574-21.167 47.3877-21.167ZM38.623-38.3545C36.6943-38.3545 35.083-40.0391 35.083-42.4072C35.083-44.8486 36.6943-46.5332 38.623-46.5332C40.5029-46.5332 42.1875-44.8486 42.1875-42.4072C42.1875-40.0391 40.5029-38.3545 38.623-38.3545ZM56.2012-38.3545C54.2725-38.3545 52.6611-40.0391 52.6611-42.4072C52.6611-44.8486 54.2725-46.5332 56.2012-46.5332C58.1055-46.5332 59.79-44.8486 59.79-42.4072C59.79-40.0391 58.1055-38.3545 56.2012-38.3545Z"/>
  </g>
  <g id="Semibold-S" transform="matrix(1 0 0 1 1996.19 696)">
   <path class="SFSymbolsPreviewWireframe" d="M16.4672-35.2539C16.4672-38.3103 16.9089-41.2689 17.7279-44.0301L8.82236-47.7339C7.55283-43.7633 6.83594-39.5818 6.83594-35.2539C6.83594-30.926 7.55283-26.7445 8.85566-22.7739L17.7279-26.4777C16.9089-29.2389 16.4672-32.1976 16.4672-35.2539ZM32.4812-62.2722L28.8439-71.0445C21.2934-67.1738 15.11-60.9904 11.2393-53.4731L20.0449-49.7693C22.8859-55.083 27.2008-59.3979 32.4812-62.2722ZM47.0299-65.9165C50.0862-65.9165 53.0449-65.4415 55.8394-64.6225L59.5099-73.4614C55.5726-74.7643 51.3911-75.4812 47.0299-75.4812C42.702-75.4812 38.4872-74.7643 34.5499-73.4614L38.2537-64.6225C41.0148-65.4415 43.9735-65.9165 47.0299-65.9165ZM74.0481-49.8026L82.8871-53.4731C78.9831-60.9904 72.7997-67.1738 65.2491-71.0778L61.5786-62.2722C66.859-59.4312 71.2404-55.1163 74.0481-49.8026ZM77.7258-35.2539C77.7258-32.1976 77.2841-29.2389 76.465-26.4444L85.2707-22.7739C86.6068-26.7112 87.3237-30.926 87.3237-35.2539C87.3237-39.5818 86.6068-43.7966 85.2707-47.7339L76.4317-44.0634C77.2841-41.2689 77.7258-38.3103 77.7258-35.2539ZM61.5786-8.23564L65.2491 0.57002C72.7997-3.33398 79.0164-9.51738 82.8871-17.0347L74.0814-20.7052C71.2737-15.3915 66.8923-11.0767 61.5786-8.23564ZM47.0632-4.59131C43.9735-4.59131 41.0148-5.06631 38.2537-5.88535L34.5832 2.95361C38.5205 4.25645 42.7353 4.97334 47.0632 4.97334C51.4244 4.97334 55.6059 4.25645 59.5432 2.98691L55.8394-5.85205C53.0449-5.06631 50.1195-4.59131 47.0632-4.59131ZM20.0782-20.7052L11.2393-17.0347C15.1433-9.51738 21.2934-3.33398 28.8439 0.536719L32.4812-8.26895C27.2008-11.11 22.8859-15.4248 20.0782-20.7052ZM46.9966-11.3449C60.2451-11.3449 70.9389-22.0387 70.9056-35.2539C70.8723-48.4691 60.1785-59.1629 46.9633-59.1629C33.748-59.1629 23.1209-48.5024 23.1209-35.2539C23.1209-22.0054 33.7813-11.3449 46.9966-11.3449ZM46.9522-20.7315C40.4003-20.7315 36.0146-25.0507 36.0146-27.137C36.0146-27.9849 36.8624-28.3422 37.5771-28.0337C39.9098-26.8929 42.4688-25.5545 46.9522-25.5545C51.4689-25.5545 53.997-26.9395 56.3607-28.0337C57.1087-28.3267 57.9232-27.9849 57.9232-27.137C57.9232-25.0507 53.5553-20.7315 46.9522-20.7315ZM37.9832-38.5233C35.9923-38.5233 34.3099-40.2523 34.3099-42.7183C34.3099-45.2663 35.9923-46.9953 37.9832-46.9953C39.9431-46.9953 41.6898-45.2663 41.6898-42.7183C41.6898-40.2523 39.9431-38.5233 37.9832-38.5233ZM55.9879-38.5233C53.997-38.5233 52.3146-40.2523 52.3146-42.7183C52.3146-45.2663 53.997-46.9953 55.9879-46.9953C57.9633-46.9953 59.7101-45.2663 59.7101-42.7183C59.7101-40.2523 57.9633-38.5233 55.9879-38.5233Z"/>
  </g>
  <g id="Medium-S" transform="matrix(1 0 0 1 1699.83 696)">
   <path class="SFSymbolsPreviewWireframe" d="M15.5508-35.2539C15.5508-38.4248 16.0127-41.498 16.8789-44.3535L8.8291-47.7002C7.55957-43.7363 6.83594-39.5684 6.83594-35.2539C6.83594-30.9395 7.55957-26.7715 8.86914-22.8076L16.8789-26.1543C16.0127-29.0098 15.5508-32.083 15.5508-35.2539ZM31.9893-62.8584L28.7227-70.748C21.1855-66.9043 15.0156-60.7344 11.1719-53.2373L19.1016-49.8906C22.0234-55.4199 26.5-59.8965 31.9893-62.8584ZM46.666-66.4893C49.8369-66.4893 52.9102-65.9873 55.8057-65.1211L59.1123-73.0908C55.1885-74.4004 51.0205-75.124 46.666-75.124C42.3516-75.124 38.1436-74.4004 34.2197-73.0908L37.5664-65.1211C40.4219-65.9873 43.4951-66.4893 46.666-66.4893ZM74.2705-49.9307L82.2402-53.2373C78.3564-60.7344 72.1865-66.9043 64.6494-70.7881L61.3428-62.8584C66.832-59.9365 71.3887-55.46 74.2705-49.9307ZM77.9414-35.2539C77.9414-32.083 77.4795-29.0098 76.6133-26.1143L84.543-22.8076C85.8926-26.7314 86.6162-30.9395 86.6162-35.2539C86.6162-39.5684 85.8926-43.7764 84.543-47.7002L76.5732-44.3936C77.4795-41.498 77.9414-38.4248 77.9414-35.2539ZM61.3428-7.64941L64.6494 0.280273C72.1865-3.60352 78.3965-9.77344 82.2402-17.2705L74.3105-20.5771C71.4287-15.0479 66.8721-10.5713 61.3428-7.64941ZM46.7061-4.01855C43.4951-4.01855 40.4219-4.52051 37.5664-5.38672L34.2598 2.58301C38.1836 3.89258 42.3916 4.61621 46.7061 4.61621C51.0605 4.61621 55.2285 3.89258 59.1523 2.62305L55.8057-5.34668C52.9102-4.52051 49.877-4.01855 46.7061-4.01855ZM19.1416-20.5771L11.1719-17.2705C15.0557-9.77344 21.1855-3.60352 28.7227 0.240234L31.9893-7.68945C26.5-10.6113 22.0234-15.0879 19.1416-20.5771ZM46.626-10.6172C60.3125-10.6172 71.3027-21.6074 71.2627-35.2539C71.2227-48.9004 60.2324-59.8906 46.5859-59.8906C32.9395-59.8906 22.0293-48.9404 22.0293-35.2539C22.0293-21.5674 32.9795-10.6172 46.626-10.6172ZM46.6221-20.4014C39.9893-20.4014 35.5361-24.7744 35.5361-26.8877C35.5361-27.749 36.3975-28.0996 37.0986-27.7979C39.4785-26.6436 42.0713-25.2715 46.6221-25.2715C51.2129-25.2715 53.7881-26.6699 56.1855-27.7979C56.9268-28.0908 57.748-27.749 57.748-26.8877C57.748-24.7744 53.3262-20.4014 46.6221-20.4014ZM37.498-38.6514C35.46-38.6514 33.7236-40.4141 33.7236-42.9541C33.7236-45.583 35.46-47.3457 37.498-47.3457C39.5186-47.3457 41.3125-45.583 41.3125-42.9541C41.3125-40.4141 39.5186-38.6514 37.498-38.6514ZM55.8262-38.6514C53.7881-38.6514 52.0518-40.4141 52.0518-42.9541C52.0518-45.583 53.7881-47.3457 55.8262-47.3457C57.8555-47.3457 59.6494-45.583 59.6494-42.9541C59.6494-40.4141 57.8555-38.6514 55.8262-38.6514Z"/>
  </g>
  <g id="Regular-S" transform="matrix(1 0 0 1 1403.58 696)">
   <path class="SFSymbolsPreviewWireframe" d="M14.3555-35.2539C14.3555-38.5742 14.8438-41.7969 15.7715-44.7754L8.83789-47.6562C7.56836-43.7012 6.83594-39.5508 6.83594-35.2539C6.83594-30.957 7.56836-26.8066 8.88672-22.8516L15.7715-25.7324C14.8438-28.7109 14.3555-31.9336 14.3555-35.2539ZM31.3477-63.623L28.5645-70.3613C21.0449-66.5527 14.8926-60.4004 11.084-52.9297L17.8711-50.0488C20.8984-55.8594 25.5859-60.5469 31.3477-63.623ZM46.1914-67.2363C49.5117-67.2363 52.7344-66.6992 55.7617-65.7715L58.5938-72.6074C54.6875-73.9258 50.5371-74.6582 46.1914-74.6582C41.8945-74.6582 37.6953-73.9258 33.7891-72.6074L36.6699-65.7715C39.6484-66.6992 42.8711-67.2363 46.1914-67.2363ZM74.5605-50.0977L81.3965-52.9297C77.5391-60.4004 71.3867-66.5527 63.8672-70.4102L61.0352-63.623C66.7969-60.5957 71.582-55.9082 74.5605-50.0977ZM78.2227-35.2539C78.2227-31.9336 77.7344-28.7109 76.8066-25.6836L83.5938-22.8516C84.9609-26.7578 85.6934-30.957 85.6934-35.2539C85.6934-39.5508 84.9609-43.75 83.5938-47.6562L76.7578-44.8242C77.7344-41.7969 78.2227-38.5742 78.2227-35.2539ZM61.0352-6.88477L63.8672-0.0976562C71.3867-3.95508 77.5879-10.1074 81.3965-17.5781L74.6094-20.4102C71.6309-14.5996 66.8457-9.91211 61.0352-6.88477ZM46.2402-3.27148C42.8711-3.27148 39.6484-3.80859 36.6699-4.73633L33.8379 2.09961C37.7441 3.41797 41.9434 4.15039 46.2402 4.15039C50.5859 4.15039 54.7363 3.41797 58.6426 2.14844L55.7617-4.6875C52.7344-3.80859 49.5605-3.27148 46.2402-3.27148ZM17.9199-20.4102L11.084-17.5781C14.9414-10.1074 21.0449-3.95508 28.5645-0.146484L31.3477-6.93359C25.5859-9.96094 20.8984-14.6484 17.9199-20.4102ZM46.1426-9.66797C60.4004-9.66797 71.7773-21.0449 71.7285-35.2539C71.6797-49.4629 60.3027-60.8398 46.0938-60.8398C31.8848-60.8398 20.6055-49.5117 20.6055-35.2539C20.6055-20.9961 31.9336-9.66797 46.1426-9.66797ZM46.1914-19.9707C39.4531-19.9707 34.9121-24.4141 34.9121-26.5625C34.9121-27.4414 35.791-27.7832 36.4746-27.4902C38.916-26.3184 41.5527-24.9023 46.1914-24.9023C50.8789-24.9023 53.5156-26.3184 55.957-27.4902C56.6895-27.7832 57.5195-27.4414 57.5195-26.5625C57.5195-24.4141 53.0273-19.9707 46.1914-19.9707ZM36.8652-38.8184C34.7656-38.8184 32.959-40.625 32.959-43.2617C32.959-45.9961 34.7656-47.8027 36.8652-47.8027C38.9648-47.8027 40.8203-45.9961 40.8203-43.2617C40.8203-40.625 38.9648-38.8184 36.8652-38.8184ZM55.6152-38.8184C53.5156-38.8184 51.709-40.625 51.709-43.2617C51.709-45.9961 53.5156-47.8027 55.6152-47.8027C57.7148-47.8027 59.5703-45.9961 59.5703-43.2617C59.5703-40.625 57.7148-38.8184 55.6152-38.8184Z"/>
  </g>
  <g id="Light-S" transform="matrix(1 0 0 1 1107.6 696)">
   <path class="SFSymbolsPreviewWireframe" d="M12.5845-35.2539C12.5845-38.8618 13.1636-42.3569 14.2427-45.5776L8.92871-47.7925C7.59863-43.8223 6.83594-39.6113 6.83594-35.2539C6.83594-30.8965 7.59863-26.6855 8.9624-22.7153L14.2427-24.915C13.1787-28.1357 12.5845-31.646 12.5845-35.2539ZM30.6362-64.7432L28.5039-69.8921C20.8481-66.1138 14.605-59.8706 10.8267-52.2485L16.0244-50.0488C19.2031-56.3892 24.3296-61.5156 30.6362-64.7432ZM45.48-68.2353C49.0879-68.2353 52.583-67.6226 55.8525-66.5586L58.0186-71.8052C54.082-73.169 49.8711-73.9316 45.48-73.9316C41.1226-73.9316 36.8779-73.169 32.9414-71.8052L35.1563-66.5586C38.377-67.6377 41.8721-68.2353 45.48-68.2353ZM74.9692-50.0825L80.2007-52.2485C76.3887-59.8857 70.1304-66.1289 62.4746-69.9409L60.3086-64.7432C66.6304-61.5493 71.8091-56.438 74.9692-50.0825ZM78.4951-35.2539C78.4951-31.646 77.916-28.1357 76.8521-24.8814L82.065-22.7153C83.4624-26.6519 84.2251-30.8965 84.2251-35.2539C84.2251-39.6113 83.4624-43.8408 82.065-47.7773L76.8335-45.6113C77.9312-42.3569 78.4951-38.8618 78.4951-35.2539ZM60.3086-5.76466L62.4746-0.566891C70.1304-4.3789 76.4224-10.6221 80.1856-18.2441L75.0029-20.4102C71.8428-14.0698 66.6641-8.9585 60.3086-5.76466ZM45.5137-2.27247C41.8721-2.27247 38.377-2.87012 35.1563-3.94922L32.9751 1.29737C36.9116 2.66114 41.1563 3.42383 45.5137 3.42383C49.9048 3.42383 54.1006 2.67628 58.0371 1.33106L55.8223-3.9004C52.5679-2.87012 49.1064-2.27247 45.5137-2.27247ZM16.0581-20.4102L10.8418-18.2441C14.6538-10.6221 20.8633-4.3789 28.519-0.600582L30.6514-5.79835C24.3296-8.9922 19.2183-14.1035 16.0581-20.4102ZM45.4463-7.57912C60.8242-7.57912 73.1548-19.9097 73.1211-35.2539C73.0874-50.5981 60.7568-62.9287 45.4126-62.9287C30.0684-62.9287 17.8052-50.6318 17.8052-35.2539C17.8052-19.876 30.1021-7.57912 45.4463-7.57912ZM45.48-19.0171C38.6055-19.0171 33.898-23.6724 33.898-25.8208C33.898-26.5635 34.6255-26.8145 35.1729-26.5366C37.5386-25.062 40.6143-23.5098 45.48-23.5098C50.3794-23.5098 53.4702-25.0469 55.8208-26.5366C56.4019-26.8145 57.0957-26.5635 57.0957-25.8208C57.0957-23.6724 52.4219-19.0171 45.48-19.0171ZM35.4424-38.8638C33.4033-38.8638 31.627-40.731 31.627-43.3071C31.627-45.9507 33.3882-47.8179 35.4424-47.8179C37.4966-47.8179 39.3067-45.9507 39.3067-43.3071C39.3067-40.731 37.4815-38.8638 35.4424-38.8638ZM55.585-38.8638C53.5459-38.8638 51.7544-40.731 51.7544-43.3071C51.7544-45.9507 53.5308-47.8179 55.585-47.8179C57.6392-47.8179 59.4341-45.9507 59.4341-43.3071C59.4341-40.731 57.624-38.8638 55.585-38.8638Z"/>
  </g>
  <g id="Thin-S" transform="matrix(1 0 0 1 811.863 696)">
   <path class="SFSymbolsPreviewWireframe" d="M10.2422-35.2539C10.2422-39.2422 10.9414-43.0976 12.2207-46.6387L9.04883-47.9727C7.63867-43.9824 6.83594-39.6914 6.83594-35.2539C6.83594-30.8164 7.63867-26.5254 9.0625-22.5352L12.2207-23.834C10.9766-27.375 10.2422-31.2656 10.2422-35.2539ZM29.6953-66.2246L28.4238-69.2715C20.5879-65.5332 14.2246-59.1699 10.4863-51.3477L13.5821-50.0488C16.961-57.0898 22.668-62.7969 29.6953-66.2246ZM44.5391-69.5566C48.5274-69.5566 52.3828-68.8437 55.9727-67.5996L57.2578-70.7442C53.2813-72.168 48.9902-72.9707 44.5391-72.9707C40.1016-72.9707 35.7969-72.168 31.8203-70.7442L33.1543-67.5996C36.6953-68.8789 40.5508-69.5566 44.5391-69.5566ZM75.5098-50.0625L78.6192-51.3477C74.8672-59.2051 68.4688-65.5684 60.6328-69.3203L59.3477-66.2246C66.4102-62.8105 72.1094-57.1387 75.5098-50.0625ZM78.8555-35.2539C78.8555-31.2656 78.1562-27.375 76.9121-23.8203L80.043-22.5352C81.4805-26.5117 82.2832-30.8164 82.2832-35.2539C82.2832-39.6914 81.4805-43.9609 80.043-47.9375L76.9336-46.6523C78.1914-43.0976 78.8555-39.2422 78.8555-35.2539ZM59.3477-4.28322L60.6328-1.18749C68.4688-4.93945 74.8809-11.3027 78.584-19.125L75.5234-20.4102C72.123-13.3692 66.4238-7.69728 59.3477-4.28322ZM44.5527-0.95119C40.5508-0.95119 36.6953-1.62892 33.1543-2.90822L31.834 0.236343C35.8106 1.66017 40.1152 2.4629 44.5527 2.4629C49.0039 2.4629 53.2598 1.69533 57.2363 0.250015L55.9023-2.85939C52.3477-1.62892 48.5059-0.95119 44.5527-0.95119ZM13.5957-20.4102L10.5215-19.125C14.2734-11.3027 20.6231-4.93945 28.459-1.20116L29.7305-4.2969C22.668-7.71096 16.9961-13.3828 13.5957-20.4102ZM44.5254-4.81644C61.3848-4.81644 74.9765-18.4082 74.9629-35.2539C74.9492-52.0996 61.3574-65.6914 44.5117-65.6914C27.666-65.6914 14.1016-52.1133 14.1016-35.2539C14.1016-18.3946 27.6797-4.81644 44.5254-4.81644ZM44.5391-17.7559C37.4844-17.7559 32.5567-22.6914 32.5567-24.8399C32.5567-25.4024 33.084-25.5332 33.4512-25.2754C35.7168-23.4004 39.3731-21.668 44.5391-21.668C49.7188-21.668 53.4102-23.3653 55.6406-25.2754C56.0215-25.5332 56.5352-25.4024 56.5352-24.8399C56.5352-22.6914 51.6211-17.7559 44.5391-17.7559ZM33.5606-38.9238C31.6016-38.9238 29.8653-40.8711 29.8653-43.3672C29.8653-45.8906 31.5664-47.8379 33.5606-47.8379C35.5547-47.8379 37.3047-45.8906 37.3047-43.3672C37.3047-40.8711 35.5196-38.9238 33.5606-38.9238ZM55.5449-38.9238C53.5859-38.9238 51.8145-40.8711 51.8145-43.3672C51.8145-45.8906 53.5508-47.8379 55.5449-47.8379C57.5391-47.8379 59.2539-45.8906 59.2539-43.3672C59.2539-40.8711 57.5039-38.9238 55.5449-38.9238Z"/>
  </g>
  <g id="Ultralight-S" transform="matrix(1 0 0 1 515.649 696)">
   <path class="SFSymbolsPreviewWireframe" d="M9.04252-35.2539C9.04252-39.437 9.80326-43.477 11.1851-47.1821L9.11035-48.0649C7.65918-44.0645 6.83594-39.7324 6.83594-35.2539C6.83594-30.7754 7.65918-26.4434 9.11377-22.4429L11.1851-23.2803C9.84867-26.9854 9.04252-31.0708 9.04252-35.2539ZM29.2134-66.9834L28.3828-68.9536C20.4546-65.2359 14.0298-58.811 10.312-50.8862L12.3311-50.0488C15.8125-57.4487 21.8169-63.4531 29.2134-66.9834ZM44.0571-70.2334C48.2402-70.2334 52.2803-69.4692 56.0342-68.1328L56.8682-70.2007C52.8711-71.6553 48.5391-72.4785 44.0571-72.4785C39.5786-72.4785 35.2432-71.6553 31.2461-70.2007L32.1289-68.1328C35.834-69.5146 39.874-70.2334 44.0571-70.2334ZM75.7866-50.0522L77.8091-50.8862C74.0879-58.8565 67.6177-65.2813 59.6895-69.0025L58.8555-66.9834C66.2974-63.4565 72.2632-57.4975 75.7866-50.0522ZM79.04-35.2539C79.04-31.0708 78.2793-26.9854 76.9429-23.2769L79.0074-22.4429C80.4654-26.4399 81.2886-30.7754 81.2886-35.2539C81.2886-39.7324 80.4654-44.0225 79.0074-48.0195L76.9849-47.1855C78.3247-43.477 79.04-39.437 79.04-35.2539ZM58.8555-3.52444L59.6895-1.50536C67.6177-5.22655 74.0913-11.6514 77.7637-19.5762L75.79-20.4102C72.2666-13.0103 66.3008-7.05129 58.8555-3.52444ZM44.0606-0.274438C39.874-0.274438 35.834-0.993186 32.1289-2.37502L31.2495-0.30711C35.2466 1.14748 39.582 1.97072 44.0606 1.97072C48.5425 1.97072 52.8291 1.19289 56.8262-0.303692L55.9434-2.32619C52.2349-0.993186 48.1983-0.274438 44.0606-0.274438ZM12.3345-20.4102L10.3574-19.5762C14.0786-11.6514 20.5-5.22655 28.4282-1.50878L29.2588-3.52786C21.8169-7.05471 15.8579-13.0137 12.3345-20.4102ZM44.0537-3.40142C61.6719-3.40142 75.9096-17.6392 75.9062-35.2539C75.9028-52.8686 61.665-67.1064 44.0503-67.1064C26.4356-67.1064 12.2047-52.872 12.2047-35.2539C12.2047-17.6358 26.439-3.40142 44.0537-3.40142ZM44.0571-17.1099C36.9102-17.1099 31.8697-22.189 31.8697-24.3374C31.8697-24.8076 32.2945-24.877 32.5694-24.6294C34.7837-22.5493 38.7373-20.7246 44.0571-20.7246C49.3804-20.7246 53.3794-22.5039 55.5483-24.6294C55.8267-24.877 56.2481-24.8076 56.2481-24.3374C56.2481-22.189 51.211-17.1099 44.0571-17.1099ZM32.5967-38.9546C30.6787-38.9546 28.9629-40.9429 28.9629-43.3979C28.9629-45.8599 30.6333-47.8481 32.5967-47.8481C34.5601-47.8481 36.2793-45.8599 36.2793-43.3979C36.2793-40.9429 34.5147-38.9546 32.5967-38.9546ZM55.5244-38.9546C53.6064-38.9546 51.8452-40.9429 51.8452-43.3979C51.8452-45.8599 53.561-47.8481 55.5244-47.8481C57.4878-47.8481 59.1616-45.8599 59.1616-43.3979C59.1616-40.9429 57.4424-38.9546 55.5244-38.9546Z"/>
  </g>
 </g>
</svg>
