<svg xmlns="http://www.w3.org/2000/svg" version="1.1" width="3300" height="2000"><g id="Notes"><style>
    text {
      font-family: monospace;
      text-anchor: middle;
    }
    text.emphasis {
      font-weight:bold;
    }
    text.lanchor {
      text-anchor: start;
    }
  </style><rect height="2200" id="artboard" fill="white" width="3300" x="0" y="0"/><line id="" style="fill:none;stroke:black;stroke-width:0.5;" x1="263" x2="3036" y1="292" y2="292"/><text class="lanchor emphasis" transform="matrix(1 0 0 1 263 322)">Weight/Scale Variations</text><text transform="matrix(1 0 0 1 559.711 322)">Ultralight</text><text transform="matrix(1 0 0 1 856.422 322)">Thin</text><text transform="matrix(1 0 0 1 1153.13 322)">Light</text><text transform="matrix(1 0 0 1 1449.84 322)">Regular</text><text transform="matrix(1 0 0 1 1746.56 322)">Medium</text><text transform="matrix(1 0 0 1 2043.27 322)">Semibold</text><text transform="matrix(1 0 0 1 2339.98 322)">Bold</text><text transform="matrix(1 0 0 1 2636.69 322)">Heavy</text><text transform="matrix(1 0 0 1 2933.4 322)">Black</text><text id="template-version" style="text-anchor: end;" transform="matrix(1 0 0 1 3036 1933)">Template v.1.0</text><text class="lanchor" transform="matrix(1 0 0 1 263 726)">Small</text><text class="lanchor" transform="matrix(1 0 0 1 263 1156)">Medium</text><text class="lanchor" transform="matrix(1 0 0 1 263 1586)">Large</text></g><g id="Guides"><g id="H-reference" style="fill:#27AAE1;stroke:none;" transform="matrix(1 0 0 1 339 696)"><path d="M 54.9316 0 L 57.666 0 L 30.5664 -70.459 L 28.0762 -70.459 L 0.976562 0 L 3.66211 0 L 12.9395 -24.4629 L 45.7031 -24.4629 Z M 29.1992 -67.0898 L 29.4434 -67.0898 L 44.8242 -26.709 L 13.8184 -26.709 Z"/></g><line id="Baseline-S" style="fill:none;stroke:#27AAE1;opacity:1;stroke-width:0.577;" x1="263" x2="3036" y1="696" y2="696"/><line id="Capline-S" style="fill:none;stroke:#27AAE1;opacity:1;stroke-width:0.577;" x1="263" x2="3036" y1="625.541" y2="625.541"/><g id="H-reference" style="fill:#27AAE1;stroke:none;" transform="matrix(1 0 0 1 339 1126)"><path d="M 54.9316 0 L 57.666 0 L 30.5664 -70.459 L 28.0762 -70.459 L 0.976562 0 L 3.66211 0 L 12.9395 -24.4629 L 45.7031 -24.4629 Z M 29.1992 -67.0898 L 29.4434 -67.0898 L 44.8242 -26.709 L 13.8184 -26.709 Z"/></g><line id="Baseline-M" style="fill:none;stroke:#27AAE1;opacity:1;stroke-width:0.577;" x1="263" x2="3036" y1="1126" y2="1126"/><line id="Capline-M" style="fill:none;stroke:#27AAE1;opacity:1;stroke-width:0.577;" x1="263" x2="3036" y1="1055.54" y2="1055.54"/><g id="H-reference" style="fill:#27AAE1;stroke:none;" transform="matrix(1 0 0 1 339 1556)"><path d="M 54.9316 0 L 57.666 0 L 30.5664 -70.459 L 28.0762 -70.459 L 0.976562 0 L 3.66211 0 L 12.9395 -24.4629 L 45.7031 -24.4629 Z M 29.1992 -67.0898 L 29.4434 -67.0898 L 44.8242 -26.709 L 13.8184 -26.709 Z"/></g><line id="Baseline-L" style="fill:none;stroke:#27AAE1;opacity:1;stroke-width:0.577;" x1="263" x2="3036" y1="1556" y2="1556"/><line id="Capline-L" style="fill:none;stroke:#27AAE1;opacity:1;stroke-width:0.577;" x1="263" x2="3036" y1="1485.54" y2="1485.54"/><rect height="119.336" id="left-margin" style="fill:darkred;stroke:none;opacity:0.4;" width="12.4512" x="1394.06" y="1030.79"/><rect height="119.336" id="right-margin" style="fill:darkgreen;stroke:none;opacity:0.4;" width="12.4512" x="1502.5112" y="1030.79"/><rect x="1406.5112" y="1045" width="96" height="96" fill="none" stroke="blue" stroke-dasharray="5"/><rect x="1394.06" y="1030.79" width="120.9024" height="119.336" fill="none" stroke="blue"/></g><g id="Symbols"><g id="Bold-L" transform="matrix(1 0 0 1 2266 1556)"><path d="M86.349 -39.276 Q89.978 -42.838 89.978 -48.145 Q89.978 -53.451 86.335 -57.079 Q82.692 -60.707 77.385 -60.707 Q72.079 -60.707 68.531 -57.065 Q64.984 -53.422 64.984 -48.115 Q64.984 -42.809 68.546 -39.261 Q72.108 -35.714 77.415 -35.714 Q82.721 -35.714 86.349 -39.276 Z M77.4 33.301 Q49.504 10.081 35.636 -9.188 Q21.769 -28.457 21.769 -47.324 Q21.769 -73.124 38.619 -88.523 Q55.47 -103.922 77.4 -103.922 Q99.33 -103.922 116.261 -88.523 Q133.192 -73.124 133.192 -47.324 Q133.192 -28.457 119.244 -9.188 Q105.296 10.081 77.4 33.301 Z"/></g><g id="Semibold-L" transform="matrix(1 0 0 1 1970.27 1556)"><path d="M85.929 -39.661 Q89.416 -43.118 89.416 -48.145 Q89.416 -53.171 85.914 -56.659 Q82.412 -60.146 77.385 -60.146 Q72.359 -60.146 68.917 -56.644 Q65.474 -53.142 65.474 -48.115 Q65.474 -43.089 68.931 -39.647 Q72.388 -36.204 77.415 -36.204 Q82.441 -36.204 85.929 -39.661 Z M77.4 31.548 Q50.345 8.819 36.933 -10.31 Q23.522 -29.44 23.522 -47.114 Q23.522 -72.213 39.811 -87.156 Q56.1 -102.1 77.4 -102.1 Q98.7 -102.1 115.034 -87.156 Q131.37 -72.213 131.37 -47.114 Q131.37 -29.44 117.912 -10.31 Q104.455 8.819 77.4 31.548 Z"/></g><g id="Medium-L" transform="matrix(1 0 0 1 1674.31 1556)"><path d="M85.612 -39.95 Q88.995 -43.328 88.995 -48.145 Q88.995 -52.961 85.6 -56.342 Q82.202 -59.725 77.385 -59.725 Q72.569 -59.725 69.205 -56.33 Q65.843 -52.932 65.843 -48.115 Q65.843 -43.299 69.22 -39.935 Q72.598 -36.573 77.415 -36.573 Q82.231 -36.573 85.612 -39.95 Z M77.4 30.234 Q50.976 7.872 37.907 -11.151 Q24.836 -30.175 24.836 -46.956 Q24.836 -71.529 40.704 -86.13 Q56.575 -100.733 77.4 -100.733 Q98.225 -100.733 114.113 -86.13 Q130.003 -71.529 130.003 -46.956 Q130.003 -30.175 116.913 -11.151 Q103.824 7.872 77.4 30.234 Z"/></g><g id="Regular-L" transform="matrix(1 0 0 1 1378.56 1556)"><path d="M85.382 -40.163 Q88.688 -43.483 88.688 -48.145 Q88.688 -52.806 85.367 -56.112 Q82.047 -59.417 77.385 -59.417 Q72.724 -59.417 69.418 -56.097 Q66.112 -52.777 66.112 -48.115 Q66.112 -43.454 69.433 -40.148 Q72.753 -36.842 77.415 -36.842 Q82.076 -36.842 85.382 -40.163 Z M77.4 29.27 Q51.439 7.179 38.619 -11.768 Q25.8 -30.715 25.8 -46.84 Q25.8 -71.027 41.361 -85.379 Q56.921 -99.73 77.4 -99.73 Q97.879 -99.73 113.439 -85.379 Q129 -71.027 129 -46.84 Q129 -30.715 116.181 -11.768 Q103.361 7.179 77.4 29.27 Z"/></g><g id="Light-L" transform="matrix(1 0 0 1 1082.77 1556)"><path d="M84.824 -40.353 Q87.881 -43.43 87.881 -47.777 Q87.881 -52.124 84.805 -55.181 Q81.728 -58.239 77.381 -58.239 Q73.033 -58.239 69.976 -55.162 Q66.919 -52.085 66.919 -47.738 Q66.919 -43.392 69.995 -40.334 Q73.072 -37.276 77.419 -37.276 Q81.767 -37.276 84.824 -40.353 Z M77.4 26.106 Q53.051 5.008 40.883 -13.163 Q28.715 -31.336 28.715 -46.53 Q28.715 -68.857 43.159 -82.681 Q57.603 -96.505 77.4 -96.505 Q97.197 -96.505 111.641 -82.681 Q126.085 -68.857 126.085 -46.53 Q126.085 -31.336 113.917 -13.163 Q101.749 5.008 77.4 26.106 Z"/></g><g id="Thin-L" transform="matrix(1 0 0 1 787.282 1556)"><path d="M84.266 -40.545 Q87.075 -43.378 87.075 -47.409 Q87.075 -51.442 84.242 -54.251 Q81.407 -57.06 77.376 -57.06 Q73.345 -57.06 70.534 -54.227 Q67.725 -51.394 67.725 -47.361 Q67.725 -43.33 70.558 -40.521 Q73.393 -37.71 77.424 -37.71 Q81.455 -37.71 84.266 -40.545 Z M77.4 22.944 Q54.664 2.838 43.147 -14.559 Q31.629 -31.955 31.629 -46.219 Q31.629 -66.687 44.958 -79.983 Q58.285 -93.28 77.4 -93.28 Q96.515 -93.28 109.842 -79.983 Q123.171 -66.687 123.171 -46.219 Q123.171 -31.955 111.653 -14.559 Q100.136 2.838 77.4 22.944 Z"/></g><g id="Ultralight-L" transform="matrix(1 0 0 1 491.205 1556)"><path d="M83.931 -40.659 Q86.591 -43.347 86.591 -47.19 Q86.591 -51.032 83.903 -53.693 Q81.215 -56.354 77.373 -56.354 Q73.53 -56.354 70.869 -53.666 Q68.209 -50.978 68.209 -47.135 Q68.209 -43.292 70.897 -40.632 Q73.585 -37.971 77.427 -37.971 Q81.27 -37.971 83.931 -40.659 Z M77.4 21.046 Q55.631 1.535 44.505 -15.396 Q33.379 -32.327 33.379 -46.034 Q33.379 -65.384 46.037 -78.364 Q58.695 -91.345 77.4 -91.345 Q96.105 -91.345 108.763 -78.364 Q121.421 -65.384 121.421 -46.034 Q121.421 -32.327 110.295 -15.396 Q99.169 1.535 77.4 21.046 Z"/></g><g id="Bold-M" transform="matrix(1 0 0 1 2281.8 1126)"><path d="M68 -37.23 Q71.25 -40.48 71.25 -45.23 Q71.25 -49.98 68 -53.23 Q64.75 -56.48 60 -56.48 Q55.25 -56.48 52 -53.23 Q48.75 -49.98 48.75 -45.23 Q48.75 -40.48 52 -37.23 Q55.25 -33.98 60 -33.98 Q64.75 -33.98 68 -37.23 Z M60 19.02 Q37.875 0.645 26.812 -14.355 Q15.75 -29.355 15.75 -44.73 Q15.75 -65.23 29.125 -77.355 Q42.5 -89.48 60 -89.48 Q77.5 -89.48 90.875 -77.355 Q104.25 -65.23 104.25 -44.73 Q104.25 -29.355 93.188 -14.355 Q82.125 0.645 60 19.02 Z"/></g><g id="Semibold-M" transform="matrix(1 0 0 1 1985.97 1126)"><path d="M67.593 -37.637 Q70.706 -40.751 70.706 -45.23 Q70.706 -49.709 67.593 -52.822 Q64.479 -55.936 60 -55.936 Q55.521 -55.936 52.407 -52.822 Q49.294 -49.709 49.294 -45.23 Q49.294 -40.751 52.407 -37.637 Q55.521 -34.524 60 -34.524 Q64.479 -34.524 67.593 -37.637 Z M60 17.173 Q38.745 -0.659 28.171 -15.524 Q17.598 -30.387 17.598 -44.512 Q17.598 -64.251 30.402 -75.942 Q43.206 -87.632 60 -87.632 Q76.794 -87.632 89.597 -75.942 Q102.403 -64.251 102.403 -44.512 Q102.403 -30.387 91.829 -15.524 Q81.255 -0.659 60 17.173 Z"/></g><g id="Medium-M" transform="matrix(1 0 0 1 1689.91 1126)"><path d="M67.286 -37.944 Q70.299 -40.955 70.299 -45.23 Q70.299 -49.505 67.286 -52.516 Q64.275 -55.529 60 -55.529 Q55.725 -55.529 52.714 -52.516 Q49.701 -49.505 49.701 -45.23 Q49.701 -40.955 52.714 -37.944 Q55.725 -34.931 60 -34.931 Q64.275 -34.931 67.286 -37.944 Z M60 15.786 Q39.396 -1.637 29.19 -16.4 Q18.984 -31.162 18.984 -44.35 Q18.984 -63.517 31.36 -74.882 Q43.736 -86.246 60 -86.246 Q76.264 -86.246 88.64 -74.882 Q101.016 -63.517 101.016 -44.35 Q101.016 -31.162 90.81 -16.4 Q80.604 -1.637 60 15.786 Z"/></g><g id="Regular-M" transform="matrix(1 0 0 1 1394.06 1126)"><path d="M67.062 -38.167 Q70 -41.105 70 -45.23 Q70 -49.355 67.062 -52.292 Q64.125 -55.23 60 -55.23 Q55.875 -55.23 52.938 -52.292 Q50 -49.355 50 -45.23 Q50 -41.105 52.938 -38.167 Q55.875 -35.23 60 -35.23 Q64.125 -35.23 67.062 -38.167 Z M60 14.77 Q39.875 -2.355 29.938 -17.042 Q20 -31.73 20 -44.23 Q20 -62.98 32.062 -74.105 Q44.125 -85.23 60 -85.23 Q75.875 -85.23 87.938 -74.105 Q100 -62.98 100 -44.23 Q100 -31.73 90.062 -17.042 Q80.125 -2.355 60 14.77 Z"/></g><g id="Light-M" transform="matrix(1 0 0 1 1098.18 1126)"><path d="M66.389 -38.552 Q69.039 -41.201 69.039 -44.941 Q69.039 -48.681 66.389 -51.331 Q63.74 -53.98 60 -53.98 Q56.26 -53.98 53.611 -51.331 Q50.961 -48.681 50.961 -44.941 Q50.961 -41.201 53.611 -38.552 Q56.26 -35.904 60 -35.904 Q63.74 -35.904 66.389 -38.552 Z M60 12.318 Q41.125 -4.037 31.692 -18.124 Q22.26 -32.211 22.26 -43.99 Q22.26 -61.297 33.456 -72.014 Q44.654 -82.73 60 -82.73 Q75.346 -82.73 86.544 -72.014 Q97.74 -61.297 97.74 -43.99 Q97.74 -32.211 88.308 -18.124 Q78.875 -4.037 60 12.318 Z"/></g><g id="Thin-M" transform="matrix(1 0 0 1 802.565 1126)"><path d="M65.716 -38.936 Q68.078 -41.297 68.078 -44.652 Q68.078 -48.009 65.716 -50.37 Q63.356 -52.73 60 -52.73 Q56.644 -52.73 54.284 -50.37 Q51.922 -48.009 51.922 -44.652 Q51.922 -41.297 54.284 -38.936 Q56.644 -36.576 60 -36.576 Q63.356 -36.576 65.716 -38.936 Z M60 9.866 Q42.375 -5.72 33.447 -19.206 Q24.519 -32.691 24.519 -43.749 Q24.519 -59.615 34.851 -69.922 Q45.182 -80.23 60 -80.23 Q74.817 -80.23 85.149 -69.922 Q95.481 -59.615 95.481 -43.749 Q95.481 -32.691 86.552 -19.206 Q77.625 -5.72 60 9.866 Z"/></g><g id="Ultralight-M" transform="matrix(1 0 0 1 506.415 1126)"><path d="M65.312 -39.167 Q67.5 -41.355 67.5 -44.48 Q67.5 -47.605 65.312 -49.792 Q63.125 -51.98 60 -51.98 Q56.875 -51.98 54.688 -49.792 Q52.5 -47.605 52.5 -44.48 Q52.5 -41.355 54.688 -39.167 Q56.875 -36.98 60 -36.98 Q63.125 -36.98 65.312 -39.167 Z M60 8.395 Q43.125 -6.73 34.5 -19.855 Q25.875 -32.98 25.875 -43.605 Q25.875 -58.605 35.688 -68.667 Q45.5 -78.73 60 -78.73 Q74.5 -78.73 84.312 -68.667 Q94.125 -58.605 94.125 -43.605 Q94.125 -32.98 85.5 -19.855 Q76.875 -6.73 60 8.395 Z"/></g><g id="Bold-S" transform="matrix(1 0 0 1 2294.23 696)"><path d="M53.11 -36.561 Q55.427 -38.879 55.427 -42.331 Q55.427 -45.783 53.11 -48.101 Q50.792 -50.418 47.34 -50.418 Q43.888 -50.418 41.57 -48.101 Q39.253 -45.783 39.253 -42.331 Q39.253 -38.879 41.57 -36.561 Q43.888 -34.244 47.34 -34.244 Q50.792 -34.244 53.11 -36.561 Z M47.34 5.995 Q30.278 -7.911 21.747 -19.253 Q13.216 -30.595 13.216 -42.43 Q13.216 -57.026 23.029 -66.741 Q32.842 -76.455 47.34 -76.455 Q61.739 -76.455 71.602 -66.741 Q81.464 -57.026 81.464 -42.43 Q81.464 -30.595 72.983 -19.302 Q64.501 -8.009 47.34 5.995 Z"/></g><g id="Semibold-S" transform="matrix(1 0 0 1 1998.1 696)"><path d="M52.788 -36.883 Q54.998 -39.093 54.998 -42.331 Q54.998 -45.569 52.788 -47.779 Q50.578 -49.989 47.34 -49.989 Q44.102 -49.989 41.892 -47.779 Q39.682 -45.569 39.682 -42.331 Q39.682 -39.093 41.892 -36.883 Q44.102 -34.673 47.34 -34.673 Q50.578 -34.673 52.788 -36.883 Z M47.34 4.538 Q30.964 -8.94 22.819 -20.175 Q14.673 -31.409 14.673 -42.258 Q14.673 -56.254 24.037 -65.626 Q33.399 -74.998 47.34 -74.998 Q61.182 -74.998 70.594 -65.626 Q80.007 -56.254 80.007 -42.258 Q80.007 -31.409 71.91 -20.224 Q63.814 -9.038 47.34 4.538 Z"/></g><g id="Medium-S" transform="matrix(1 0 0 1 1701.85 696)"><path d="M52.546 -37.125 Q54.677 -39.254 54.677 -42.331 Q54.677 -45.408 52.546 -47.537 Q50.417 -49.668 47.34 -49.668 Q44.263 -49.668 42.134 -47.537 Q40.003 -45.408 40.003 -42.331 Q40.003 -39.254 42.134 -37.125 Q44.263 -34.994 47.34 -34.994 Q50.417 -34.994 52.546 -37.125 Z M47.34 3.444 Q31.478 -9.712 23.623 -20.866 Q15.767 -32.021 15.767 -42.13 Q15.767 -55.675 24.792 -64.79 Q33.818 -73.904 47.34 -73.904 Q60.764 -73.904 69.838 -64.79 Q78.913 -55.675 78.913 -42.13 Q78.913 -32.021 71.107 -20.916 Q63.3 -9.81 47.34 3.444 Z"/></g><g id="Regular-S" transform="matrix(1 0 0 1 1405.73 696)"><path d="M52.37 -37.301 Q54.441 -39.372 54.441 -42.331 Q54.441 -45.29 52.37 -47.361 Q50.299 -49.432 47.34 -49.432 Q44.381 -49.432 42.31 -47.361 Q40.239 -45.29 40.239 -42.331 Q40.239 -39.372 42.31 -37.301 Q44.381 -35.23 47.34 -35.23 Q50.299 -35.23 52.37 -37.301 Z M47.34 2.642 Q31.856 -10.278 24.212 -21.373 Q16.569 -32.468 16.569 -42.035 Q16.569 -55.251 25.347 -64.176 Q34.124 -73.102 47.34 -73.102 Q60.457 -73.102 69.284 -64.176 Q78.111 -55.251 78.111 -42.035 Q78.111 -32.468 70.517 -21.422 Q62.923 -10.376 47.34 2.642 Z"/></g><g id="Light-S" transform="matrix(1 0 0 1 1109.75 696)"><path d="M51.838 -37.605 Q53.683 -39.448 53.683 -42.103 Q53.683 -44.758 51.838 -46.602 Q49.995 -48.446 47.34 -48.446 Q44.685 -48.446 42.842 -46.602 Q40.997 -44.758 40.997 -42.103 Q40.997 -39.448 42.842 -37.605 Q44.685 -35.762 47.34 -35.762 Q49.995 -35.762 51.838 -37.605 Z M47.34 0.707 Q32.842 -11.605 25.597 -22.226 Q18.352 -32.848 18.352 -41.846 Q18.352 -53.923 26.446 -62.526 Q34.541 -71.129 47.34 -71.129 Q60.04 -71.129 68.184 -62.526 Q76.328 -53.923 76.328 -41.846 Q76.328 -32.848 69.132 -22.276 Q61.937 -11.704 47.34 0.707 Z"/></g><g id="Thin-S" transform="matrix(1 0 0 1 814.015 696)"><path d="M51.308 -37.908 Q52.924 -39.524 52.924 -41.875 Q52.924 -44.228 51.308 -45.844 Q49.692 -47.459 47.34 -47.459 Q44.988 -47.459 43.372 -45.844 Q41.756 -44.228 41.756 -41.875 Q41.756 -39.524 43.372 -37.908 Q44.988 -36.292 47.34 -36.292 Q49.692 -36.292 51.308 -37.908 Z M47.34 -1.227 Q33.828 -12.933 26.982 -23.08 Q20.134 -33.227 20.134 -41.655 Q20.134 -52.596 27.547 -60.876 Q34.959 -69.157 47.34 -69.157 Q59.623 -69.157 67.084 -60.876 Q74.546 -52.596 74.546 -41.655 Q74.546 -33.227 67.747 -23.13 Q60.95 -13.031 47.34 -1.227 Z"/></g><g id="Ultralight-S" transform="matrix(1 0 0 1 517.792 696)"><path d="M50.989 -38.09 Q52.468 -39.569 52.468 -41.739 Q52.468 -43.909 50.989 -45.388 Q49.51 -46.868 47.34 -46.868 Q45.17 -46.868 43.691 -45.388 Q42.212 -43.909 42.212 -41.739 Q42.212 -39.569 43.691 -38.09 Q45.17 -36.611 47.34 -36.611 Q49.51 -36.611 50.989 -38.09 Z M47.34 -2.388 Q34.42 -13.73 27.812 -23.592 Q21.204 -33.455 21.204 -41.542 Q21.204 -51.799 28.207 -59.886 Q35.209 -67.973 47.34 -67.973 Q59.372 -67.973 66.424 -59.886 Q73.476 -51.799 73.476 -41.542 Q73.476 -33.455 66.917 -23.642 Q60.358 -13.828 47.34 -2.388 Z"/></g></g></svg>