<?xml version="1.0" encoding="UTF-8"?>
<!--Generator: Apple Native CoreSVG 232.5-->
<!DOCTYPE svg
PUBLIC "-//W3C//DTD SVG 1.1//EN"
       "http://www.w3.org/Graphics/SVG/1.1/DTD/svg11.dtd">
<svg version="1.1" xmlns="http://www.w3.org/2000/svg" xmlns:xlink="http://www.w3.org/1999/xlink" width="3300" height="2200">
 <!--glyph: "uni100150.medium", point size: 100.0, font version: "19.2d2e1", template writer version: "128"-->
 <style>.SFSymbolsPreviewWireframe {fill:none;opacity:1.0;stroke:black;stroke-width:0.5}
</style>
 <g id="Notes">
  <rect height="2200" id="artboard" style="fill:white;opacity:1" width="3300" x="0" y="0"/>
  <line style="fill:none;stroke:black;opacity:1;stroke-width:0.5;" x1="263" x2="3036" y1="292" y2="292"/>
  <text style="stroke:none;fill:black;font-family:sans-serif;font-size:13;font-weight:bold;" transform="matrix(1 0 0 1 263 322)">Weight/Scale Variations</text>
  <text style="stroke:none;fill:black;font-family:sans-serif;font-size:13;text-anchor:middle;" transform="matrix(1 0 0 1 559.711 322)">Ultralight</text>
  <text style="stroke:none;fill:black;font-family:sans-serif;font-size:13;text-anchor:middle;" transform="matrix(1 0 0 1 856.422 322)">Thin</text>
  <text style="stroke:none;fill:black;font-family:sans-serif;font-size:13;text-anchor:middle;" transform="matrix(1 0 0 1 1153.13 322)">Light</text>
  <text style="stroke:none;fill:black;font-family:sans-serif;font-size:13;text-anchor:middle;" transform="matrix(1 0 0 1 1449.84 322)">Regular</text>
  <text style="stroke:none;fill:black;font-family:sans-serif;font-size:13;text-anchor:middle;" transform="matrix(1 0 0 1 1746.56 322)">Medium</text>
  <text style="stroke:none;fill:black;font-family:sans-serif;font-size:13;text-anchor:middle;" transform="matrix(1 0 0 1 2043.27 322)">Semibold</text>
  <text style="stroke:none;fill:black;font-family:sans-serif;font-size:13;text-anchor:middle;" transform="matrix(1 0 0 1 2339.98 322)">Bold</text>
  <text style="stroke:none;fill:black;font-family:sans-serif;font-size:13;text-anchor:middle;" transform="matrix(1 0 0 1 2636.69 322)">Heavy</text>
  <text style="stroke:none;fill:black;font-family:sans-serif;font-size:13;text-anchor:middle;" transform="matrix(1 0 0 1 2933.4 322)">Black</text>
  <line style="fill:none;stroke:black;opacity:1;stroke-width:0.5;" x1="263" x2="3036" y1="1903" y2="1903"/>
  <g transform="matrix(0.2 0 0 0.2 263 1933)">
   <path d="m46.2402 4.15039c21.5332 0 39.4531-17.8711 39.4531-39.4043s-17.9688-39.4043-39.502-39.4043c-21.4844 0-39.3555 17.8711-39.3555 39.4043s17.9199 39.4043 39.4043 39.4043Zm0-7.42188c-17.7246 0-31.8848-14.209-31.8848-31.9824s14.1113-31.9824 31.8359-31.9824c17.7734 0 32.0312 14.209 32.0312 31.9824s-14.209 31.9824-31.9824 31.9824Zm-17.9688-31.9824c0 2.14844 1.51367 3.61328 3.75977 3.61328h10.498v10.5957c0 2.19727 1.46484 3.71094 3.61328 3.71094 2.24609 0 3.71094-1.51367 3.71094-3.71094v-10.5957h10.5957c2.19727 0 3.71094-1.46484 3.71094-3.61328 0-2.19727-1.51367-3.71094-3.71094-3.71094h-10.5957v-10.5469c0-2.24609-1.46484-3.75977-3.71094-3.75977-2.14844 0-3.61328 1.51367-3.61328 3.75977v10.5469h-10.498c-2.24609 0-3.75977 1.51367-3.75977 3.71094Z"/>
  </g>
  <g transform="matrix(0.2 0 0 0.2 281.506 1933)">
   <path d="m58.5449 14.5508c27.2461 0 49.8047-22.6074 49.8047-49.8047 0-27.2461-22.6074-49.8047-49.8535-49.8047-27.1973 0-49.7559 22.5586-49.7559 49.8047 0 27.1973 22.6074 49.8047 49.8047 49.8047Zm0-8.30078c-23.0469 0-41.4551-18.457-41.4551-41.5039s18.3594-41.5039 41.4062-41.5039 41.5527 18.457 41.5527 41.5039-18.457 41.5039-41.5039 41.5039Zm-22.6562-41.5039c0 2.39258 1.66016 4.00391 4.15039 4.00391h14.3555v14.4043c0 2.44141 1.66016 4.15039 4.05273 4.15039 2.44141 0 4.15039-1.66016 4.15039-4.15039v-14.4043h14.4043c2.44141 0 4.15039-1.61133 4.15039-4.00391 0-2.44141-1.70898-4.15039-4.15039-4.15039h-14.4043v-14.3555c0-2.49023-1.70898-4.19922-4.15039-4.19922-2.39258 0-4.05273 1.70898-4.05273 4.19922v14.3555h-14.3555c-2.49023 0-4.15039 1.70898-4.15039 4.15039Z"/>
  </g>
  <g transform="matrix(0.2 0 0 0.2 304.924 1933)">
   <path d="m74.8535 28.3203c34.8145 0 63.623-28.8086 63.623-63.5742 0-34.8145-28.8574-63.623-63.6719-63.623-34.7656 0-63.5254 28.8086-63.5254 63.623 0 34.7656 28.8086 63.5742 63.5742 63.5742Zm0-9.08203c-30.1758 0-54.4434-24.3164-54.4434-54.4922 0-30.2246 24.2188-54.4922 54.3945-54.4922 30.2246 0 54.541 24.2676 54.541 54.4922 0 30.1758-24.2676 54.4922-54.4922 54.4922Zm-28.8574-54.4922c0 2.58789 1.85547 4.39453 4.58984 4.39453h19.7266v19.7754c0 2.68555 1.85547 4.58984 4.44336 4.58984 2.68555 0 4.54102-1.85547 4.54102-4.58984v-19.7754h19.7754c2.68555 0 4.58984-1.80664 4.58984-4.39453 0-2.73438-1.85547-4.58984-4.58984-4.58984h-19.7754v-19.7266c0-2.73438-1.85547-4.63867-4.54102-4.63867-2.58789 0-4.44336 1.9043-4.44336 4.63867v19.7266h-19.7266c-2.73438 0-4.58984 1.85547-4.58984 4.58984Z"/>
  </g>
  <text style="stroke:none;fill:black;font-family:sans-serif;font-size:13;font-weight:bold;" transform="matrix(1 0 0 1 263 1953)">Design Variations</text>
  <text style="stroke:none;fill:black;font-family:sans-serif;font-size:13;" transform="matrix(1 0 0 1 263 1971)">Symbols are supported in up to nine weights and three scales.</text>
  <text style="stroke:none;fill:black;font-family:sans-serif;font-size:13;" transform="matrix(1 0 0 1 263 1989)">For optimal layout with text and other symbols, vertically align</text>
  <text style="stroke:none;fill:black;font-family:sans-serif;font-size:13;" transform="matrix(1 0 0 1 263 2007)">symbols with the adjacent text.</text>
  <line style="fill:none;stroke:#00AEEF;stroke-width:0.5;opacity:1.0;" x1="776" x2="776" y1="1919" y2="1933"/>
  <g transform="matrix(0.2 0 0 0.2 776 1933)">
   <path d="m16.5527 0.78125c2.58789 0 3.85742-0.976562 4.78516-3.71094l6.29883-17.2363h28.8086l6.29883 17.2363c0.927734 2.73438 2.19727 3.71094 4.73633 3.71094 2.58789 0 4.24805-1.5625 4.24805-4.00391 0-0.830078-0.146484-1.61133-0.537109-2.63672l-22.9004-60.9863c-1.12305-2.97852-3.125-4.49219-6.25-4.49219-3.02734 0-5.07812 1.46484-6.15234 4.44336l-22.9004 61.084c-0.390625 1.02539-0.537109 1.80664-0.537109 2.63672 0 2.44141 1.5625 3.95508 4.10156 3.95508Zm13.4766-28.3691 11.8652-32.8613h0.244141l11.8652 32.8613Z"/>
  </g>
  <line style="fill:none;stroke:#00AEEF;stroke-width:0.5;opacity:1.0;" x1="792.836" x2="792.836" y1="1919" y2="1933"/>
  <text style="stroke:none;fill:black;font-family:sans-serif;font-size:13;font-weight:bold;" transform="matrix(1 0 0 1 776 1953)">Margins</text>
  <text style="stroke:none;fill:black;font-family:sans-serif;font-size:13;" transform="matrix(1 0 0 1 776 1971)">Leading and trailing margins on the left and right side of each symbol</text>
  <text style="stroke:none;fill:black;font-family:sans-serif;font-size:13;" transform="matrix(1 0 0 1 776 1989)">can be adjusted by modifying the x-location of the margin guidelines.</text>
  <text style="stroke:none;fill:black;font-family:sans-serif;font-size:13;" transform="matrix(1 0 0 1 776 2007)">Modifications are automatically applied proportionally to all</text>
  <text style="stroke:none;fill:black;font-family:sans-serif;font-size:13;" transform="matrix(1 0 0 1 776 2025)">scales and weights.</text>
  <g transform="matrix(0.2 0 0 0.2 1289 1933)">
   <path d="m14.209 9.32617 8.49609 8.54492c4.29688 4.3457 9.22852 4.05273 13.8672-1.07422l53.4668-58.9355-4.83398-4.88281-53.0762 58.3984c-1.75781 2.00195-3.41797 2.49023-5.76172 0.146484l-5.85938-5.81055c-2.34375-2.29492-1.80664-4.00391 0.195312-5.81055l57.373-54.0039-4.88281-4.83398-57.959 54.4434c-4.93164 4.58984-5.32227 9.47266-1.02539 13.8184Zm32.0801-90.9668c-2.09961 2.05078-2.24609 4.93164-1.07422 6.88477 1.17188 1.80664 3.4668 2.97852 6.68945 2.14844 7.32422-1.70898 14.9414-2.00195 22.0703 2.68555l-2.92969 7.27539c-1.70898 4.15039-0.830078 7.08008 1.85547 9.81445l11.4746 11.5723c2.44141 2.44141 4.49219 2.53906 7.32422 2.05078l5.32227-0.976562 3.32031 3.36914-0.195312 2.7832c-0.195312 2.49023 0.439453 4.39453 2.88086 6.78711l3.80859 3.71094c2.39258 2.39258 5.46875 2.53906 7.8125 0.195312l14.5508-14.5996c2.34375-2.34375 2.24609-5.32227-0.146484-7.71484l-3.85742-3.80859c-2.39258-2.39258-4.24805-3.17383-6.64062-2.97852l-2.88086 0.244141-3.22266-3.17383 1.2207-5.61523c0.634766-2.83203-0.146484-5.0293-3.07617-7.95898l-10.9863-10.9375c-16.6992-16.6016-38.8672-16.2109-53.3203-1.75781Zm7.4707 1.85547c12.1582-8.88672 28.6133-7.37305 39.7461 3.75977l12.1582 12.0605c1.17188 1.17188 1.36719 2.09961 1.02539 3.80859l-1.61133 7.42188 7.51953 7.42188 4.93164-0.292969c1.26953-0.0488281 1.66016 0.0488281 2.63672 1.02539l2.88086 2.88086-12.207 12.207-2.88086-2.88086c-0.976562-0.976562-1.12305-1.36719-1.07422-2.68555l0.341797-4.88281-7.4707-7.42188-7.61719 1.26953c-1.61133 0.341797-2.34375 0.195312-3.56445-0.976562l-10.0098-10.0098c-1.26953-1.17188-1.41602-2.00195-0.634766-3.85742l4.39453-10.4492c-7.8125-7.27539-17.9688-10.4004-28.125-7.42188-0.78125 0.195312-1.07422-0.439453-0.439453-0.976562Z"/>
  </g>
  <text style="stroke:none;fill:black;font-family:sans-serif;font-size:13;font-weight:bold;" transform="matrix(1 0 0 1 1289 1953)">Exporting</text>
  <text style="stroke:none;fill:black;font-family:sans-serif;font-size:13;" transform="matrix(1 0 0 1 1289 1971)">Symbols should be outlined when exporting to ensure the</text>
  <text style="stroke:none;fill:black;font-family:sans-serif;font-size:13;" transform="matrix(1 0 0 1 1289 1989)">design is preserved when submitting to Xcode.</text>
  <text id="template-version" style="stroke:none;fill:black;font-family:sans-serif;font-size:13;text-anchor:end;" transform="matrix(1 0 0 1 3036 1933)">Template v.5.0</text>
  <text style="stroke:none;fill:black;font-family:sans-serif;font-size:13;text-anchor:end;" transform="matrix(1 0 0 1 3036 1951)">Requires Xcode 15 or greater</text>
  <text id="descriptive-name" style="stroke:none;fill:black;font-family:sans-serif;font-size:13;text-anchor:end;" transform="matrix(1 0 0 1 3036 1969)">Generated from textformat.size</text>
  <text style="stroke:none;fill:black;font-family:sans-serif;font-size:13;text-anchor:end;" transform="matrix(1 0 0 1 3036 1987)">Typeset at 100.0 points</text>
  <text style="stroke:none;fill:black;font-family:sans-serif;font-size:13;" transform="matrix(1 0 0 1 263 726)">Small</text>
  <text style="stroke:none;fill:black;font-family:sans-serif;font-size:13;" transform="matrix(1 0 0 1 263 1156)">Medium</text>
  <text style="stroke:none;fill:black;font-family:sans-serif;font-size:13;" transform="matrix(1 0 0 1 263 1586)">Large</text>
 </g>
 <g id="Guides">
  <g id="H-reference" style="fill:#27AAE1;stroke:none;" transform="matrix(1 0 0 1 339 696)">
   <path d="M0.993654 0L3.63775 0L29.3281-67.1323L30.0303-67.1323L30.0303-70.459L28.1226-70.459ZM11.6885-24.4799L46.9815-24.4799L46.2315-26.7285L12.4385-26.7285ZM55.1196 0L57.7637 0L30.6382-70.459L29.4326-70.459L29.4326-67.1323Z"/>
  </g>
  <line id="Baseline-S" style="fill:none;stroke:#27AAE1;opacity:1;stroke-width:0.5;" x1="263" x2="3036" y1="696" y2="696"/>
  <line id="Capline-S" style="fill:none;stroke:#27AAE1;opacity:1;stroke-width:0.5;" x1="263" x2="3036" y1="625.541" y2="625.541"/>
  <g id="H-reference" style="fill:#27AAE1;stroke:none;" transform="matrix(1 0 0 1 339 1126)">
   <path d="M0.993654 0L3.63775 0L29.3281-67.1323L30.0303-67.1323L30.0303-70.459L28.1226-70.459ZM11.6885-24.4799L46.9815-24.4799L46.2315-26.7285L12.4385-26.7285ZM55.1196 0L57.7637 0L30.6382-70.459L29.4326-70.459L29.4326-67.1323Z"/>
  </g>
  <line id="Baseline-M" style="fill:none;stroke:#27AAE1;opacity:1;stroke-width:0.5;" x1="263" x2="3036" y1="1126" y2="1126"/>
  <line id="Capline-M" style="fill:none;stroke:#27AAE1;opacity:1;stroke-width:0.5;" x1="263" x2="3036" y1="1055.54" y2="1055.54"/>
  <g id="H-reference" style="fill:#27AAE1;stroke:none;" transform="matrix(1 0 0 1 339 1556)">
   <path d="M0.993654 0L3.63775 0L29.3281-67.1323L30.0303-67.1323L30.0303-70.459L28.1226-70.459ZM11.6885-24.4799L46.9815-24.4799L46.2315-26.7285L12.4385-26.7285ZM55.1196 0L57.7637 0L30.6382-70.459L29.4326-70.459L29.4326-67.1323Z"/>
  </g>
  <line id="Baseline-L" style="fill:none;stroke:#27AAE1;opacity:1;stroke-width:0.5;" x1="263" x2="3036" y1="1556" y2="1556"/>
  <line id="Capline-L" style="fill:none;stroke:#27AAE1;opacity:1;stroke-width:0.5;" x1="263" x2="3036" y1="1485.54" y2="1485.54"/>
  <line id="left-margin-Regular-M" style="fill:none;stroke:#00AEEF;stroke-width:0.5;opacity:1.0;" x1="1381.77" x2="1381.77" y1="1030.79" y2="1150.12"/>
  <line id="right-margin-Regular-M" style="fill:none;stroke:#00AEEF;stroke-width:0.5;opacity:1.0;" x1="1517.91" x2="1517.91" y1="1030.79" y2="1150.12"/>
 </g>
 <g id="Symbols">
  <g id="Black-L" transform="matrix(1 0 0 1 2831.31 1556)">
   <path class="SFSymbolsPreviewWireframe" d="M109.846 14.5022C117.204 14.5022 121.271 11.2012 123.208 3.48883L126.373-6.88297L158.164-6.88297L161.352 3.48883C163.287 11.2012 167.356 14.5022 174.712 14.5022C182.829 14.5022 188.099 9.62646 188.099 2.1934C188.099-0.810338 187.684-3.2092 186.66-6.18059L164.521-69.8611C161.043-80.0907 154.052-84.926 142.513-84.926C131.617-84.926 124.764-80.0335 121.247-69.8611L98.4456-4.99164C97.559-2.31228 97.0865 0.24098 97.0865 2.56466C97.0865 9.93931 101.962 14.5022 109.846 14.5022ZM131.803-25.9722L142.332-61.7307L142.848-61.7307L153.378-25.9722ZM26.7014 14.4682C32.2741 14.4682 35.4872 11.4968 37.3408 4.45585L39.339-2.23275L63.3307-2.23275L65.329 4.74789C67.049 11.6553 70.2609 14.4682 76.3408 14.4682C82.3697 14.4682 86.7442 10.3142 86.7442 4.32856C86.7442 1.98287 86.2885-0.091613 85.3435-2.82818L68.0809-50.3077C64.8951-59.0782 59.8112-62.9003 51.1007-62.9003C42.9366-62.9003 37.8747-58.9447 34.8045-50.3077L17.6391-2.82818C16.7317-0.308467 16.084 2.4293 16.084 4.32856C16.084 10.6854 20.086 14.4682 26.7014 14.4682ZM43.3228-17.754L50.5796-43.8999L51.4477-43.8999L59.0758-17.754Z"/>
  </g>
  <g id="Heavy-L" transform="matrix(1 0 0 1 2538.03 1556)">
   <path class="SFSymbolsPreviewWireframe" d="M104.624 13.7308C110.969 13.7308 114.437 10.9283 116.183 4.27038L120.601-9.12752L153.796-9.12752L158.25 4.27038C159.99 10.9283 163.465 13.7308 169.803 13.7308C176.728 13.7308 181.234 9.55875 181.234 3.1856C181.234 0.657743 180.87-1.3937 179.978-3.95867L155.969-71.4119C152.997-80.0693 147.081-84.1866 137.395-84.1866C128.2-84.1866 122.403-80.0303 119.412-71.4119L94.8873-3.03603C94.1149-0.694181 93.7063 1.46095 93.7063 3.48352C93.7063 9.81205 97.8784 13.7308 104.624 13.7308ZM125.444-25.8039L137.204-63.3464L137.684-63.3464L149.45-25.8039ZM25.3464 13.6389C30.184 13.6389 33.0193 11.0739 34.6446 5.0289L37.4878-3.89556L61.7125-3.89556L64.5557 5.25202C66.1075 11.2236 68.9372 13.6389 74.1575 13.6389C79.4485 13.6389 83.266 10.0325 83.266 4.83657C83.266 2.7782 82.8417 0.912764 82.0246-1.46809L64.1088-50.2519C61.3609-57.7993 56.8869-61.1569 49.4189-61.1569C42.3826-61.1569 37.9445-57.7258 35.2801-50.2519L17.429-1.46809C16.6264 0.718528 16.084 3.105 16.084 4.83657C16.084 10.3304 19.598 13.6389 25.3464 13.6389ZM41.1588-17.5699L48.8637-43.9127L49.8458-43.9127L57.8486-17.5699Z"/>
  </g>
  <g id="Bold-L" transform="matrix(1 0 0 1 2245.29 1556)">
   <path class="SFSymbolsPreviewWireframe" d="M98.4675 12.8599C103.582 12.8599 106.328 10.6499 107.828 5.27582L113.813-11.8793L148.819-11.8793L154.855 5.27582C156.342 10.6499 159.101 12.8599 164.202 12.8599C169.696 12.8599 173.286 9.53386 173.286 4.43738C173.286 2.47131 172.984 0.835257 172.254-1.23758L145.939-73.318C143.583-80.0908 138.951-83.3542 131.458-83.3542C124.287-83.3542 119.751-80.0749 117.391-73.318L90.7302-0.61553C90.0961 1.31129 89.7645 2.99697 89.7645 4.65058C89.7645 9.71787 93.0906 12.8599 98.4675 12.8599ZM117.918-25.589L131.259-65.5232L131.693-65.5232L145.048-25.589ZM23.6861 12.6764C27.6318 12.6764 29.991 10.6036 31.3394 5.75827L35.2724-5.96977L59.9157-5.96977L63.8487 5.90429C65.1855 10.7379 67.5315 12.6764 71.7285 12.6764C76.0976 12.6764 79.2385 9.73877 79.2385 5.50389C79.2385 3.79906 78.8601 2.20226 78.1969 0.259461L59.355-50.4063C57.145-56.4623 53.4391-59.2362 47.4706-59.2362C41.803-59.2362 38.1483-56.4506 35.9835-50.4063L17.1752 0.259461C16.5032 2.03867 16.084 3.9947 16.084 5.50389C16.084 9.95198 18.9985 12.6764 23.6861 12.6764ZM38.5293-17.3693L46.9068-44.2187L47.9601-44.2187L56.5508-17.3693Z"/>
  </g>
  <g id="Semibold-L" transform="matrix(1 0 0 1 1951.32 1556)">
   <path class="SFSymbolsPreviewWireframe" d="M94.223 12.2595C98.4889 12.2595 100.737 10.4579 102.068 5.96896L109.133-13.7763L145.388-13.7763L152.515 5.96896C153.827 10.4579 156.093 12.2595 160.341 12.2595C164.848 12.2595 167.808 9.51671 167.808 5.30034C167.808 3.72157 167.548 2.37189 166.929 0.638318L139.024-74.6321C137.093-80.1057 133.347-82.7803 127.365-82.7803C121.589-82.7803 117.923-80.1056 115.998-74.6321L87.8643 1.05315C87.3257 2.69385 87.0471 4.05589 87.0471 5.45515C87.0471 9.65294 89.7899 12.2595 94.223 12.2595ZM112.73-25.4408L127.161-67.0239L127.564-67.0239L142.014-25.4408ZM22.5415 12.0129C25.8723 12.0129 27.9032 10.2793 29.0609 6.26109L33.7451-7.39972L58.677-7.39972L63.3613 6.35396C64.5499 10.4032 66.5624 12.0129 70.0539 12.0129C73.7876 12.0129 76.462 9.53629 76.462 5.96394C76.462 4.50283 76.1153 3.09122 75.5581 1.45043L56.0777-50.5128C54.2387-55.5406 51.0622-57.9121 46.1275-57.9121C41.4034-57.9121 38.2888-55.5716 36.4684-50.5128L17.0003 1.45043C16.4183 2.94877 16.084 4.60805 16.084 5.96394C16.084 9.6911 18.5852 12.0129 22.5415 12.0129ZM36.7166-17.2309L45.5577-44.4297L46.6602-44.4297L55.6561-17.2309Z"/>
  </g>
  <g id="Medium-L" transform="matrix(1 0 0 1 1656.69 1556)">
   <path class="SFSymbolsPreviewWireframe" d="M91.0047 11.8043C94.6275 11.8043 96.4973 10.3123 97.7001 6.49453L105.584-15.2147L142.786-15.2147L150.74 6.49453C151.92 10.3123 153.813 11.8043 157.413 11.8043C161.173 11.8043 163.654 9.5037 163.654 5.95468C163.654 4.66957 163.426 3.53703 162.891 2.0607L133.782-75.6284C132.171-80.117 129.097-82.3451 124.262-82.3451C119.543-82.3451 116.537-80.1289 114.941-75.6284L85.6912 2.31841C85.225 3.74217 84.9866 4.8588 84.9866 6.0652C84.9866 9.60371 87.2872 11.8043 91.0047 11.8043ZM108.796-25.3285L124.054-68.1617L124.432-68.1617L139.713-25.3285ZM21.6736 11.5097C24.5382 11.5097 26.3202 10.0334 27.3332 6.64235L32.5871-8.48397L57.7377-8.48397L62.9917 6.69492C64.068 10.1493 65.8275 11.5097 68.7842 11.5097C72.036 11.5097 74.3568 9.38276 74.3568 6.31276C74.3568 5.03646 74.034 3.76528 73.5572 2.35347L53.5928-50.5935C52.0349-54.8417 49.2599-56.9081 45.1091-56.9081C41.1004-56.9081 38.3953-54.905 36.8361-50.5935L16.8676 2.35347C16.3539 3.63885 16.084 5.07312 16.084 6.31276C16.084 9.49329 18.2718 11.5097 21.6736 11.5097ZM35.3421-17.1261L44.5347-44.5896L45.6745-44.5896L54.9777-17.1261Z"/>
  </g>
  <g id="Regular-L" transform="matrix(1 0 0 1 1362.68 1556)">
   <path class="SFSymbolsPreviewWireframe" d="M86.8068 11.2105C89.5909 11.2105 90.9679 10.1224 92.0031 7.18005L100.956-17.0909L139.392-17.0909L148.425 7.18005C149.433 10.1224 150.838 11.2105 153.594 11.2105C156.378 11.2105 158.235 9.48673 158.235 6.80816C158.235 5.90609 158.049 5.05677 157.624 3.91599L126.943-76.928C125.752-80.1317 123.554-81.7775 120.214-81.7775C116.875-81.7775 114.729-80.1593 113.563-76.928L82.8568 3.96875C82.4849 5.10954 82.299 5.90609 82.299 6.86093C82.299 9.53949 84.0227 11.2105 86.8068 11.2105ZM103.664-25.1819L120.001-69.6459L120.347-69.6459L136.711-25.1819ZM20.5416 10.8535C22.7981 10.8535 24.2554 9.71269 25.0796 7.13965L31.0766-9.8982L56.5126-9.8982L62.5096 7.13965C63.4394 9.81822 64.8691 10.8535 67.1281 10.8535C69.7513 10.8535 71.6108 9.18251 71.6108 6.76775C71.6108 5.7325 71.3193 4.64447 70.9474 3.53135L50.3515-50.6988C49.1605-53.9301 46.9091-55.5985 43.7808-55.5985C40.7052-55.5985 38.5343-54.0356 37.3156-50.6988L16.6946 3.53135C16.2699 4.53895 16.084 5.67973 16.084 6.76775C16.084 9.23527 17.863 10.8535 20.5416 10.8535ZM33.5492-16.9893L43.2004-44.7983L44.3889-44.7983L54.0928-16.9893Z"/>
  </g>
  <g id="Light-L" transform="matrix(1 0 0 1 1066.93 1556)">
   <path class="SFSymbolsPreviewWireframe" d="M84.5548 11.1532C86.6518 11.1532 87.647 10.3133 88.4533 8.11523L98.5891-18.8086L138.744-18.8086L148.96 8.11523C149.719 10.3133 150.761 11.1532 152.812 11.1532C154.909 11.1532 156.326 9.84935 156.326 7.81968C156.326 7.12754 156.179 6.46908 155.849 5.59549L123.641-78.1495C122.794-80.4561 121.187-81.7394 118.707-81.7394C116.226-81.7394 114.653-80.5029 113.792-78.1495L81.5972 5.62917C81.3017 6.50276 81.1539 7.12754 81.1539 7.85336C81.1539 9.88303 82.4577 11.1532 84.5548 11.1532ZM100.725-24.9911L118.512-72.2797L118.821-72.2797L136.654-24.9911ZM19.511 10.6054C21.2712 10.6054 22.3469 9.73178 23.0184 7.76946L30.046-11.425L56.6081-11.425L63.6357 7.76946C64.3745 9.79913 65.4035 10.6054 67.2235 10.6054C69.1597 10.6054 70.6374 9.33519 70.6374 7.47391C70.6374 6.66767 70.4223 5.82776 70.1268 5.00091L48.1376-52.2447C47.2901-54.5981 45.6495-55.8084 43.3037-55.8084C40.9915-55.8084 39.4313-54.6654 38.5371-52.2447L16.561 5.00091C16.2318 5.76041 16.084 6.634 16.084 7.47391C16.084 9.36887 17.4813 10.6054 19.511 10.6054ZM32.0606-17.0274L42.9332-46.8786L43.7209-46.8786L54.6272-17.0274Z"/>
  </g>
  <g id="Thin-L" transform="matrix(1 0 0 1 771.479 1556)">
   <path class="SFSymbolsPreviewWireframe" d="M81.5762 11.0775C82.7645 11.0775 83.255 10.5657 83.7583 9.35208L95.4591-21.0803L137.885-21.0803L149.667 9.35208C150.098 10.5657 150.66 11.0775 151.777 11.0775C152.965 11.0775 153.802 10.3289 153.802 9.1575C153.802 8.74302 153.705 8.33698 153.502 7.81677L119.275-79.7649C118.882-80.8852 118.057-81.6889 116.712-81.6889C115.368-81.6889 114.552-80.9572 114.095-79.7649L79.9312 7.82521C79.7367 8.34542 79.6394 8.74302 79.6394 9.16593C79.6394 10.3374 80.3879 11.0775 81.5762 11.0775ZM96.838-24.7386L116.543-75.763L116.801-75.763L136.578-24.7386ZM18.1479 10.2772C19.2519 10.2772 19.8227 9.75702 20.2923 8.60244L28.6829-13.4444L56.7343-13.4444L65.1249 8.60244C65.6114 9.77389 66.1102 10.2772 67.3497 10.2772C68.3772 10.2772 69.3501 9.53713 69.3501 8.40786C69.3501 7.90452 69.236 7.39275 69.0414 6.94453L45.2096-54.2893C44.8164-55.4815 43.9835-56.0861 42.6726-56.0861C41.3701-56.0861 40.6177-55.4984 40.1526-54.2893L16.3843 6.94453C16.1813 7.37588 16.084 7.89609 16.084 8.40786C16.084 9.54556 16.9765 10.2772 18.1479 10.2772ZM30.0917-17.0779L42.5798-49.6299L42.8374-49.6299L55.334-17.0779Z"/>
  </g>
  <g id="Ultralight-L" transform="matrix(1 0 0 1 475.414 1556)">
   <path class="SFSymbolsPreviewWireframe" d="M80.0506 11.0387C80.7735 11.0387 81.0054 10.695 81.3535 9.98559L93.8559-22.2439L137.446-22.2439L150.029 9.98559C150.292 10.695 150.609 11.0387 151.247 11.0387C151.969 11.0387 152.509 10.5746 152.509 9.84272C152.509 9.57046 152.438 9.29371 152.3 8.9545L117.038-80.5924C116.878-81.105 116.454-81.663 115.691-81.663C114.928-81.663 114.5-81.1899 114.25-80.5924L79.078 8.95001C78.9351 9.28921 78.8636 9.57046 78.8636 9.83823C78.8636 10.5701 79.3278 11.0387 80.0506 11.0387ZM94.847-24.6093L115.535-77.5472L115.767-77.5472L136.54-24.6093ZM17.4498 10.1092C18.2176 10.1092 18.5298 9.76995 18.896 9.02909L27.9848-14.4787L56.7989-14.4787L65.8877 9.02909C66.2449 9.76096 66.4722 10.1092 67.4144 10.1092C67.9764 10.1092 68.6908 9.64055 68.6908 8.88622C68.6908 8.53803 68.6283 8.19434 68.4854 7.94004L43.7098-55.3365C43.5494-55.934 43.1302-56.2283 42.3494-56.2283C41.5641-56.2283 41.2253-55.925 40.98-55.3365L16.2938 7.94004C16.1554 8.20332 16.084 8.54252 16.084 8.88622C16.084 9.63606 16.7179 10.1092 17.4498 10.1092ZM29.0833-17.1038L42.3988-51.0392L42.3849-51.0392L55.696-17.1038Z"/>
  </g>
  <g id="Black-M" transform="matrix(1 0 0 1 2851.48 1126)">
   <path class="SFSymbolsPreviewWireframe" d="M89.2845 3.95492C95.763 3.95492 99.3765 1.00267 101.01-5.77777L102.546-11.572L126.203-11.572L127.744-5.77777C129.378 1.00267 132.991 3.95492 139.47 3.95492C146.691 3.95492 151.369-0.370385 151.369-6.95208C151.369-9.65975 151.01-11.791 150.116-14.4061L134.363-60.8928C131.28-70.0477 125.021-74.3617 114.605-74.3617C104.818-74.3617 98.6786-69.9903 95.5438-60.8928L79.1574-13.2587C78.3827-10.929 77.9669-8.63202 77.9669-6.60401C77.9669-0.0794115 82.2922 3.95492 89.2845 3.95492ZM107.18-28.1762L114.475-54.7293L114.902-54.7293L122.196-28.1762ZM21.7116 3.95254C26.5935 3.95254 29.3558 1.33738 30.9674-4.89075L31.929-8.44334L50.4686-8.44334L51.4302-4.60527C52.8814 1.46256 55.644 3.95254 61.0338 3.95254C66.2458 3.95254 70.0618 0.317885 70.0618-4.92314C70.0618-6.95635 69.6921-8.70957 68.8603-11.0966L55.8589-47.1686C53.0609-54.8958 48.6807-58.1939 40.9706-58.1939C33.7797-58.1939 29.4047-54.7355 26.7212-47.1686L13.8282-11.0966C13.0481-8.89185 12.4609-6.50507 12.4609-4.92314C12.4609 0.665955 15.9292 3.95254 21.7116 3.95254ZM35.2221-21.854L40.6247-42.2177L41.1449-42.2177L46.8955-21.854Z"/>
  </g>
  <g id="Heavy-M" transform="matrix(1 0 0 1 2558.04 1126)">
   <path class="SFSymbolsPreviewWireframe" d="M84.3879 3.20614C89.9389 3.20614 93.0028 0.71832 94.4709-5.10002L97.1221-13.6077L121.993-13.6077L124.663-5.10002C126.128 0.71832 129.194 3.20614 134.743 3.20614C140.861 3.20614 144.834-0.470027 144.834-6.07546C144.834-8.33728 144.521-10.1465 143.747-12.389L126.308-62.2961C123.688-69.9968 118.425-73.6425 109.741-73.6425C101.537-73.6425 96.3777-69.9555 93.7284-62.2961L75.7951-11.5001C75.125-9.47575 74.7682-7.5521 74.7682-5.79732C74.7682-0.235509 78.4443 3.20614 84.3879 3.20614ZM101.235-28.0293L109.6-56.0658L109.994-56.0658L118.362-28.0293ZM20.4821 3.16472C24.6912 3.16472 27.1194 0.92222 28.5218-4.38866L30.2143-9.92799L48.8779-9.92799L50.5704-4.17055C51.8748 1.04228 54.3008 3.16472 58.8906 3.16472C63.4446 3.16472 66.7514 0.028421 66.7514-4.49166C66.7514-6.26513 66.4053-7.83689 65.6916-9.90262L52.1802-46.9714C49.7786-53.5839 45.9383-56.4703 39.3705-56.4703C33.2117-56.4703 29.3902-53.4859 27.0735-46.9714L13.6351-9.90262C12.9487-8.00057 12.4609-5.93256 12.4609-4.49166C12.4609 0.30656 15.4873 3.16472 20.4821 3.16472ZM33.244-21.6704L38.9719-42.0383L39.6405-42.0383L45.6466-21.6704Z"/>
  </g>
  <g id="Bold-M" transform="matrix(1 0 0 1 2264.99 1126)">
   <path class="SFSymbolsPreviewWireframe" d="M78.9104 2.36852C83.4239 2.36852 85.8728 0.400233 87.1558-4.34186L91.0546-15.8849L117.283-15.8849L121.215-4.34186C122.493 0.400233 124.947 2.36852 129.456 2.36852C134.34 2.36852 137.524-0.581491 137.524-5.09483C137.524-6.85792 137.262-8.3069 136.623-10.1325L117.297-63.8659C115.196-69.9399 111.046-72.8378 104.3-72.8378C97.8677-72.8378 93.8037-69.9165 91.6977-63.8659L72.0339-9.53293C71.4808-7.85006 71.1899-6.34405 71.1899-4.89491C71.1899-0.410127 74.14 2.36852 78.9104 2.36852ZM94.5841-27.8651L104.147-57.5609L104.505-57.5609L114.073-27.8651ZM19.1067 2.28342C22.5631 2.28342 24.6176 0.457803 25.7861-3.827L28.2963-11.5888L47.0985-11.5888L49.6087-3.68426C50.7488 0.572145 52.7981 2.28342 56.4932 2.28342C60.3111 2.28342 63.0482-0.295386 63.0482-4.009C63.0482-5.49189 62.7287-6.86066 62.147-8.56695L48.065-46.7509C46.1067-52.1164 42.8705-54.5422 37.5806-54.5422C32.5763-54.5422 29.3738-52.088 27.4676-46.7509L13.4192-8.56695C12.8374-7.00355 12.4609-5.29213 12.4609-4.009C12.4609-0.0954748 14.993 2.28342 19.1067 2.28342ZM31.0312-21.4651L37.123-41.8376L37.9577-41.8376L44.2495-21.4651Z"/>
  </g>
  <g id="Semibold-M" transform="matrix(1 0 0 1 1970.79 1126)">
   <path class="SFSymbolsPreviewWireframe" d="M75.1342 1.79107C78.9324 1.79107 80.9574 0.180946 82.1129-3.81919L86.8717-17.4549L114.036-17.4549L118.839-3.81919C119.987 0.180946 122.019 1.79107 125.811 1.79107C129.845 1.79107 132.484-0.658333 132.484-4.41879C132.484-5.83805 132.257-7.0387 131.711-8.57693L111.084-64.9481C109.341-69.9007 105.959-72.2831 100.549-72.2831C95.3379-72.2831 92.0293-69.8897 90.2977-64.9481L69.441-8.17675C68.9685-6.72931 68.7231-5.51123 68.7231-4.2728C68.7231-0.530508 71.1725 1.79107 75.1342 1.79107ZM89.9991-27.7518L100.387-58.5916L100.721-58.5916L111.115-27.7518ZM18.1585 1.67586C21.096 1.67586 22.8928 0.137637 23.9001-3.43979L26.974-12.7337L45.8718-12.7337L48.9456-3.34901C49.9726 0.248035 51.7622 1.67586 54.8404 1.67586C58.1509 1.67586 60.4952-0.518617 60.4952-3.67626C60.4952-4.95883 60.194-6.18766 59.7033-7.64615L45.228-46.5989C43.5754-51.1047 40.7556-53.213 36.3467-53.213C32.1383-53.213 29.3626-51.1243 27.7392-46.5989L13.2703-7.64615C12.7607-6.31622 12.4609-4.85062 12.4609-3.67626C12.4609-0.372635 14.6522 1.67586 18.1585 1.67586ZM29.5057-21.3236L35.8485-41.6992L36.7976-41.6992L43.2863-21.3236Z"/>
  </g>
  <g id="Medium-M" transform="matrix(1 0 0 1 1675.99 1126)">
   <path class="SFSymbolsPreviewWireframe" d="M72.2709 1.35322C75.5268 1.35322 77.2304 0.0146731 78.2891-3.42288L83.7001-18.6453L111.574-18.6453L117.037-3.42288C118.087 0.0146731 119.799 1.35322 123.047 1.35322C126.436 1.35322 128.663-0.716599 128.663-3.90618C128.663-5.06474 128.463-6.0771 127.987-7.39741L106.374-65.7687C104.902-69.871 102.102-71.8626 97.7042-71.8626C93.4197-71.8626 90.6838-69.8693 89.2362-65.7687L67.4749-7.14844C67.0635-5.87951 66.8527-4.87975 66.8527-3.80109C66.8527-0.621785 68.9225 1.35322 72.2709 1.35322ZM86.5226-27.666L97.5362-59.3731L97.8511-59.3731L108.873-27.666ZM17.4395 1.21518C19.9836 1.21518 21.5851-0.105126 22.4701-3.14619L25.9714-13.6019L44.9416-13.6019L48.4429-3.09481C49.384 0.00228191 50.9768 1.21518 53.5872 1.21518C56.5129 1.21518 58.5595-0.68788 58.5595-3.42395C58.5595-4.55464 58.2721-5.67736 57.8504-6.94796L43.0768-46.4836C41.656-50.3376 39.152-52.2052 35.4111-52.2052C31.8061-52.2052 29.3541-50.3936 27.9452-46.4836L13.1574-6.94796C12.7026-5.79505 12.4609-4.51585 12.4609-3.42395C12.4609-0.58279 14.3938 1.21518 17.4395 1.21518ZM28.349-21.2163L34.882-41.5943L35.9179-41.5943L42.556-21.2163Z"/>
  </g>
  <g id="Regular-M" transform="matrix(1 0 0 1 1381.77 1126)">
   <path class="SFSymbolsPreviewWireframe" d="M68.5362 0.782116C71.0847 0.782116 72.369-0.202204 73.3016-2.90595L79.5632-20.1979L108.363-20.1979L114.687-2.90595C115.609-0.202204 116.904 0.782116 119.442 0.782116C121.99 0.782116 123.679-0.792597 123.679-3.23757C123.679-4.05608 123.513-4.82284 123.13-5.85891L100.23-66.839C99.1113-69.8322 97.0708-71.314 93.9942-71.314C90.9176-71.314 88.9289-69.8428 87.8516-66.839L64.9105-5.80716C64.5788-4.77108 64.413-4.05608 64.413-3.18582C64.413-0.740843 65.9877 0.782116 68.5362 0.782116ZM81.988-27.554L93.8178-60.3925L94.1083-60.3925L105.949-27.554ZM16.5017 0.614301C18.5327 0.614301 19.8793-0.421773 20.6048-2.76324L24.6636-14.7342L43.7283-14.7342L47.7872-2.76324C48.6162-0.318266 49.9523 0.614301 51.9526 0.614301C54.3764 0.614301 56.0346-0.908658 56.0346-3.09487C56.0346-4.02743 55.7652-5.01175 55.4336-6.03728L40.271-46.3332C39.1525-49.337 37.0603-50.8906 34.1907-50.8906C31.3729-50.8906 29.343-49.4405 28.2139-46.3332L13.0101-6.03728C12.6267-5.11526 12.4609-4.07919 12.4609-3.09487C12.4609-0.856904 14.0568 0.614301 16.5017 0.614301ZM26.8403-21.0763L33.6214-41.4574L34.7706-41.4574L41.6034-21.0763Z"/>
  </g>
  <g id="Light-M" transform="matrix(1 0 0 1 1085.92 1126)">
   <path class="SFSymbolsPreviewWireframe" d="M66.5171 0.730784C68.4496 0.730784 69.3917-0.0310951 70.1189-2.06751L77.4414-21.7379L107.781-21.7379L115.166-2.06751C115.866-0.0310951 116.835 0.730784 118.74 0.730784C120.673 0.730784 121.968-0.467489 121.968-2.33069C121.968-2.96098 121.836-3.55663 121.538-4.35315L97.2696-67.9341C96.4591-70.1231 94.949-71.2797 92.6424-71.2797C90.3359-71.2797 88.8604-70.1507 88.0569-67.9341L63.7811-4.31851C63.518-3.52198 63.3864-2.96098 63.3864-2.29605C63.3864-0.432846 64.5846 0.730784 66.5171 0.730784ZM79.3529-27.3829L92.4832-62.7538L92.7394-62.7538L105.897-27.3829ZM15.5777 0.391859C17.1638 0.391859 18.1682-0.404662 18.7568-2.19858L23.7397-16.1031L43.8139-16.1031L48.7967-2.19858C49.4547-0.335377 50.4314 0.391859 52.0381 0.391859C53.846 0.391859 55.1619-0.771771 55.1619-2.46176C55.1619-3.189 54.961-3.95088 54.6978-4.71973L38.2861-47.7192C37.4756-49.9358 35.931-51.0788 33.7629-51.0788C31.6296-51.0788 30.1472-50.0051 29.309-47.7192L12.8904-4.71973C12.5925-4.02016 12.4609-3.22364 12.4609-2.46176C12.4609-0.737128 13.7145 0.391859 15.5777 0.391859ZM25.5056-21.1105L33.3819-43.3225L34.1717-43.3225L42.0825-21.1105Z"/>
  </g>
  <g id="Thin-M" transform="matrix(1 0 0 1 790.339 1126)">
   <path class="SFSymbolsPreviewWireframe" d="M63.8467 0.662892C64.9645 0.662892 65.454 0.195211 65.9096-0.958613L74.6352-23.7747L107.012-23.7747L115.8-0.958613C116.205 0.195211 116.745 0.662892 117.812 0.662892C118.93 0.662892 119.705-0.0375075 119.705-1.13127C119.705-1.51262 119.618-1.88196 119.434-2.36166L93.3545-69.3825C92.9513-70.5078 92.1428-71.2345 90.8546-71.2345C89.5664-71.2345 88.7699-70.5581 88.3285-69.3825L62.2875-2.34964C62.1149-1.86995 62.0285-1.51262 62.0285-1.11926C62.0285-0.0254954 62.7289 0.662892 63.8467 0.662892ZM75.8678-27.1565L90.718-65.8768L90.9289-65.8768L105.829-27.1565ZM14.3557 0.0976614C15.3534 0.0976614 15.9051-0.382032 16.3127-1.45177L22.5176-17.9135L43.927-17.9135L50.1319-1.45177C50.5636-0.358007 51.065 0.0976614 52.1513 0.0976614C53.1444 0.0976614 54.0077-0.590726 54.0077-1.62443C54.0077-2.0801 53.8974-2.54778 53.7247-2.97718L35.661-49.5523C35.2579-50.7279 34.4373-51.3277 33.1972-51.3277C31.969-51.3277 31.2108-50.7519 30.7574-49.5523L12.7319-2.97718C12.5473-2.5718 12.4609-2.09211 12.4609-1.62443C12.4609-0.578714 13.2619 0.0976614 14.3557 0.0976614ZM23.7405-21.1558L33.065-45.7892L33.3796-45.7892L42.7162-21.1558Z"/>
  </g>
  <g id="Ultralight-M" transform="matrix(1 0 0 1 494.208 1126)">
   <path class="SFSymbolsPreviewWireframe" d="M62.479 0.628118C63.1795 0.628118 63.4371 0.311124 63.7537-0.39064L73.1979-24.8179L106.618-24.8179L116.124-0.39064C116.379 0.311124 116.698 0.628118 117.337 0.628118C118.037 0.628118 118.546 0.182727 118.546-0.516933C118.546-0.770781 118.482-1.02421 118.356-1.34162L91.3492-70.1243C91.1547-70.7049 90.7055-71.2113 89.9389-71.2113C89.1723-71.2113 88.7236-70.7667 88.4676-70.1243L61.5225-1.3412C61.3962-1.02379 61.3331-0.770781 61.3331-0.516512C61.3331 0.183148 61.7785 0.628118 62.479 0.628118ZM74.0828-27.0406L89.8139-67.4764L90.0016-67.4764L105.795-27.0406ZM13.7298-0.0530252C14.426-0.0530252 14.746-0.37044 15.0609-1.06926L21.8917-18.8408L43.985-18.8408L50.8158-1.06926C51.1315-0.369599 51.3896-0.0530252 52.2092-0.0530252C52.7851-0.0530252 53.4166-0.497996 53.4166-1.19555C53.4166-1.51212 53.3526-1.82912 53.2263-2.08465L34.3164-50.4912C34.1219-51.1336 33.6723-51.4552 32.9074-51.4552C32.1429-51.4552 31.7556-51.1345 31.4992-50.4912L12.6508-2.08465C12.5241-1.82996 12.4609-1.51255 12.4609-1.19555C12.4609-0.497575 13.0301-0.0530252 13.7298-0.0530252ZM22.8363-21.1789L32.9028-47.0527L32.9739-47.0527L43.0408-21.1789Z"/>
  </g>
  <g id="Black-S" transform="matrix(1 0 0 1 2868.26 696)">
   <path class="SFSymbolsPreviewWireframe" d="M71.3379-4.29688C76.6602-4.29688 79.6387-6.73828 80.957-12.3047L81.8848-16.1621L100.146-16.1621L101.074-12.3047C102.393-6.73828 105.371-4.29688 110.693-4.29688C116.65-4.29688 120.508-7.86133 120.508-13.2812C120.508-15.5273 120.215-17.2852 119.482-19.4336L107.568-54.9805C105.029-62.5488 99.8535-66.1133 91.2109-66.1133C83.1055-66.1133 78.0273-62.5 75.4395-54.9805L62.9883-18.457C62.3535-16.5527 62.0117-14.6484 62.0117-12.9883C62.0117-7.61719 65.5762-4.29688 71.3379-4.29688ZM85.6445-29.7363L91.1133-50.2441L91.4551-50.2441L96.9238-29.7363ZM17.334-4.29688C21.3379-4.29688 23.584-6.44531 24.9023-11.5723L25.4883-13.8672L40.0391-13.8672L40.625-11.3281C41.7969-6.34766 44.043-4.29688 48.4863-4.29688C52.7344-4.29688 55.8594-7.27539 55.8594-11.5723C55.8594-13.2324 55.5664-14.6484 54.8828-16.6016L44.7754-44.7266C42.4805-51.0742 38.916-53.7598 32.5684-53.7598C26.6602-53.7598 23.0957-50.9277 20.8984-44.7266L10.8887-16.6016C10.2539-14.7949 9.76562-12.8418 9.76562-11.5723C9.76562-6.98242 12.5977-4.29688 17.334-4.29688ZM28.125-24.8047L32.3242-40.8691L32.666-40.8691L37.1582-24.8047Z"/>
  </g>
  <g id="Heavy-S" transform="matrix(1 0 0 1 2574.24 696)">
   <path class="SFSymbolsPreviewWireframe" d="M67.408-4.93072C72.0158-4.93072 74.5679-7.00334 75.771-11.8322L77.517-17.7064L96.62-17.7064L98.3775-11.8322C99.5806-7.00334 102.133-4.93072 106.74-4.93072C111.833-4.93072 115.137-7.9881 115.137-12.6474C115.137-14.5362 114.879-16.0405 114.239-17.9008L101.057-56.0407C98.8752-62.4682 94.4831-65.5025 87.2235-65.5025C80.3742-65.5025 76.0682-62.4309 73.8606-56.0407L60.257-17.1432C59.7029-15.4694 59.4072-13.8648 59.4072-12.4121C59.4072-7.79005 62.4646-4.93072 67.408-4.93072ZM80.8965-29.6326L87.1143-51.0854L87.433-51.0854L93.6509-29.6326ZM16.4005-4.94225C19.8858-4.94225 21.8899-6.80257 23.0469-11.215L24.1399-14.962L38.6677-14.962L39.7607-11.0285C40.8288-6.70491 42.8329-4.94225 46.6424-4.94225C50.4064-4.94225 53.1396-7.54045 53.1396-11.2842C53.1396-12.7484 52.8582-14.0376 52.2668-15.7488L41.8827-44.3808C39.8875-49.8757 36.7148-52.2616 31.2546-52.2616C26.1416-52.2616 22.9805-49.7868 21.0598-44.3808L10.7389-15.7488C10.1732-14.1726 9.76562-12.4615 9.76562-11.2842C9.76562-7.30511 12.2634-4.94225 16.4005-4.94225ZM26.6038-24.6433L30.9413-40.4773L31.4559-40.4773L36.0288-24.6433Z"/>
  </g>
  <g id="Bold-S" transform="matrix(1 0 0 1 2280.53 696)">
   <path class="SFSymbolsPreviewWireframe" d="M63.0127-5.63965C66.8213-5.63965 68.8965-7.2998 69.9707-11.3037L72.6318-19.4336L92.6758-19.4336L95.3613-11.3037C96.4355-7.2998 98.5107-5.63965 102.319-5.63965C106.445-5.63965 109.131-8.12988 109.131-11.9385C109.131-13.4277 108.911-14.6484 108.374-16.1865L93.7744-57.2266C91.9922-62.3779 88.4766-64.8193 82.7637-64.8193C77.3193-64.8193 73.877-62.3535 72.0947-57.2266L57.2021-15.6738C56.7383-14.2578 56.4941-12.9883 56.4941-11.7676C56.4941-7.9834 58.9844-5.63965 63.0127-5.63965ZM75.5859-29.5166L82.6416-52.0264L82.9346-52.0264L89.9902-29.5166ZM15.3564-5.66406C18.2617-5.66406 19.9951-7.20215 20.9717-10.8154L22.6318-16.1865L37.1338-16.1865L38.7939-10.6934C39.7461-7.10449 41.4795-5.66406 44.5801-5.66406C47.8027-5.66406 50.0977-7.83691 50.0977-10.9619C50.0977-12.207 49.8291-13.3545 49.3408-14.7949L38.6475-43.9941C36.9873-48.5352 34.2529-50.5859 29.7852-50.5859C25.5615-50.5859 22.8516-48.5107 21.2402-43.9941L10.5713-14.7949C10.083-13.4766 9.76562-12.0361 9.76562-10.9619C9.76562-7.66602 11.8896-5.66406 15.3564-5.66406ZM24.9023-24.4629L29.3945-40.0391L30.1025-40.0391L34.7656-24.4629Z"/>
  </g>
  <g id="Semibold-S" transform="matrix(1 0 0 1 1985.89 696)">
   <path class="SFSymbolsPreviewWireframe" d="M59.9823-6.12842C63.2399-6.12842 64.9863-7.5042 65.9717-10.9394L69.2638-20.6244L89.9564-20.6244L93.2818-10.9394C94.2672-7.5042 96.0136-6.12842 99.2712-6.12842C102.731-6.12842 104.99-8.22764 104.99-11.4497C104.99-12.6635 104.797-13.6887 104.331-15.0046L88.7534-58.0441C87.2467-62.3157 84.3354-64.3483 79.6889-64.3483C75.2132-64.3483 72.3662-62.3002 70.8772-58.0441L55.096-14.6607C54.6943-13.4225 54.4857-12.384 54.4857-11.3232C54.4857-8.1167 56.585-6.12842 59.9823-6.12842ZM71.9246-29.4366L79.5579-52.6751L79.8331-52.6751L87.4664-29.4366ZM14.6366-6.16172C17.142-6.16172 18.6888-7.47764 19.5409-10.5399L21.5921-17.0308L36.0763-17.0308L38.1274-10.4623C38.9996-7.37998 40.5464-6.16172 43.1582-6.16172C46.0076-6.16172 48.0004-8.04131 48.0004-10.7397C48.0004-11.8338 47.7407-12.8835 47.3235-14.1373L36.4169-43.7275C34.9878-47.6109 32.5556-49.4307 28.7721-49.4307C25.1616-49.4307 22.7627-47.631 21.3646-43.7275L10.4558-14.1373C10.0208-12.9967 9.76562-11.7429 9.76562-10.7397C9.76562-7.91484 11.6319-6.16172 14.6366-6.16172ZM23.7293-24.3385L28.3281-39.7369L29.1694-39.7369L33.8947-24.3385Z"/>
  </g>
  <g id="Medium-S" transform="matrix(1 0 0 1 1690.75 696)">
   <path class="SFSymbolsPreviewWireframe" d="M57.6846-6.49902C60.5244-6.49902 62.0215-7.65918 62.9395-10.6631L66.71-21.5273L87.8945-21.5273L91.7051-10.6631C92.623-7.65918 94.1201-6.49902 96.96-6.49902C99.9141-6.49902 101.85-8.30176 101.85-11.0791C101.85-12.084 101.677-12.9609 101.265-14.1084L84.9463-58.6641C83.6484-62.2686 81.1953-63.9912 77.3574-63.9912C73.6162-63.9912 71.2207-62.2598 69.9541-58.6641L53.499-13.8926C53.1445-12.7891 52.9629-11.9258 52.9629-10.9863C52.9629-8.21777 54.7656-6.49902 57.6846-6.49902ZM69.1484-29.376L77.2197-53.167L77.4814-53.167L85.5527-29.376ZM14.0908-6.53906C16.293-6.53906 17.6982-7.68652 18.4561-10.3311L20.8037-17.6709L35.2744-17.6709L37.6221-10.2871C38.4336-7.58887 39.8389-6.53906 42.0801-6.53906C44.6465-6.53906 46.4102-8.19629 46.4102-10.5713C46.4102-11.5508 46.1572-12.5264 45.7939-13.6387L34.7256-43.5254C33.4717-46.9102 31.2686-48.5547 28.0039-48.5547C24.8584-48.5547 22.6953-46.9639 21.459-43.5254L10.3682-13.6387C9.97363-12.6328 9.76562-11.5205 9.76562-10.5713C9.76562-8.10352 11.4365-6.53906 14.0908-6.53906ZM22.8398-24.2441L27.5195-39.5078L28.4619-39.5078L33.2344-24.2441Z"/>
  </g>
  <g id="Regular-S" transform="matrix(1 0 0 1 1396.08 696)">
   <path class="SFSymbolsPreviewWireframe" d="M54.6875-6.98242C56.9824-6.98242 58.1543-7.86133 58.9844-10.3027L63.3789-22.7051L85.2051-22.7051L89.6484-10.3027C90.4785-7.86133 91.6504-6.98242 93.9453-6.98242C96.2402-6.98242 97.7539-8.39844 97.7539-10.5957C97.7539-11.3281 97.6074-12.0117 97.2656-12.9395L79.9805-59.4727C78.9551-62.207 77.0996-63.5254 74.3164-63.5254C71.5332-63.5254 69.7266-62.207 68.75-59.4727L51.416-12.8906C51.123-11.9629 50.9766-11.3281 50.9766-10.5469C50.9766-8.34961 52.3926-6.98242 54.6875-6.98242ZM65.5273-29.2969L74.1699-53.8086L74.4141-53.8086L83.0566-29.2969ZM13.3789-7.03125C15.1855-7.03125 16.4062-7.95898 17.041-10.0586L19.7754-18.5059L34.2285-18.5059L36.9629-10.0586C37.6953-7.86133 38.916-7.03125 40.6738-7.03125C42.8711-7.03125 44.3359-8.39844 44.3359-10.3516C44.3359-11.1816 44.0918-12.0605 43.7988-12.9883L32.5195-43.2617C31.4941-45.9961 29.5898-47.4121 27.002-47.4121C24.4629-47.4121 22.6074-46.0938 21.582-43.2617L10.2539-12.9883C9.91211-12.1582 9.76562-11.2305 9.76562-10.3516C9.76562-8.34961 11.1816-7.03125 13.3789-7.03125ZM21.6797-24.1211L26.4648-39.209L27.5391-39.209L32.373-24.1211Z"/>
  </g>
  <g id="Light-S" transform="matrix(1 0 0 1 1100.13 696)">
   <path class="SFSymbolsPreviewWireframe" d="M52.9014-7.02783C54.6514-7.02783 55.5205-7.70996 56.169-9.56104L61.502-24.0674L84.6904-24.0674L90.0723-9.56104C90.7056-7.70996 91.5898-7.02783 93.3247-7.02783C95.0747-7.02783 96.2402-8.11084 96.2402-9.79346C96.2402-10.3594 96.124-10.8916 95.8579-11.6074L77.3618-60.4414C76.6089-62.4644 75.2227-63.4951 73.1206-63.4951C71.0186-63.4951 69.666-62.4795 68.9316-60.4414L50.417-11.5737C50.1846-10.8579 50.0684-10.3594 50.0684-9.75977C50.0684-8.07715 51.1514-7.02783 52.9014-7.02783ZM63.1963-29.1455L72.9893-55.8974L73.2031-55.8974L83.0112-29.1455ZM12.5615-7.22803C13.9746-7.22803 14.8926-7.94385 15.4063-9.55909L18.958-19.7168L34.3042-19.7168L37.8559-9.55909C38.437-7.87646 39.3398-7.22803 40.7495-7.22803C42.4019-7.22803 43.564-8.27734 43.564-9.79151C43.564-10.4399 43.3804-11.1221 43.148-11.8228L30.7637-44.4878C30.0108-46.5259 28.5908-47.5786 26.6235-47.5786C24.6899-47.5786 23.3188-46.5933 22.5508-44.4878L10.148-11.8228C9.88184-11.1895 9.76562-10.4736 9.76562-9.79151C9.76562-8.24365 10.8789-7.22803 12.5615-7.22803ZM20.499-24.1514L26.2529-40.8589L27.0093-40.8589L32.7969-24.1514Z"/>
  </g>
  <g id="Thin-S" transform="matrix(1 0 0 1 804.42 696)">
   <path class="SFSymbolsPreviewWireframe" d="M50.5391-7.08789C51.5684-7.08789 52.0372-7.50977 52.4454-8.58009L59.0196-25.8691L84.0098-25.8691L90.6328-8.58009C91.0059-7.50977 91.5098-7.08789 92.5039-7.08789C93.5332-7.08789 94.2383-7.73047 94.2383-8.73244C94.2383-9.07814 94.1621-9.41018 93.9961-9.84573L73.8985-61.7226C73.5059-62.8047 72.7403-63.4551 71.5391-63.4551C70.3379-63.4551 69.5859-62.8398 69.1719-61.7226L49.0957-9.83206C48.9434-9.3965 48.8672-9.07814 48.8672-8.71876C48.8672-7.7168 49.5098-7.08789 50.5391-7.08789ZM60.1133-28.9453L71.4278-58.6601L71.6016-58.6601L82.9512-28.9453ZM11.4805-7.48828C12.3731-7.48828 12.8907-7.92383 13.2442-8.89845L17.877-21.3183L34.4043-21.3183L39.0371-8.89845C39.418-7.89648 39.9004-7.48828 40.8496-7.48828C41.7813-7.48828 42.543-8.11719 42.543-9.05079C42.543-9.459 42.4395-9.88088 42.2871-10.2813L28.4414-46.1094C28.0489-47.2266 27.2695-47.7988 26.1231-47.7988C24.9902-47.7988 24.2598-47.2539 23.832-46.1094L10.0078-10.2813C9.8418-9.90822 9.76562-9.47267 9.76562-9.05079C9.76562-8.10352 10.4785-7.48828 11.4805-7.48828ZM18.9375-24.1914L25.9727-43.041L26.3086-43.041L33.3574-24.1914Z"/>
  </g>
  <g id="Ultralight-S" transform="matrix(1 0 0 1 508.222 696)">
   <path class="SFSymbolsPreviewWireframe" d="M49.3291-7.11865C49.9893-7.11865 50.253-7.40723 50.5382-8.07765L57.7481-26.792L83.6611-26.792L90.9199-8.07765C91.1597-7.40723 91.4688-7.11865 92.0835-7.11865C92.7437-7.11865 93.2129-7.53565 93.2129-8.18898C93.2129-8.4219 93.1573-8.65139 93.0425-8.94339L72.1246-62.3789C71.9166-62.979 71.4688-63.4346 70.729-63.4346C69.9893-63.4346 69.5449-63.0244 69.2949-62.3789L48.419-8.93997C48.3076-8.64798 48.252-8.4219 48.252-8.18557C48.252-7.53223 48.669-7.11865 49.3291-7.11865ZM58.5342-28.8428L70.628-60.0751L70.7813-60.0751L82.9204-28.8428ZM10.9268-7.62158C11.5528-7.62158 11.8653-7.91357 12.1368-8.56007L17.3233-22.1386L34.4556-22.1386L39.6421-8.56007C39.9204-7.90674 40.1875-7.62158 40.9009-7.62158C41.4634-7.62158 42.02-8.03516 42.02-8.6714C42.02-8.95656 41.9575-9.24514 41.8462-9.49173L27.252-46.9399C27.044-47.5854 26.5928-47.9116 25.8667-47.9116C25.144-47.9116 24.7417-47.5923 24.4883-46.9399L9.93604-9.49173C9.82129-9.25198 9.76562-8.95998 9.76562-8.6714C9.76562-8.03174 10.2734-7.62158 10.9268-7.62158ZM18.1377-24.2119L25.8291-44.1587L25.9497-44.1587L33.6445-24.2119Z"/>
  </g>
 </g>
</svg>
